SplineFontDB: 3.2
FontName: D-DIN-PRO-Heavy
FullName: D-DIN-PRO-Heavy
FamilyName: D-DIN-PRO
Weight: Heavy
Copyright: Copyright (c) CyberFei. All rights reserved
Version: 1.1.0
ItalicAngle: 0
UnderlinePosition: -150
UnderlineWidth: 50
Ascent: 831
Descent: 169
InvalidEm: 0
sfntRevision: 0x00010000
LayerCount: 2
Layer: 0 0 "Back" 1
Layer: 1 0 "Fore" 0
XUID: [1021 868 -1451673819 25804]
StyleMap: 0x0020
FSType: 4
OS2Version: 3
OS2_WeightWidthSlopeOnly: 0
OS2_UseTypoMetrics: 0
CreationTime: 1462909513
ModificationTime: 1778060077
PfmFamily: 17
TTFWeight: 900
TTFWidth: 5
LineGap: 86
VLineGap: 0
Panose: 2 11 8 4 3 2 2 3 2 4
OS2TypoAscent: 831
OS2TypoAOffset: 0
OS2TypoDescent: -169
OS2TypoDOffset: 0
OS2TypoLinegap: 86
OS2WinAscent: 902
OS2WinAOffset: 0
OS2WinDescent: 184
OS2WinDOffset: 0
HheadAscent: 831
HheadAOffset: 0
HheadDescent: -169
HheadDOffset: 0
OS2SubXSize: 650
OS2SubYSize: 600
OS2SubXOff: 0
OS2SubYOff: 75
OS2SupXSize: 650
OS2SupYSize: 600
OS2SupXOff: 0
OS2SupYOff: 350
OS2StrikeYSize: 50
OS2StrikeYPos: 312
OS2CapHeight: 690
OS2XHeight: 520
OS2Vendor: 'MONO'
OS2CodePages: 20000001.00000000
OS2UnicodeRanges: 8000006f.4000000a.00000000.00000000
Lookup: 1 0 0 "'aalt' Access All Alternates lookup 0" { "'aalt' Access All Alternates lookup 0 subtable"  } ['aalt' ('DFLT' <'dflt' > ) ]
Lookup: 1 0 0 "'sups' Superscript lookup 1" { "'sups' Superscript lookup 1 subtable" ("superior") } ['sups' ('DFLT' <'dflt' > ) ]
Lookup: 4 0 0 "'frac' Diagonal Fractions lookup 2" { "'frac' Diagonal Fractions lookup 2 subtable"  } ['frac' ('DFLT' <'dflt' > ) ]
Lookup: 6 0 0 "'ordn' Ordinals lookup 3" { "'ordn' Ordinals lookup 3 contextual 0"  "'ordn' Ordinals lookup 3 contextual 1"  } ['ordn' ('DFLT' <'dflt' > ) ]
Lookup: 4 0 0 "'dlig' Discretionary Ligatures lookup 4" { "'dlig' Discretionary Ligatures lookup 4 subtable"  } ['dlig' ('DFLT' <'dflt' > ) ]
Lookup: 4 0 1 "'liga' Standard Ligatures lookup 5" { "'liga' Standard Ligatures lookup 5 subtable"  } ['liga' ('DFLT' <'dflt' > ) ]

StartChar: .notdef
Encoding: 65536 -1 0
Width: 603
GlyphClass: 1
Flags: MW
HStem: 0.166016 71.8203<175.552 446.767 175.552 518.586> 620.086 71.8203<175.552 446.767 175.552 175.552>
VStem: 103.731 71.8203<71.9863 71.9863 71.9863 620.086> 446.767 71.8193<71.9863 620.086 620.086 620.086>
LayerCount: 2
Fore
SplineSet
103.731445312 691.90625 m 1
 518.5859375 691.90625 l 1
 518.5859375 0.166015625 l 1
 103.731445312 0.166015625 l 1
 103.731445312 691.90625 l 1
175.551757812 71.986328125 m 1
 446.766601562 71.986328125 l 1
 446.766601562 620.0859375 l 1
 175.551757812 620.0859375 l 1
 175.551757812 71.986328125 l 1
EndSplineSet
EndChar

StartChar: exclam
Encoding: 33 33 3
Width: 267
GlyphClass: 2
Flags: MW
HStem: 0.166016 162.54<64.041 227.526 64.041 227.526> 671.906 20G<58.2539 233.314 233.314 233.314>
VStem: 64.041 163.485<0.166016 162.706 0.166016 162.706> 83.0039 125.56<217.517 217.517>
LayerCount: 2
Fore
SplineSet
233.314453125 691.90625 m 1xd0
 208.563476562 217.516601562 l 1
 83.00390625 217.516601562 l 1
 58.25390625 691.90625 l 1
 233.314453125 691.90625 l 1xd0
64.041015625 162.706054688 m 1xe0
 227.526367188 162.706054688 l 1
 227.526367188 0.166015625 l 1
 64.041015625 0.166015625 l 1
 64.041015625 162.706054688 l 1xe0
EndSplineSet
EndChar

StartChar: quotedbl
Encoding: 34 34 4
Width: 393
GlyphClass: 2
Flags: MW
HStem: 370.606 321.3<44.1963 194.451 44.1963 194.451 44.1963 222.802 222.802 372.111>
VStem: 44.1963 150.255<370.606 691.906 370.606 691.906> 222.802 149.31<370.606 691.906 370.606 691.906>
LayerCount: 2
Fore
SplineSet
44.1962890625 691.90625 m 1
 194.451171875 691.90625 l 1
 194.451171875 370.606445312 l 1
 44.1962890625 370.606445312 l 1
 44.1962890625 691.90625 l 1
222.801757812 691.90625 m 1
 372.111328125 691.90625 l 1
 372.111328125 370.606445312 l 1
 222.801757812 370.606445312 l 1
 222.801757812 691.90625 l 1
EndSplineSet
EndChar

StartChar: numbersign
Encoding: 35 35 5
Width: 545
GlyphClass: 2
Flags: MW
HStem: 0.166016 21G<66.9102 204.285 66.9102 66.9102 264.415 402.734 264.415 264.415> 192.946 126.63<25.2959 92.4248 25.2959 109.087 246.483 289.93 25.2959 229.8 444.729 516.696> 383.836 126.631<48.9209 117.85 48.9209 134.496 48.9209 255.246 271.859 315.354 469.365 540.321> 671.906 20G<158.121 295.484 295.484 295.484 355.626 492.99 492.99 492.99>
LayerCount: 2
Fore
SplineSet
540.321289062 510.466796875 m 1
 540.321289062 383.8359375 l 1
 452.907226562 383.8359375 l 1
 444.728515625 319.576171875 l 1
 516.696289062 319.576171875 l 1
 516.696289062 192.946289062 l 1
 428.25 192.946289062 l 1
 402.734375 0.166015625 l 1
 264.415039062 0.166015625 l 1
 289.9296875 192.946289062 l 1
 229.799804688 192.946289062 l 1
 204.28515625 0.166015625 l 1
 66.91015625 0.166015625 l 1
 92.4248046875 192.946289062 l 1
 25.2958984375 192.946289062 l 1
 25.2958984375 319.576171875 l 1
 109.086914062 319.576171875 l 1
 117.849609375 383.8359375 l 1
 48.9208984375 383.8359375 l 1
 48.9208984375 510.466796875 l 1
 134.49609375 510.466796875 l 1
 158.12109375 691.90625 l 1
 295.484375 691.90625 l 1
 271.859375 510.466796875 l 1
 332.000976562 510.466796875 l 1
 355.625976562 691.90625 l 1
 492.990234375 691.90625 l 1
 469.365234375 510.466796875 l 1
 540.321289062 510.466796875 l 1
306.591796875 319.576171875 m 1
 315.354492188 383.8359375 l 1
 255.24609375 383.8359375 l 1
 246.483398438 319.576171875 l 1
 306.591796875 319.576171875 l 1
EndSplineSet
EndChar

StartChar: dollar
Encoding: 36 36 6
Width: 509
GlyphClass: 2
Flags: MW
HStem: -56.5332 224.91<245.231 285.267 245.231 328.64 191.614 285.267> 530.312 208.845<235.099 282.918>
VStem: 49.8643 153.091<471.181 493.486 471.181 495.898> 191.614 137.025<-56.5332 33.6924 33.6924 33.6924> 320.134 154.982<208.24 231.734>
LayerCount: 2
Fore
SplineSet
222.127929688 285.865234375 m 2xc8
 127.887695312 302.694335938 49.8642578125 349.559570312 49.8642578125 470.776367188 c 0
 49.8642578125 521.01953125 63.6748046875 564.458007812 92.2587890625 598.758789062 c 0
 117.426757812 628.959960938 151.112304688 649.4765625 191.615234375 660.387695312 c 1
 191.615234375 739.15625 l 1
 328.640625 739.15625 l 1
 328.640625 659.1640625 l 1
 355.072265625 651.48046875 456.830078125 618.110351562 466.564453125 474.021484375 c 2
 467.997070312 452.821289062 l 1
 317.169921875 452.821289062 l 1
 312.754882812 500.27734375 309.9609375 530.311523438 255.875 530.311523438 c 0
 214.323242188 530.311523438 202.955078125 507.690429688 202.955078125 479.28125 c 0
 202.955078125 463.081054688 207.365234375 453.393554688 214.708007812 446.438476562 c 0
 222.311523438 439.235351562 238.213867188 431.638671875 263.432617188 426.947265625 c 2
 317.1796875 416.57421875 l 2
 406.75 399.854492188 475.116210938 348.752929688 475.116210938 231.69140625 c 0xe8
 475.116210938 177.922851562 461.181640625 132.461914062 431.62109375 97.853515625 c 0
 405.694335938 67.5 370.784179688 47.064453125 328.639648438 36.2490234375 c 1
 328.639648438 -56.533203125 l 1
 191.614257812 -56.533203125 l 1
 191.614257812 33.6923828125 l 1xd0
 142.111328125 44.470703125 42.890625 84.625 35.7119140625 233.557617188 c 2
 34.708984375 254.372070312 l 1
 181.81640625 254.372070312 l 1
 185.461914062 223.994140625 188.67578125 197.209960938 205.122070312 182.86328125 c 0
 214.788085938 174.430664062 231.752929688 168.376953125 258.708984375 168.376953125 c 0
 311.825195312 168.376953125 320.133789062 194.237304688 320.133789062 222.2421875 c 0
 320.133789062 241.225585938 315.547851562 252.579101562 309.299804688 259.37890625 c 0
 302.842773438 266.404296875 289.995117188 273.387695312 268.336914062 277.377929688 c 0
 268.327148438 277.379882812 222.127929688 285.865234375 222.127929688 285.865234375 c 2xc8
152.869140625 672.0625 m 1024
EndSplineSet
EndChar

StartChar: percent
Encoding: 37 37 7
Width: 894
GlyphClass: 2
Flags: MW
HStem: 0.166016 21G<192.901 330.871 192.901 192.901> 677.576 21G
VStem: 46.0869 137.025<410.296 415.021 415.021 532.201 403.97 544.486 403.97 568.075> 202.957 137.025<415.022 532.202 532.202 543.585> 569.618 137.025<155.146 159.87 159.87 277.051 148.819 289.335 148.819 312.924> 726.488 137.024<159.869 277.05 277.05 288.433>
LayerCount: 2
Fore
SplineSet
193.506835938 249.646484375 m 0
 138.12890625 249.646484375 46.0869140625 266.237304688 46.0869140625 410.295898438 c 2
 46.0869140625 544.486328125 l 2
 46.0869140625 591.6640625 57.7353515625 630.672851562 84.3046875 658.009765625 c 0
 110.791015625 685.264648438 148.473632812 697.576171875 193.506835938 697.576171875 c 0
 256.391601562 697.576171875 339.982421875 676.325195312 339.982421875 544.486328125 c 2
 339.982421875 410.295898438 l 2
 339.982421875 310.141601562 295.170898438 249.646484375 193.506835938 249.646484375 c 0
578.712890625 696.630859375 m 1
 717.685546875 696.630859375 l 1
 330.87109375 0.166015625 l 1
 192.901367188 0.166015625 l 1
 578.712890625 696.630859375 l 1
186.689453125 374.328125 m 1
 186.615234375 374.415039062 l 1
 186.615234375 374.415039062 186.627929688 374.381835938 186.689453125 374.328125 c 1
202.95703125 415.022460938 m 2
 202.95703125 532.202148438 l 2
 202.95703125 554.967773438 200.658203125 570.03125 199.166015625 573.991210938 c 0
 198.553710938 574.241210938 196.924804688 574.7265625 193.506835938 574.7265625 c 0
 193.443359375 574.7265625 187.736328125 574.666992188 187.186523438 573.538085938 c 0
 185.67578125 570.012695312 183.112304688 555.126953125 183.112304688 532.201171875 c 2
 183.112304688 415.021484375 l 2
 183.112304688 392.91796875 185.37109375 378.247070312 186.8984375 374.189453125 c 0
 187.442382812 373.901367188 189.015625 373.44140625 193.506835938 373.44140625 c 0
 196.682617188 373.44140625 198.806640625 373.836914062 199.888671875 374.13671875 c 0
 201.068359375 378.857421875 202.95703125 393.573242188 202.95703125 415.022460938 c 2
717.038085938 -5.5029296875 m 0
 661.666015625 -5.5029296875 569.618164062 11.083984375 569.618164062 155.145507812 c 2
 569.618164062 289.334960938 l 2
 569.618164062 336.512695312 581.267578125 375.521484375 607.834960938 402.860351562 c 0
 634.322265625 430.115234375 672.004882812 442.426757812 717.038085938 442.426757812 c 0
 779.935546875 442.426757812 863.512695312 421.166015625 863.512695312 289.336914062 c 2
 863.512695312 155.147460938 l 2
 863.512695312 54.9931640625 818.702148438 -5.5029296875 717.038085938 -5.5029296875 c 0
710.219726562 119.176757812 m 1
 710.146484375 119.264648438 l 1
 710.146484375 119.264648438 710.159179688 119.231445312 710.219726562 119.176757812 c 1
726.48828125 159.869140625 m 2
 726.48828125 277.049804688 l 2
 726.48828125 299.815429688 724.189453125 314.879882812 722.697265625 318.838867188 c 0
 722.084960938 319.088867188 720.455078125 319.57421875 717.038085938 319.57421875 c 0
 716.973632812 319.57421875 711.267578125 319.515625 710.717773438 318.38671875 c 0
 709.208007812 314.862304688 706.643554688 299.975585938 706.643554688 277.05078125 c 2
 706.643554688 159.870117188 l 2
 706.643554688 137.767578125 708.90234375 123.095703125 710.428710938 119.0390625 c 0
 710.973632812 118.750976562 712.546875 118.290039062 717.038085938 118.290039062 c 0
 720.213867188 118.290039062 722.337890625 118.685546875 723.418945312 118.985351562 c 0
 724.599609375 123.706054688 726.48828125 138.420898438 726.48828125 159.869140625 c 2
EndSplineSet
EndChar

StartChar: ampersand
Encoding: 38 38 8
Width: 601
GlyphClass: 2
Flags: MW
HStem: -10.2295 140.805<231.283 264.625 231.283 282.829> 0.165039 140.807<479.991 569.613 528.982 569.613 528.982 569.613> 571.891 130.411<273.46 283.28>
VStem: 50.8086 151.201<177.945 204.093 177.945 225.897> 98.0596 149.309<526.722 551.994 526.722 580.601> 308.794 147.423<524.436 542.225>
LayerCount: 2
Fore
SplineSet
456.216796875 532.201171875 m 0xac
 456.216796875 463.096679688 418.202148438 414.266601562 356.541015625 360.051757812 c 1
 412.3984375 284.932617188 l 1
 474.55859375 362.407226562 l 1
 577.989257812 270.91015625 l 1
 497.245117188 169.736328125 l 1
 509.521484375 152.9375 518.265625 140.971679688 528.982421875 140.971679688 c 2
 569.61328125 140.971679688 l 1
 569.61328125 0.1650390625 l 1
 504.408203125 0.1650390625 l 2x6c
 455.573242188 0.1650390625 430.766601562 16.6171875 400.948242188 53.0166015625 c 1
 368.057617188 20.8583984375 322.069335938 -10.2294921875 243.588867188 -10.2294921875 c 0
 184.986328125 -10.2294921875 136.431640625 6.947265625 101.698242188 43.126953125 c 0
 67.4345703125 78.818359375 50.80859375 126.006835938 50.80859375 181.60546875 c 0xb4
 50.80859375 270.188476562 98.775390625 330.265625 160.146484375 383.4609375 c 1
 115.319335938 447.622070312 98.0595703125 483.731445312 98.0595703125 531.255859375 c 0
 98.0595703125 629.946289062 174.282226562 702.301757812 277.610351562 702.301757812 c 0
 384.684570312 702.301757812 456.216796875 626.552734375 456.216796875 532.201171875 c 0xac
278.553710938 571.890625 m 0
 268.3671875 571.890625 247.368164062 568.006835938 247.368164062 535.98046875 c 0
 247.368164062 517.463867188 254.678710938 502.921875 273.615234375 474.8359375 c 1
 298.250976562 497.788085938 308.793945312 512.891601562 308.793945312 535.98046875 c 0
 308.793945312 548.46875 305.51171875 556.494140625 299.77734375 562.801757812 c 0
 293.99609375 569.161132812 288.006835938 571.890625 278.553710938 571.890625 c 0
244.42578125 266.375 m 1
 218.381835938 241.145507812 202.009765625 218.076171875 202.009765625 190.110351562 c 0
 202.009765625 165.780273438 209.52734375 130.575195312 253.038085938 130.575195312 c 0xb4
 276.211914062 130.575195312 292.633789062 140.111328125 317.358398438 166.724609375 c 1
 244.42578125 266.375 l 1
EndSplineSet
EndChar

StartChar: quotesingle
Encoding: 39 39 9
Width: 213
GlyphClass: 2
Flags: MW
HStem: 370.606 321.3<44.1963 194.451 44.1963 194.451>
VStem: 44.1963 150.255<370.606 691.906 370.606 691.906>
LayerCount: 2
Fore
SplineSet
44.1962890625 691.90625 m 1
 194.451171875 691.90625 l 1
 194.451171875 370.606445312 l 1
 44.1962890625 370.606445312 l 1
 44.1962890625 691.90625 l 1
EndSplineSet
EndChar

StartChar: parenleft
Encoding: 40 40 10
Width: 325
GlyphClass: 2
Flags: MW
VStem: 50.8115 155.925<311.004 362.583 311.004 437.733>
LayerCount: 2
Fore
SplineSet
50.8115234375 329.971679688 m 0
 50.8115234375 545.495117188 144.088867188 682.991210938 183.134765625 739.157226562 c 1
 310.819335938 739.157226562 l 1
 281.5703125 681.267578125 251.990234375 622.724609375 229.375 525.33984375 c 0
 214.26953125 460.291015625 206.736328125 395.192382812 206.736328125 329.97265625 c 0
 206.736328125 292.036132812 207.618164062 128.776367188 296.35546875 -50.5869140625 c 2
 310.517578125 -79.212890625 l 1
 182.018554688 -79.212890625 l 1
 143.18359375 -21.7119140625 50.8115234375 118.370117188 50.8115234375 329.971679688 c 0
EndSplineSet
EndChar

StartChar: parenright
Encoding: 41 41 11
Width: 325
GlyphClass: 2
Flags: MW
VStem: 142.477 155.925<244.74 371.162>
LayerCount: 2
Fore
SplineSet
142.4765625 329.971679688 m 0
 142.4765625 412.352539062 129.965820312 557.918945312 52.9326171875 710.380859375 c 2
 38.3935546875 739.155273438 l 1
 166.077148438 739.155273438 l 1
 205.081054688 683.049804688 298.401367188 545.53515625 298.401367188 329.970703125 c 0
 298.401367188 118.331054688 205.990234375 -21.771484375 167.193359375 -79.2138671875 c 1
 38.6953125 -79.2138671875 l 1
 52.857421875 -50.587890625 l 2
 89.0751953125 22.6181640625 142.4765625 159.508789062 142.4765625 329.971679688 c 0
EndSplineSet
EndChar

StartChar: asterisk
Encoding: 42 42 12
Width: 389
GlyphClass: 2
Flags: MW
HStem: 367.771 324.135<153.816 258.711 153.816 258.711>
VStem: 153.816 104.895<367.771 444.14 367.771 444.921 367.771 444.921 618.156 691.906>
LayerCount: 2
Fore
SplineSet
258.7109375 367.771484375 m 1
 153.81640625 367.771484375 l 1
 153.81640625 444.920898438 l 1
 92.6416015625 409.627929688 l 1
 43.572265625 495.104492188 l 1
 106.444335938 531.255859375 l 1
 43.572265625 567.408203125 l 1
 92.546875 652.71875 l 1
 153.81640625 618.15625 l 1
 153.81640625 691.90625 l 1
 258.7109375 691.90625 l 1
 258.7109375 617.591796875 l 1
 320.129882812 653.025390625 l 1
 367.771484375 567.270507812 l 1
 305.325195312 531.36328125 l 1
 369.25 495.060546875 l 1
 318.745117188 409.833984375 l 1
 258.7109375 444.139648438 l 1
 258.7109375 367.771484375 l 1
EndSplineSet
EndChar

StartChar: plus
Encoding: 43 43 13
Width: 535
GlyphClass: 2
Flags: MW
HStem: 207.121 147.42<53.6465 204.847 53.6465 204.847 352.267 502.521>
VStem: 204.847 147.42<55.9209 207.121 55.9209 207.121 354.541 505.741>
LayerCount: 2
Fore
SplineSet
352.266601562 207.12109375 m 1
 352.266601562 55.9208984375 l 1
 204.846679688 55.9208984375 l 1
 204.846679688 207.12109375 l 1
 53.646484375 207.12109375 l 1
 53.646484375 354.541015625 l 1
 204.846679688 354.541015625 l 1
 204.846679688 505.741210938 l 1
 352.266601562 505.741210938 l 1
 352.266601562 354.541015625 l 1
 502.521484375 354.541015625 l 1
 502.521484375 207.12109375 l 1
 352.266601562 207.12109375 l 1
EndSplineSet
EndChar

StartChar: comma
Encoding: 44 44 14
Width: 213
GlyphClass: 2
Flags: MW
VStem: 44.1963 150.255<-48.7236 169.321 -48.7236 169.321 -48.7236 169.321>
LayerCount: 2
Fore
SplineSet
44.1962890625 169.321289062 m 1
 194.451171875 169.321289062 l 1
 194.451171875 -48.7236328125 l 1
 44.1962890625 -175.862304688 l 1
 44.1962890625 169.321289062 l 1
EndSplineSet
EndChar

StartChar: hyphen
Encoding: 45 45 15
Width: 378
GlyphClass: 2
Flags: MW
HStem: 272.326 148.365<50.8115 350.376 50.8115 350.376>
VStem: 50.8115 299.564<272.326 420.691 272.326 420.691>
LayerCount: 2
Fore
SplineSet
50.8115234375 420.69140625 m 1
 350.375976562 420.69140625 l 1
 350.375976562 272.326171875 l 1
 50.8115234375 272.326171875 l 1
 50.8115234375 420.69140625 l 1
EndSplineSet
EndChar

StartChar: period
Encoding: 46 46 16
Width: 234
GlyphClass: 2
Flags: MW
HStem: 0.166016 173.88<44.1963 215.241 44.1963 215.241>
VStem: 44.1963 171.045<0.166016 174.046 0.166016 174.046>
LayerCount: 2
Fore
SplineSet
44.1962890625 174.045898438 m 1
 215.241210938 174.045898438 l 1
 215.241210938 0.166015625 l 1
 44.1962890625 0.166015625 l 1
 44.1962890625 174.045898438 l 1
EndSplineSet
EndChar

StartChar: slash
Encoding: 47 47 17
Width: 416
GlyphClass: 2
Flags: MW
HStem: 676.631 20G<255.271 395.025 395.025 395.025>
LayerCount: 2
Fore
SplineSet
255.271484375 696.630859375 m 1
 395.025390625 696.630859375 l 1
 182.750976562 -9.283203125 l 1
 43.998046875 -9.283203125 l 1
 255.271484375 696.630859375 l 1
EndSplineSet
EndChar

StartChar: zero
Encoding: 48 48 18
Width: 518
GlyphClass: 2
Flags: MW
HStem: -10.2285 147.42<258.892 281.622 258.892 362.643> 553.936 148.366<258.407 281.685>
VStem: 55.5361 164.431<234.526 244.921 244.921 447.15> 321.08 163.486<244.921 447.15 447.15 465.106>
LayerCount: 2
Fore
SplineSet
270.051757812 -10.228515625 m 0
 149.50390625 -10.228515625 55.5361328125 49.20703125 55.5361328125 234.526367188 c 2
 55.5361328125 465.106445312 l 2
 55.5361328125 539.1875 72.689453125 598.598632812 110.221679688 640.419921875 c 0
 147.913085938 682.418945312 202.638671875 702.301757812 270.051757812 702.301757812 c 0
 352.233398438 702.301757812 484.56640625 676.21484375 484.56640625 465.106445312 c 2
 484.56640625 234.526367188 l 2
 484.56640625 131.24609375 455.234375 -10.228515625 270.051757812 -10.228515625 c 0
321.080078125 244.920898438 m 2
 321.080078125 447.150390625 l 2
 321.080078125 492.530273438 315.583984375 522.891601562 308.634765625 536.341796875 c 0
 303.052734375 547.145507812 293.317382812 553.935546875 270.051757812 553.935546875 c 0
 246.762695312 553.935546875 237.356445312 547.170898438 232.057617188 536.575195312 c 0
 225.291992188 523.04296875 219.966796875 492.5546875 219.966796875 447.150390625 c 2
 219.966796875 244.920898438 l 2
 219.966796875 199.552734375 225.423828125 169.009765625 232.471679688 155.139648438 c 0
 238.231445312 143.806640625 247.732421875 137.19140625 270.051757812 137.19140625 c 0
 293.192382812 137.19140625 302.91015625 143.9921875 308.575195312 155.139648438 c 0
 315.624023438 169.009765625 321.080078125 199.552734375 321.080078125 244.920898438 c 2
EndSplineSet
EndChar

StartChar: one
Encoding: 49 49 19
Width: 361
GlyphClass: 2
Flags: MW
HStem: 0.166016 21G<151.927 315.411 151.927 151.927> 671.906 20G<165.16 315.411 315.411 315.411>
VStem: 151.927 163.484<0.166016 496.167 496.167 496.167>
LayerCount: 2
Fore
SplineSet
42.306640625 416.787109375 m 1
 42.306640625 599.765625 l 1
 165.16015625 691.90625 l 1
 315.411132812 691.90625 l 1
 315.411132812 0.166015625 l 1
 151.926757812 0.166015625 l 1
 151.926757812 496.166992188 l 1
 42.306640625 416.787109375 l 1
EndSplineSet
Substitution2: "'sups' Superscript lookup 1 subtable" uni00B9
Substitution2: "'aalt' Access All Alternates lookup 0 subtable" uni00B9
EndChar

StartChar: two
Encoding: 50 50 20
Width: 501
GlyphClass: 2
Flags: MW
HStem: 0.166016 148.365<269.781 471.336 269.781 471.336> 557.717 144.585<247.485 281.352>
VStem: 50.8115 159.705<464.161 499.126 464.161 506.687 464.161 562.957> 305.961 165.375<490.621 491.566 491.566 503.852 503.852 507.631>
LayerCount: 2
Fore
SplineSet
262.491210938 702.301757812 m 0
 389.997070312 702.301757812 471.3359375 614.102539062 471.3359375 507.630859375 c 2
 471.3359375 491.56640625 l 2
 471.3359375 449.168945312 462.467773438 398.015625 407.678710938 327.31640625 c 0
 407.658203125 327.2890625 315.23046875 207.45703125 269.78125 148.53125 c 1
 471.3359375 148.53125 l 1
 471.3359375 0.166015625 l 1
 53.646484375 0.166015625 l 1
 53.646484375 125.048828125 l 1
 274.069335938 410.92578125 l 2
 296.299804688 440.799804688 305.9609375 467.338867188 305.9609375 490.62109375 c 2
 305.9609375 503.8515625 l 2
 305.9609375 514.348632812 304.936523438 557.716796875 257.766601562 557.716796875 c 0
 237.204101562 557.716796875 210.516601562 548.25390625 210.516601562 499.125976562 c 2
 210.516601562 464.161132812 l 1
 50.8115234375 464.161132812 l 1
 50.8115234375 506.686523438 l 2
 50.8115234375 619.227539062 131.939453125 702.301757812 262.491210938 702.301757812 c 0
EndSplineSet
Substitution2: "'sups' Superscript lookup 1 subtable" uni00B2
Substitution2: "'aalt' Access All Alternates lookup 0 subtable" uni00B2
EndChar

StartChar: three
Encoding: 51 51 21
Width: 511
GlyphClass: 2
Flags: MW
HStem: -10.2285 144.586<237.005 270.982 237.005 321.492> 283.667 144.585<199.175 251.149 251.149 252.095 199.175 251.149> 557.717 144.585<249.423 278.173>
VStem: 50.8086 154.979<177.827 183.497 183.497 217.518 171.953 217.518> 306.904 159.706<486.842 496.291 496.291 501.018 501.018 510.467 479.93 513.753> 317.299 159.707<198.617 215.627 215.627 216.571 131.111 243.641>
LayerCount: 2
Fore
SplineSet
477.005859375 198.616210938 m 2xf4
 477.005859375 63.6064453125 379.545898438 -10.228515625 263.4375 -10.228515625 c 0
 199.267578125 -10.228515625 146.625976562 5.18359375 108.206054688 38.576171875 c 0
 69.5361328125 72.1865234375 50.80859375 120.03515625 50.80859375 177.827148438 c 2
 50.80859375 217.517578125 l 1
 205.788085938 217.517578125 l 1
 205.788085938 183.497070312 l 2
 205.788085938 160.409179688 212.466796875 134.357421875 261.543945312 134.357421875 c 0
 280.420898438 134.357421875 292.623046875 139.91015625 302.041992188 150.424804688 c 0
 311.610351562 161.106445312 317.298828125 176.228515625 317.298828125 198.6171875 c 2
 317.298828125 215.626953125 l 2xf4
 317.298828125 271.655273438 285.627929688 283.666992188 252.094726562 283.666992188 c 2
 199.174804688 283.666992188 l 1
 199.174804688 428.251953125 l 1
 251.149414062 428.251953125 l 2
 280.283203125 428.251953125 306.904296875 440.838867188 306.904296875 486.841796875 c 2
 306.904296875 501.017578125 l 2
 306.904296875 526.489257812 298.581054688 557.716796875 257.764648438 557.716796875 c 0
 241.081054688 557.716796875 208.624023438 554.135742188 208.624023438 508.576171875 c 2
 208.624023438 472.666015625 l 1
 55.5341796875 472.666015625 l 1
 55.5341796875 508.576171875 l 2
 55.5341796875 567.419921875 73.724609375 616.274414062 111.533203125 651.202148438 c 0
 149.172851562 685.973632812 200.506835938 702.301757812 262.489257812 702.301757812 c 0
 323.393554688 702.301757812 374.063476562 685.500976562 411.302734375 650.052734375 c 0
 448.413085938 614.7265625 466.610351562 567.015625 466.610351562 510.466796875 c 2
 466.610351562 496.291015625 l 2xf8
 466.610351562 463.568359375 457.95703125 409.379882812 408.162109375 368.41796875 c 1
 438.197265625 347.25390625 477.005859375 303.153320312 477.005859375 216.571289062 c 2
 477.005859375 198.616210938 l 2xf4
EndSplineSet
Substitution2: "'sups' Superscript lookup 1 subtable" uni00B3
Substitution2: "'aalt' Access All Alternates lookup 0 subtable" uni00B3
EndChar

StartChar: four
Encoding: 52 52 22
Width: 527
GlyphClass: 2
Flags: MW
HStem: 0.166016 21G<290.842 454.326 290.842 290.842> 104.116 148.365<214.965 290.842 214.965 290.842 454.326 507.246> 671.906 20G<234.223 401.13 401.13 401.13>
VStem: 290.842 163.484<0.166016 104.116 0.166016 104.116 252.481 405.571>
LayerCount: 2
Fore
SplineSet
454.326171875 252.481445312 m 1
 507.24609375 252.481445312 l 1
 507.24609375 104.116210938 l 1
 454.326171875 104.116210938 l 1
 454.326171875 0.166015625 l 1
 290.841796875 0.166015625 l 1
 290.841796875 104.116210938 l 1
 41.361328125 104.116210938 l 1
 41.361328125 236.673828125 l 1
 234.22265625 691.90625 l 1
 401.129882812 691.90625 l 1
 214.96484375 252.481445312 l 1
 290.841796875 252.481445312 l 1
 290.841796875 405.571289062 l 1
 454.326171875 405.571289062 l 1
 454.326171875 252.481445312 l 1
EndSplineSet
EndChar

StartChar: five
Encoding: 53 53 23
Width: 504
GlyphClass: 2
Flags: MW
HStem: -10.2285 144.584<239.257 269.473 239.257 291.417> 325.245 143.641<245.97 344.119> 546.375 145.53<211.46 457.16 211.46 211.46>
VStem: 64.9854 146.475<454.074 546.375 454.074 691.905 454.074 691.905> 310.686 159.706<205.229 254.369 254.369 260.985 167.782 268.691>
LayerCount: 2
Fore
SplineSet
284.2265625 468.885742188 m 0
 404.01171875 468.885742188 470.391601562 394.309570312 470.391601562 260.985351562 c 2
 470.391601562 199.560546875 l 2
 470.391601562 136.00390625 452.198242188 83.494140625 413.952148438 45.60546875 c 0
 375.759765625 7.7705078125 323.178710938 -10.228515625 259.65625 -10.228515625 c 0
 199.700195312 -10.228515625 149.649414062 4.875 112.08984375 37.0693359375 c 0
 74.1630859375 69.578125 55.5361328125 115.381835938 55.5361328125 170.265625 c 2
 55.5361328125 204.28515625 l 1
 208.625976562 204.28515625 l 1
 208.625976562 178.770507812 l 2
 208.625976562 156.525390625 218.859375 134.35546875 259.655273438 134.35546875 c 0
 279.291015625 134.35546875 289.963867188 140.01953125 297.201171875 149.60546875 c 0
 305.100585938 160.06640625 310.685546875 178.0390625 310.685546875 205.229492188 c 2
 310.685546875 254.369140625 l 2
 310.685546875 283.013671875 304.896484375 301.159179688 297.446289062 310.623046875 c 0
 290.459960938 319.499023438 279.374023438 325.245117188 258.709960938 325.245117188 c 0
 233.229492188 325.245117188 219.000976562 313.313476562 209.744140625 292.595703125 c 2
 204.487304688 280.830078125 l 1
 64.9853515625 280.830078125 l 1
 64.9853515625 691.905273438 l 1
 457.16015625 691.905273438 l 1
 457.16015625 546.375 l 1
 211.459960938 546.375 l 1
 211.459960938 454.07421875 l 1
 233.3515625 463.99609375 257.802734375 468.885742188 284.2265625 468.885742188 c 0
EndSplineSet
EndChar

StartChar: six
Encoding: 54 54 24
Width: 522
GlyphClass: 2
Flags: MW
HStem: -10.2285 144.584<247.987 294.233 247.987 304.102> 671.905 20G<250.384 425.374 425.374 425.374>
VStem: 50.8105 164.431<202.396 230.745 185.758 231.69 185.758 250.847> 329.585 163.487<200.505 206.177 206.177 229.8 229.8 236.416 173.314 244.914>
LayerCount: 2
Fore
SplineSet
50.810546875 202.395507812 m 2
 50.810546875 231.690429688 l 2
 50.810546875 270.00390625 55.7578125 313.740234375 95.4189453125 390.801757812 c 2
 250.383789062 691.905273438 l 1
 425.374023438 691.905273438 l 1
 294.921875 437.38671875 l 1
 298.245117188 437.596679688 301.611328125 437.700195312 305.017578125 437.700195312 c 0
 360.384765625 437.700195312 407.184570312 419.588867188 441.841796875 382.787109375 c 0
 476.576171875 345.904296875 493.072265625 296.076171875 493.072265625 236.416015625 c 2
 493.072265625 206.176757812 l 2
 493.072265625 140.452148438 473.044921875 86.162109375 431.532226562 47.1328125 c 0
 390.45703125 8.5146484375 336.26171875 -10.228515625 271.942382812 -10.228515625 c 0
 205.407226562 -10.228515625 150.4609375 7.9580078125 110.342773438 46.30078125 c 0
 70.142578125 84.720703125 50.810546875 137.998046875 50.810546875 202.395507812 c 2
271.940429688 134.35546875 m 0
 316.525390625 134.35546875 329.584960938 166.453125 329.584960938 200.504882812 c 2
 329.584960938 229.799804688 l 2
 329.584960938 260.028320312 319.34375 295.005859375 271.940429688 295.005859375 c 0
 245.541992188 295.005859375 215.241210938 283.512695312 215.241210938 230.745117188 c 2
 215.241210938 199.560546875 l 2
 215.241210938 171.956054688 224.034179688 134.35546875 271.940429688 134.35546875 c 0
EndSplineSet
EndChar

StartChar: seven
Encoding: 55 55 25
Width: 465
GlyphClass: 2
Flags: MW
HStem: 0.166016 21G<79.9092 247.088 79.9092 79.9092> 544.486 147.42<36.6367 282.14 36.6367 451.491>
LayerCount: 2
Fore
SplineSet
451.491210938 691.90625 m 1
 451.491210938 560.81640625 l 1
 247.087890625 0.166015625 l 1
 79.9091796875 0.166015625 l 1
 282.139648438 544.486328125 l 1
 36.63671875 544.486328125 l 1
 36.63671875 691.90625 l 1
 451.491210938 691.90625 l 1
EndSplineSet
EndChar

StartChar: eight
Encoding: 56 56 26
Width: 531
GlyphClass: 2
Flags: MW
HStem: -10.2285 144.586<266.231 286.758 266.231 339.352> 289.338 141.749<268.166 285.1 268.166 286.758> 557.717 144.585<268.572 284.756>
VStem: 55.5342 159.705<199.562 201.452 201.452 221.297 221.297 224.132 190.417 235.441> 67.8203 158.759<487.786 504.796 504.796 504.797 477.355 538.834> 326.749 158.762<486.842 487.786 487.786 504.796 473.265 504.797 473.265 513.064> 338.09 158.761<201.452 222.242 136.124 224.132 136.124 234.749>
LayerCount: 2
Fore
SplineSet
275.721679688 -10.228515625 m 0xe2
 144.736328125 -10.228515625 55.5341796875 76.42578125 55.5341796875 199.5625 c 2
 55.5341796875 221.296875 l 2xf2
 55.5341796875 249.584960938 62.4013671875 315.194335938 120.697265625 362.702148438 c 1
 98.1298828125 383.125976562 67.8203125 422.67578125 67.8203125 487.786132812 c 2
 67.8203125 504.795898438 l 2
 67.8203125 572.873046875 100.750976562 638.247070312 166.732421875 675.63671875 c 0
 198.484375 693.629882812 235.4375 702.301757812 276.665039062 702.301757812 c 0
 409.11328125 702.301757812 485.510742188 609.203125 485.510742188 504.795898438 c 2
 485.510742188 487.786132812 l 2xec
 485.510742188 458.744140625 478.32421875 405.361328125 432.038085938 362.67578125 c 1
 451.231445312 346.758789062 496.850585938 300.677734375 496.850585938 222.2421875 c 2
 496.850585938 200.506835938 l 2
 496.850585938 71.740234375 402.981445312 -10.228515625 275.721679688 -10.228515625 c 0xe2
326.749023438 486.841796875 m 2xec
 326.749023438 504.796875 l 2
 326.749023438 521.331054688 322.0234375 533.247070312 312.702148438 543.25 c 0
 303.711914062 552.897460938 292.848632812 557.716796875 276.6640625 557.716796875 c 0
 260.48046875 557.716796875 249.6171875 552.897460938 240.626953125 543.25 c 0
 231.305664062 533.247070312 226.579101562 521.331054688 226.579101562 504.796875 c 2
 226.579101562 486.841796875 l 2
 226.579101562 467.869140625 231.579101562 454.989257812 240.321289062 445.373046875 c 0
 248.814453125 436.029296875 259.66796875 431.086914062 276.6640625 431.086914062 c 0
 293.536132812 431.086914062 304.314453125 436.06640625 312.859375 445.6796875 c 0
 321.854492188 455.80078125 326.749023438 468.647460938 326.749023438 486.841796875 c 2xec
338.08984375 201.452148438 m 2xf2
 338.08984375 224.131835938 l 2
 338.08984375 245.366210938 332.205078125 260.3359375 321.266601562 271.971679688 c 0
 310.534179688 283.390625 296.8515625 289.337890625 276.6640625 289.337890625 c 0
 257.26171875 289.337890625 243.596679688 283.493164062 232.389648438 271.8203125 c 0
 221.194335938 260.157226562 215.239257812 245.266601562 215.239257812 224.131835938 c 2
 215.239257812 201.452148438 l 2
 215.239257812 179.380859375 221.147460938 163.779296875 231.868164062 151.892578125 c 0
 242.171875 140.469726562 255.798828125 134.357421875 276.6640625 134.357421875 c 0
 296.8515625 134.357421875 310.534179688 140.305664062 321.266601562 151.723632812 c 0
 332.01171875 163.153320312 338.08984375 178.713867188 338.08984375 201.452148438 c 2xf2
EndSplineSet
EndChar

StartChar: nine
Encoding: 57 57 27
Width: 522
GlyphClass: 2
Flags: MW
HStem: 0.166016 21G<118.509 293.499 118.509 118.509> 557.718 144.584<249.648 295.895>
VStem: 50.8105 163.485<455.656 462.273 462.273 485.896 485.896 491.568 447.159 518.758> 328.641 164.431<461.328 489.677 442.016 492.514 442.016 506.316>
LayerCount: 2
Fore
SplineSet
238.865234375 254.372070312 m 0
 183.498046875 254.372070312 136.698242188 272.483398438 102.041015625 309.28515625 c 0
 67.306640625 346.16796875 50.810546875 395.99609375 50.810546875 455.65625 c 2
 50.810546875 485.896484375 l 2
 50.810546875 551.620117188 70.837890625 605.911132812 112.350585938 644.940429688 c 0
 153.42578125 683.55859375 207.62109375 702.301757812 271.940429688 702.301757812 c 0
 338.475585938 702.301757812 393.421875 684.115234375 433.540039062 645.772460938 c 0
 473.740234375 607.3515625 493.071289062 554.073242188 493.071289062 489.676757812 c 2
 493.071289062 460.380859375 l 2
 493.071289062 423.650390625 488.202148438 378.483398438 448.46484375 301.270507812 c 2
 293.499023438 0.166015625 l 1
 118.508789062 0.166015625 l 1
 248.9609375 254.686523438 l 1
 245.637695312 254.4765625 242.271484375 254.372070312 238.865234375 254.372070312 c 0
271.94140625 397.067382812 m 0
 298.353515625 397.067382812 328.640625 408.569335938 328.640625 461.328125 c 2
 328.640625 492.513671875 l 2
 328.640625 520.118164062 319.84765625 557.717773438 271.94140625 557.717773438 c 0
 227.35546875 557.717773438 214.295898438 525.619140625 214.295898438 491.568359375 c 2
 214.295898438 462.2734375 l 2
 214.295898438 432.043945312 224.538085938 397.067382812 271.94140625 397.067382812 c 0
EndSplineSet
EndChar

StartChar: colon
Encoding: 58 58 28
Width: 234
GlyphClass: 2
Flags: MW
HStem: 0.166016 173.88<44.1963 215.241 44.1963 215.241> 319.576 173.88<44.1963 215.241 44.1963 215.241>
VStem: 44.1963 171.045<0.166016 174.046 0.166016 174.046 319.576 493.456>
LayerCount: 2
Fore
SplineSet
44.1962890625 174.045898438 m 1
 215.241210938 174.045898438 l 1
 215.241210938 0.166015625 l 1
 44.1962890625 0.166015625 l 1
 44.1962890625 174.045898438 l 1
44.1962890625 493.456054688 m 1
 215.241210938 493.456054688 l 1
 215.241210938 319.576171875 l 1
 44.1962890625 319.576171875 l 1
 44.1962890625 493.456054688 l 1
130.19140625 511.411132812 m 1024
EndSplineSet
EndChar

StartChar: semicolon
Encoding: 59 59 29
Width: 234
GlyphClass: 2
Flags: MW
HStem: 319.576 173.88<44.1963 215.241 44.1963 215.241>
VStem: 44.1963 171.045<319.576 493.456 319.576 493.456> 63.0967 150.255<-48.7236 169.321 -48.7236 169.321 -48.7236 169.321>
LayerCount: 2
Fore
SplineSet
44.1962890625 493.456054688 m 1xc0
 215.241210938 493.456054688 l 1
 215.241210938 319.576171875 l 1
 44.1962890625 319.576171875 l 1
 44.1962890625 493.456054688 l 1xc0
63.0966796875 169.321289062 m 1xa0
 213.3515625 169.321289062 l 1
 213.3515625 -48.7236328125 l 1
 63.0966796875 -175.862304688 l 1
 63.0966796875 169.321289062 l 1xa0
126.411132812 511.411132812 m 1024
EndSplineSet
EndChar

StartChar: less
Encoding: 60 60 30
Width: 535
GlyphClass: 2
Flags: W
LayerCount: 2
Fore
SplineSet
53.646484375 217.225585938 m 1
 53.646484375 341.630859375 l 1
 501.576171875 516.86328125 l 1
 501.576171875 365.435546875 l 1
 274.962890625 279.029296875 l 1
 501.576171875 193.438476562 l 1
 501.576171875 40.95703125 l 1
 53.646484375 217.225585938 l 1
EndSplineSet
EndChar

StartChar: equal
Encoding: 61 61 31
Width: 535
GlyphClass: 2
Flags: MW
HStem: 108.842 146.475<53.6465 501.576 53.6465 501.576> 306.347 146.475<53.6465 501.576 53.6465 501.576>
LayerCount: 2
Fore
SplineSet
53.646484375 452.821289062 m 1
 501.576171875 452.821289062 l 1
 501.576171875 306.346679688 l 1
 53.646484375 306.346679688 l 1
 53.646484375 452.821289062 l 1
53.646484375 255.31640625 m 1
 501.576171875 255.31640625 l 1
 501.576171875 108.841796875 l 1
 53.646484375 108.841796875 l 1
 53.646484375 255.31640625 l 1
EndSplineSet
EndChar

StartChar: greater
Encoding: 62 62 32
Width: 535
GlyphClass: 2
Flags: W
LayerCount: 2
Fore
SplineSet
53.646484375 365.435546875 m 1
 53.646484375 516.86328125 l 1
 501.576171875 341.630859375 l 1
 501.576171875 217.225585938 l 1
 53.646484375 40.95703125 l 1
 53.646484375 193.438476562 l 1
 280.259765625 279.029296875 l 1
 53.646484375 365.435546875 l 1
EndSplineSet
EndChar

StartChar: question
Encoding: 63 63 33
Width: 460
GlyphClass: 2
Flags: MW
HStem: 0.166992 158.761<152.872 316.357 152.872 316.357> 554.881 146.475<224.476 244.965>
VStem: 152.872 163.485<0.166992 158.928 0.166992 158.928> 281.392 160.649<500.501 529.593>
LayerCount: 2
Fore
SplineSet
237.919921875 701.35546875 m 0xd0
 361.12109375 701.35546875 442.041015625 621.296875 442.041015625 513.30078125 c 0
 442.041015625 464.766601562 426.30078125 425.641601562 389.83203125 376.596679688 c 2
 334.985351562 302.837890625 l 2
 317.331054688 279.670898438 313.521484375 267.72265625 313.521484375 242.0859375 c 2
 313.521484375 182.551757812 l 1
 156.651367188 182.551757812 l 1
 156.651367188 250.591796875 l 2
 156.651367188 306.37890625 166.119140625 331.471679688 199.544921875 375.184570312 c 2
 251.478515625 442.2265625 l 2
 276.950195312 475.338867188 281.391601562 491.48046875 281.391601562 509.521484375 c 0
 281.391601562 549.6640625 255.788085938 554.880859375 234.141601562 554.880859375 c 0
 214.809570312 554.880859375 205.046875 549.829101562 199.68359375 543.490234375 c 0
 188.6015625 530.393554688 188.124023438 511.330078125 187.346679688 480.225585938 c 1
 33.375 480.225585938 l 1
 33.8056640625 500.5 l 2
 35.1357421875 563.038085938 52.6494140625 613.853515625 88.8994140625 649.376953125 c 0
 125.103515625 684.858398438 175.9375 701.35546875 237.919921875 701.35546875 c 0xd0
152.872070312 158.927734375 m 1xe0
 316.357421875 158.927734375 l 1
 316.357421875 0.1669921875 l 1
 152.872070312 0.1669921875 l 1
 152.872070312 158.927734375 l 1xe0
EndSplineSet
EndChar

StartChar: at
Encoding: 64 64 34
Width: 865
GlyphClass: 2
Flags: MW
HStem: -128.354 134.191<403.468 472.13 360.608 508.938> 51.1963 126.631<650.779 657.762 647.32 676.292> 388.561 128.521<326.658 447.175> 565.279 134.187<403.468 481.211>
VStem: 50.8115 145.53<252.48 253.429 253.429 318.631 318.631 320.524 181.213 355.699> 248.315 145.531<242.086 247.756 247.756 325.245 234.682 325.246 234.682 341.415> 480.786 144.585<244.921 324.301 324.301 335.722> 684.906 145.528<256.263 257.206 257.206 322.412 322.412 323.356 225.382 336.827>
LayerCount: 2
Fore
SplineSet
441.096679688 699.465820312 m 0
 669.932617188 699.465820312 830.434570312 544.25 830.434570312 323.356445312 c 2
 830.434570312 257.206054688 l 2
 830.434570312 193.55859375 814.454101562 141.752929688 779.61328125 105.09765625 c 0
 745.647460938 69.3623046875 701.698242188 51.1962890625 650.884765625 51.1962890625 c 0
 650.673828125 51.1962890625 650.463867188 51.197265625 650.25390625 51.197265625 c 1
 704.572265625 -53.7353515625 l 1
 650.112304688 -85.66015625 576.780273438 -128.353515625 441.096679688 -128.353515625 c 0
 365.83984375 -128.353515625 298.171875 -112.5859375 238.916992188 -80.6279296875 c 0
 179.774414062 -48.73046875 133.174804688 -3.5107421875 100.197265625 54.1171875 c 0
 67.1298828125 111.90234375 50.8115234375 178.34375 50.8115234375 252.48046875 c 2
 50.8115234375 318.630859375 l 2
 50.8115234375 392.766601562 67.1298828125 459.208007812 100.197265625 516.993164062 c 0
 133.174804688 574.62109375 179.774414062 619.841796875 238.916992188 651.739257812 c 0
 298.171875 683.697265625 365.83984375 699.465820312 441.096679688 699.465820312 c 0
625.37109375 217.517578125 m 2
 625.37109375 179.765625 642.809570312 177.827148438 651.831054688 177.827148438 c 0
 663.693359375 177.827148438 669.696289062 182.940429688 674.278320312 190.958984375 c 0
 680.072265625 201.09765625 684.90625 223.112304688 684.90625 256.262695312 c 2
 684.90625 322.412109375 l 2
 684.90625 351.241210938 682.796875 433.100585938 625.37109375 495.137695312 c 1
 625.37109375 217.517578125 l 2
613.735351562 506.6875 m 1
 576.220703125 540.8984375 521.325195312 565.279296875 441.096679688 565.279296875 c 0
 362.361328125 565.279296875 303.491210938 543.067382812 260.975585938 500.266601562 c 0
 218.390625 457.395507812 196.341796875 398.615234375 196.341796875 320.524414062 c 2
 196.341796875 253.428710938 l 2
 196.341796875 108.997070312 280.119140625 5.837890625 441.096679688 5.837890625 c 0
 503.1640625 5.837890625 556.970703125 15.8125 628.51953125 52.2880859375 c 1
 612.693359375 53.88671875 566.979492188 59.7431640625 532.454101562 97.6318359375 c 1
 505.237304688 66.1259765625 462.96484375 51.1962890625 410.85546875 51.1962890625 c 0
 336.405273438 51.1962890625 248.315429688 84.4931640625 248.315429688 242.0859375 c 2
 248.315429688 325.24609375 l 2
 248.315429688 357.583984375 249.075195312 517.081054688 404.241210938 517.081054688 c 0
 432.883789062 517.081054688 459.400390625 510.755859375 482.676757812 496.407226562 c 1
 482.676757812 506.6875 l 1
 613.735351562 506.6875 l 1
438.26171875 179.715820312 m 0
 451.432617188 179.715820312 480.786132812 179.715820312 480.786132812 244.920898438 c 2
 480.786132812 324.30078125 l 2
 480.786132812 347.142578125 476.782226562 362.986328125 471.231445312 372.342773438 c 0
 464.825195312 383.139648438 456.088867188 388.560546875 438.26171875 388.560546875 c 0
 420.744140625 388.560546875 411.94140625 383.494140625 405.846679688 374.813476562 c 0
 398.641601562 364.552734375 393.846679688 348.514648438 393.846679688 325.245117188 c 2
 393.846679688 247.755859375 l 2
 393.846679688 221.608398438 398.760742188 203.864257812 405.645507812 193.5390625 c 0
 411.369140625 184.953125 420.033203125 179.715820312 438.26171875 179.715820312 c 0
EndSplineSet
EndChar

StartChar: A
Encoding: 65 65 35
Width: 608
GlyphClass: 2
Flags: MW
HStem: 0.166016 21G<3.80176 3.80176 3.80176 176.902 451.085 451.085 451.085 625.169> 126.796 142.695<262.102 365.789 262.102 411.396 216.592 365.789> 671.906 20G<249.42 378.549 378.549 378.549>
AnchorPoint: "Anchor-0" 314 672 basechar 0
LayerCount: 2
Fore
SplineSet
3.8017578125 0.166015625 m 1
 249.419921875 691.90625 l 1
 378.548828125 691.90625 l 1
 625.168945312 0.166015625 l 1
 451.084960938 0.166015625 l 1
 411.395507812 126.795898438 l 1
 216.591796875 126.795898438 l 1
 176.90234375 0.166015625 l 1
 3.8017578125 0.166015625 l 1
262.1015625 269.491210938 m 1
 365.7890625 269.491210938 l 1
 313.634765625 434.024414062 l 1
 262.1015625 269.491210938 l 1
EndSplineSet
Substitution2: "Single Substitution lookup 6 subtable" ordfeminine
Substitution2: "'aalt' Access All Alternates lookup 0 subtable" ordfeminine
EndChar

StartChar: B
Encoding: 66 66 36
Width: 601
GlyphClass: 2
Flags: MW
HStem: 0.166016 147.421<227.525 333.365 333.365 345.65> 277.997 147.42<227.525 325.806 325.806 333.365 227.525 325.806> 544.487 147.419<227.525 325.806 227.525 227.525>
VStem: 64.04 163.485<147.587 277.997 425.417 544.487> 392.9 164.43<478.549 499.054> 402.351 163.484<185.427 240.607>
LayerCount: 2
Fore
SplineSet
494.001953125 356.407226562 m 1xf8
 521.368164062 337.369140625 565.834960938 294.85546875 565.834960938 207.122070312 c 0xf4
 565.834960938 143.936523438 546.603515625 91.78515625 506.567382812 54.6083984375 c 0
 466.693359375 17.5810546875 412.025390625 0.166015625 345.650390625 0.166015625 c 2
 64.0400390625 0.166015625 l 1
 64.0400390625 691.90625 l 1
 335.255859375 691.90625 l 2
 402.072265625 691.90625 456.998046875 675.283203125 497.235351562 639.67578125 c 0
 537.7890625 603.788085938 557.330078125 552.688476562 557.330078125 490.62109375 c 0
 557.330078125 466.477539062 551.5703125 401.633789062 494.001953125 356.407226562 c 1xf8
392.900390625 483.0625 m 0xf8
 392.900390625 515.044921875 381.244140625 544.487304688 325.805664062 544.487304688 c 2
 227.525390625 544.487304688 l 1
 227.525390625 425.416992188 l 1
 325.805664062 425.416992188 l 2
 384.10546875 425.416992188 392.900390625 457.5625 392.900390625 483.0625 c 0xf8
333.365234375 147.586914062 m 2
 362.875 147.586914062 402.350585938 155.225585938 402.350585938 215.627929688 c 0xf4
 402.350585938 265.5859375 370.619140625 277.997070312 333.365234375 277.997070312 c 2
 227.525390625 277.997070312 l 1
 227.525390625 147.586914062 l 1
 333.365234375 147.586914062 l 2
EndSplineSet
EndChar

StartChar: C
Encoding: 67 67 37
Width: 603
GlyphClass: 2
Flags: MW
HStem: -7.39355 150.255<297.517 324.171 297.517 350.488> 552.991 148.365<295.684 329.355>
VStem: 55.5361 164.431<272.326 274.217 274.217 415.021 248.755 421.637 248.755 464.824> 404.241 161.595<228.856 229.802 229.802 256.262 192.869 256.262>
LayerCount: 2
Fore
SplineSet
55.5361328125 421.63671875 m 2
 55.5361328125 508.010742188 72.1552734375 701.356445312 314.465820312 701.356445312 c 0
 389.155273438 701.356445312 451.200195312 681.325195312 497.795898438 639.59765625 c 0
 544.874023438 597.438476562 567.725585938 537.896484375 567.725585938 465.106445312 c 2
 567.725585938 438.646484375 l 1
 404.240234375 438.646484375 l 1
 404.240234375 464.161132812 l 2
 404.240234375 493.713867188 396.069335938 514.430664062 381.118164062 529.626953125 c 0
 366.49609375 544.489257812 345.188476562 552.991210938 313.521484375 552.991210938 c 0
 277.845703125 552.991210938 256.413085938 542.526367188 243.086914062 524.290039062 c 0
 229.298828125 505.422851562 219.966796875 469.30078125 219.966796875 415.021484375 c 2
 219.966796875 274.216796875 l 2
 219.966796875 223.29296875 229.440429688 189.42578125 243.682617188 171.081054688 c 0
 257.587890625 153.169921875 279.622070312 142.861328125 315.411132812 142.861328125 c 0
 332.931640625 142.861328125 404.241210938 143.100585938 404.241210938 228.856445312 c 2
 404.241210938 256.26171875 l 1
 565.8359375 256.26171875 l 1
 565.8359375 229.801757812 l 2
 565.8359375 155.936523438 543.462890625 95.9130859375 496.901367188 53.9365234375 c 0
 450.803710938 12.37890625 388.400390625 -7.3935546875 312.576171875 -7.3935546875 c 0
 183.888671875 -7.3935546875 55.5361328125 48.6669921875 55.5361328125 272.326171875 c 2
 55.5361328125 421.63671875 l 2
EndSplineSet
EndChar

StartChar: D
Encoding: 68 68 38
Width: 603
GlyphClass: 2
Flags: MW
HStem: 0.166016 147.42<227.525 309.741> 544.486 147.42<227.525 312.575 227.525 227.525>
VStem: 64.041 163.484<147.586 544.486 147.586 691.906 147.586 691.906> 404.24 163.485<280.831 406.517 406.517 413.131 232.546 433.302>
LayerCount: 2
Fore
SplineSet
64.041015625 691.90625 m 1
 313.520507812 691.90625 l 2
 389.650390625 691.90625 452.485351562 670.448242188 498.793945312 625.87890625 c 0
 546.427734375 580.036132812 567.725585938 507.7265625 567.725585938 413.130859375 c 2
 567.725585938 279.88671875 l 2
 567.725585938 185.205078125 545.869140625 112.662109375 497.272460938 66.5654296875 c 0
 450.05859375 21.78125 386.505859375 0.166015625 309.741210938 0.166015625 c 2
 64.041015625 0.166015625 l 1
 64.041015625 691.90625 l 1
312.575195312 147.5859375 m 2
 357.8046875 147.5859375 404.240234375 164.87890625 404.240234375 280.831054688 c 2
 404.240234375 406.516601562 l 2
 404.240234375 460.086914062 394.831054688 495.994140625 380.673828125 515.27734375 c 0
 366.756835938 534.233398438 345.950195312 544.486328125 312.575195312 544.486328125 c 2
 227.525390625 544.486328125 l 1
 227.525390625 147.5859375 l 1
 312.575195312 147.5859375 l 2
EndSplineSet
EndChar

StartChar: E
Encoding: 69 69 39
Width: 537
GlyphClass: 2
Flags: MW
HStem: 0.166016 147.42<227.526 517.642 227.526 517.642> 275.161 147.42<227.526 475.116 227.526 475.116> 544.486 147.42<227.526 517.642 227.526 227.526>
VStem: 64.041 163.485<147.586 147.586 147.586 275.161 422.581 544.486>
AnchorPoint: "Anchor-0" 281 672 basechar 0
LayerCount: 2
Fore
SplineSet
227.526367188 147.5859375 m 1
 517.641601562 147.5859375 l 1
 517.641601562 0.166015625 l 1
 64.041015625 0.166015625 l 1
 64.041015625 691.90625 l 1
 517.641601562 691.90625 l 1
 517.641601562 544.486328125 l 1
 227.526367188 544.486328125 l 1
 227.526367188 422.581054688 l 1
 475.116210938 422.581054688 l 1
 475.116210938 275.161132812 l 1
 227.526367188 275.161132812 l 1
 227.526367188 147.5859375 l 1
EndSplineSet
EndChar

StartChar: F
Encoding: 70 70 40
Width: 533
GlyphClass: 2
Flags: MW
HStem: 0.166016 21G<64.041 227.526 64.041 64.041> 269.491 147.42<227.526 476.062 227.526 476.062> 544.486 147.42<227.526 517.642 227.526 227.526>
VStem: 64.041 163.485<0.166016 269.491 0.166016 416.911 416.911 544.486>
LayerCount: 2
Fore
SplineSet
227.526367188 269.491210938 m 1
 227.526367188 0.166015625 l 1
 64.041015625 0.166015625 l 1
 64.041015625 691.90625 l 1
 517.641601562 691.90625 l 1
 517.641601562 544.486328125 l 1
 227.526367188 544.486328125 l 1
 227.526367188 416.911132812 l 1
 476.061523438 416.911132812 l 1
 476.061523438 269.491210938 l 1
 227.526367188 269.491210938 l 1
EndSplineSet
EndChar

StartChar: G
Encoding: 71 71 41
Width: 603
GlyphClass: 2
Flags: MW
HStem: -7.39355 150.255<299.969 335.575 299.969 414.751> 252.481 141.75<291.786 407.076 291.786 567.727> 552.991 148.365<295.684 329.355>
VStem: 55.5361 164.431<272.326 274.217 274.217 415.021 248.444 421.637 248.444 464.824> 407.076 160.65<241.142 252.481 252.481 252.481>
LayerCount: 2
Fore
SplineSet
55.5361328125 421.63671875 m 2
 55.5361328125 508.010742188 72.1552734375 701.356445312 314.465820312 701.356445312 c 0
 389.12109375 701.356445312 451.130859375 681.51171875 497.733398438 640.125 c 0
 544.689453125 598.42578125 567.725585938 540.314453125 567.725585938 469.831054688 c 2
 567.725585938 443.37109375 l 1
 404.240234375 443.37109375 l 1
 404.240234375 469.831054688 l 2
 404.240234375 494.965820312 396.56640625 513.924804688 381.118164062 529.626953125 c 0
 366.49609375 544.489257812 345.188476562 552.991210938 313.521484375 552.991210938 c 0
 277.845703125 552.991210938 256.413085938 542.526367188 243.086914062 524.290039062 c 0
 229.298828125 505.422851562 219.966796875 469.30078125 219.966796875 415.021484375 c 2
 219.966796875 274.216796875 l 2
 219.966796875 222.670898438 229.77734375 188.875976562 244.346679688 170.961914062 c 0
 258.815429688 153.171875 281.69140625 142.861328125 318.24609375 142.861328125 c 0
 352.903320312 142.861328125 373.912109375 151.749023438 386.084960938 165.471679688 c 0
 398.798828125 179.803710938 407.076171875 204.08984375 407.076171875 241.141601562 c 2
 407.076171875 252.481445312 l 1
 291.786132812 252.481445312 l 1
 291.786132812 394.231445312 l 1
 567.7265625 394.231445312 l 1
 567.7265625 262.875976562 l 2
 567.7265625 128.122070312 516.926757812 -7.3935546875 312.576171875 -7.3935546875 c 0
 183.888671875 -7.3935546875 55.5361328125 48.6669921875 55.5361328125 272.326171875 c 2
 55.5361328125 421.63671875 l 2
EndSplineSet
EndChar

StartChar: H
Encoding: 72 72 42
Width: 611
GlyphClass: 2
Flags: MW
HStem: 0.166016 21G<64.041 227.526 64.041 64.041 404.241 567.727 404.241 404.241> 276.106 147.42<227.526 404.241 227.526 404.241> 671.906 20G<64.041 227.526 227.526 227.526 404.241 567.727 567.727 567.727>
VStem: 64.041 163.485<0.166016 276.106 0.166016 423.526 423.526 691.906> 404.241 163.485<0.166016 276.106 276.106 276.106 423.526 691.906 0.166016 691.906>
LayerCount: 2
Fore
SplineSet
567.7265625 691.90625 m 1
 567.7265625 0.166015625 l 1
 404.241210938 0.166015625 l 1
 404.241210938 276.106445312 l 1
 227.526367188 276.106445312 l 1
 227.526367188 0.166015625 l 1
 64.041015625 0.166015625 l 1
 64.041015625 691.90625 l 1
 227.526367188 691.90625 l 1
 227.526367188 423.526367188 l 1
 404.241210938 423.526367188 l 1
 404.241210938 691.90625 l 1
 567.7265625 691.90625 l 1
EndSplineSet
EndChar

StartChar: I
Encoding: 73 73 43
Width: 278
GlyphClass: 2
Flags: MW
HStem: 0.166016 21G<69.7109 233.196 69.7109 69.7109> 671.906 20G<69.7109 233.196 233.196 233.196>
VStem: 69.7109 163.485<0.166016 691.906 0.166016 691.906>
AnchorPoint: "Anchor-0" 150 672 basechar 0
LayerCount: 2
Fore
SplineSet
69.7109375 691.90625 m 1
 233.196289062 691.90625 l 1
 233.196289062 0.166015625 l 1
 69.7109375 0.166015625 l 1
 69.7109375 691.90625 l 1
EndSplineSet
EndChar

StartChar: J
Encoding: 74 74 44
Width: 345
GlyphClass: 2
Flags: MW
HStem: 0.166016 148.365<30.9668 101.842 101.842 110.319 30.9668 130.191 30.9668 101.842> 671.906 20G<134.916 299.347 299.347 299.347>
VStem: 134.916 164.431<190.111 691.906>
LayerCount: 2
Fore
SplineSet
299.346679688 169.321289062 m 2
 299.346679688 59.2705078125 232.701171875 0.166015625 130.19140625 0.166015625 c 2
 30.966796875 0.166015625 l 1
 30.966796875 148.53125 l 1
 101.841796875 148.53125 l 2
 118.796875 148.53125 125.701171875 152.76953125 127.913085938 155.334960938 c 0
 130.520507812 158.360351562 134.916015625 169.23046875 134.916015625 190.111328125 c 2
 134.916015625 691.90625 l 1
 299.346679688 691.90625 l 1
 299.346679688 169.321289062 l 2
EndSplineSet
EndChar

StartChar: K
Encoding: 75 75 45
Width: 612
GlyphClass: 2
Flags: MW
HStem: 0.166016 21G<64.041 227.526 64.041 64.041 443.608 633.324 443.608 443.608> 671.906 20G<64.041 227.526 227.526 227.526 423.555 623.118 623.118 623.118>
VStem: 64.041 163.485<0.166016 195.452 427.801 691.906>
LayerCount: 2
Fore
SplineSet
443.608398438 0.166015625 m 1
 290.73046875 274.630859375 l 1
 227.526367188 195.452148438 l 1
 227.526367188 0.166015625 l 1
 64.041015625 0.166015625 l 1
 64.041015625 691.90625 l 1
 227.526367188 691.90625 l 1
 227.526367188 427.80078125 l 1
 423.5546875 691.90625 l 1
 623.118164062 691.90625 l 1
 397.016601562 408.512695312 l 1
 633.32421875 0.166015625 l 1
 443.608398438 0.166015625 l 1
EndSplineSet
EndChar

StartChar: L
Encoding: 76 76 46
Width: 522
GlyphClass: 2
Flags: MW
HStem: 0.166016 147.42<227.526 512.916 227.526 512.916> 671.906 20G<64.041 227.526 227.526 227.526>
VStem: 64.041 163.485<147.586 691.906 147.586 691.906 147.586 691.906>
LayerCount: 2
Fore
SplineSet
64.041015625 691.90625 m 1
 227.526367188 691.90625 l 1
 227.526367188 147.5859375 l 1
 512.916015625 147.5859375 l 1
 512.916015625 0.166015625 l 1
 64.041015625 0.166015625 l 1
 64.041015625 691.90625 l 1
EndSplineSet
EndChar

StartChar: M
Encoding: 77 77 47
Width: 729
GlyphClass: 2
Flags: MW
HStem: 0.166016 21G<64.041 227.526 64.041 64.041 520.477 683.961 520.477 520.477> 671.906 20G<64.041 220.347 220.347 220.347 527.596 683.961 683.961 683.961>
VStem: 64.041 163.485<0.166016 321.599 0.166016 691.906> 520.477 163.484<0.166016 318.419 318.419 318.419>
LayerCount: 2
Fore
SplineSet
683.9609375 691.90625 m 1
 683.9609375 0.166015625 l 1
 520.4765625 0.166015625 l 1
 520.4765625 318.418945312 l 1
 429.076171875 125.8515625 l 1
 320.83984375 125.8515625 l 1
 227.526367188 321.598632812 l 1
 227.526367188 0.166015625 l 1
 64.041015625 0.166015625 l 1
 64.041015625 691.90625 l 1
 220.346679688 691.90625 l 1
 374.84375 359.34375 l 1
 527.595703125 691.90625 l 1
 683.9609375 691.90625 l 1
EndSplineSet
EndChar

StartChar: N
Encoding: 78 78 48
Width: 636
GlyphClass: 2
Flags: MW
HStem: 0.166016 21G<64.041 227.526 64.041 64.041 436.372 591.352 436.372 436.372> 671.906 20G<64.041 219.034 219.034 219.034 427.866 591.352 591.352 591.352>
VStem: 64.041 163.485<0.166016 354.546 0.166016 691.906> 427.866 163.485<336.728 691.906 0.166016 691.906>
AnchorPoint: "Anchor-0" 327 672 basechar 0
LayerCount: 2
Fore
SplineSet
591.3515625 691.90625 m 1
 591.3515625 0.166015625 l 1
 436.372070312 0.166015625 l 1
 227.526367188 354.545898438 l 1
 227.526367188 0.166015625 l 1
 64.041015625 0.166015625 l 1
 64.041015625 691.90625 l 1
 219.034179688 691.90625 l 1
 427.866210938 336.727539062 l 1
 427.866210938 691.90625 l 1
 591.3515625 691.90625 l 1
EndSplineSet
EndChar

StartChar: O
Encoding: 79 79 49
Width: 603
GlyphClass: 2
Flags: MW
HStem: -7.39355 150.255<294.621 329.339 294.621 347.181> 552.991 148.365<294.693 329.263>
VStem: 55.5361 164.43<272.326 274.217 274.217 415.021 248.365 421.637 248.365 464.264> 404.24 163.486<274.217 415.021 415.021 421.637 224.973 441.807>
AnchorPoint: "Anchor-0" 311 672 basechar 0
LayerCount: 2
Fore
SplineSet
55.5361328125 421.63671875 m 2
 55.5361328125 506.890625 71.3994140625 701.356445312 312.575195312 701.356445312 c 0
 388.744140625 701.356445312 451.732421875 679.708007812 498.325195312 634.854492188 c 0
 546.236328125 588.731445312 567.7265625 516.267578125 567.7265625 421.63671875 c 2
 567.7265625 272.326171875 l 2
 567.7265625 177.619140625 545.6875 105.037109375 496.747070312 58.955078125 c 0
 449.240234375 14.22265625 385.565429688 -7.3935546875 308.795898438 -7.3935546875 c 0
 182.126953125 -7.3935546875 55.5361328125 48.5791015625 55.5361328125 272.326171875 c 2
 55.5361328125 421.63671875 l 2
404.240234375 274.216796875 m 2
 404.240234375 415.021484375 l 2
 404.240234375 468.591796875 394.831054688 504.499023438 380.673828125 523.782226562 c 0
 366.756835938 542.73828125 345.950195312 552.991210938 312.575195312 552.991210938 c 0
 276.811523438 552.991210938 255.590820312 542.606445312 242.639648438 524.798828125 c 0
 229.221679688 506.348632812 219.965820312 470.0078125 219.965820312 415.021484375 c 2
 219.965820312 274.216796875 l 2
 219.965820312 222.512695312 229.09765625 188.248046875 242.491210938 170.310546875 c 0
 255.348632812 153.090820312 276.666015625 142.861328125 312.575195312 142.861328125 c 0
 346.103515625 142.861328125 366.990234375 152.961914062 380.819335938 171.322265625 c 0
 394.966796875 190.104492188 404.240234375 223.946289062 404.240234375 274.216796875 c 2
EndSplineSet
Substitution2: "Single Substitution lookup 6 subtable" ordmasculine
Substitution2: "'aalt' Access All Alternates lookup 0 subtable" ordmasculine
EndChar

StartChar: P
Encoding: 80 80 50
Width: 571
GlyphClass: 2
Flags: MW
HStem: 0.166016 21G<64.041 227.526 64.041 64.041> 247.756 148.365<227.526 322.026 322.026 327.696 227.526 322.026> 544.486 147.42<227.526 322.026 227.526 227.526>
VStem: 64.041 163.485<0.166016 247.756 0.166016 396.121 396.121 544.486> 397.626 163.485<437.649 483.292>
LayerCount: 2
Fore
SplineSet
561.111328125 466.99609375 m 0
 561.111328125 402.224609375 540.208984375 347.8984375 497.759765625 307.5546875 c 0
 455.19921875 267.104492188 397.454101562 247.755859375 327.696289062 247.755859375 c 2
 227.526367188 247.755859375 l 1
 227.526367188 0.166015625 l 1
 64.041015625 0.166015625 l 1
 64.041015625 691.90625 l 1
 327.696289062 691.90625 l 2
 397.491210938 691.90625 455.2734375 672.368164062 497.822265625 631.576171875 c 0
 540.439453125 590.71875 561.111328125 534.641601562 561.111328125 466.99609375 c 0
322.026367188 396.12109375 m 2
 356.317382812 396.12109375 397.625976562 408.301757812 397.625976562 466.99609375 c 0
 397.625976562 499.588867188 387.950195312 544.486328125 322.026367188 544.486328125 c 2
 227.526367188 544.486328125 l 1
 227.526367188 396.12109375 l 1
 322.026367188 396.12109375 l 2
EndSplineSet
EndChar

StartChar: Q
Encoding: 81 81 51
Width: 603
GlyphClass: 2
Flags: MW
HStem: -7.39355 150.255<294.621 315.203> 552.991 148.365<294.693 329.263>
VStem: 55.5352 164.431<272.326 274.217 274.217 415.021 248.365 421.637 248.365 464.261> 404.24 163.486<274.217 415.021 415.021 421.637 222.328 441.807>
AnchorPoint: "Anchor-0" 311 672 basechar 0
LayerCount: 2
Fore
SplineSet
55.53515625 421.63671875 m 2
 55.53515625 506.884765625 71.396484375 701.356445312 312.575195312 701.356445312 c 0
 388.744140625 701.356445312 451.732421875 679.708007812 498.325195312 634.854492188 c 0
 546.236328125 588.731445312 567.7265625 516.267578125 567.7265625 421.63671875 c 2
 567.7265625 272.326171875 l 2
 567.7265625 172.329101562 541.24609375 95.5634765625 484.572265625 47.7236328125 c 1
 554.918945312 -81.4072265625 l 1
 425.625 -152.51953125 l 1
 345.887695312 -5.841796875 l 1
 333.973632812 -6.880859375 321.611328125 -7.3935546875 308.794921875 -7.3935546875 c 0
 182.125976562 -7.3935546875 55.53515625 48.5791015625 55.53515625 272.326171875 c 2
 55.53515625 421.63671875 l 2
312.575195312 142.861328125 m 0
 346.103515625 142.861328125 366.990234375 152.961914062 380.819335938 171.322265625 c 0
 394.966796875 190.104492188 404.240234375 223.946289062 404.240234375 274.216796875 c 2
 404.240234375 415.021484375 l 2
 404.240234375 468.591796875 394.831054688 504.499023438 380.673828125 523.782226562 c 0
 366.756835938 542.73828125 345.950195312 552.991210938 312.575195312 552.991210938 c 0
 276.811523438 552.991210938 255.590820312 542.606445312 242.639648438 524.798828125 c 0
 229.221679688 506.348632812 219.965820312 470.0078125 219.965820312 415.021484375 c 2
 219.965820312 274.216796875 l 2
 219.965820312 222.512695312 229.09765625 188.248046875 242.491210938 170.310546875 c 0
 255.348632812 153.090820312 276.666015625 142.861328125 312.575195312 142.861328125 c 0
EndSplineSet
EndChar

StartChar: R
Encoding: 82 82 52
Width: 603
GlyphClass: 2
Flags: MW
HStem: 0.166016 21G<411.459 598.894 411.459 411.459> 544.485 147.42<227.526 324.861 227.526 227.526>
VStem: 64.041 163.485<0.165039 264.766 0.165039 407.46 407.46 544.485> 396.682 163.484<452.113 488.521>
LayerCount: 2
Fore
SplineSet
560.166015625 477.390625 m 0
 560.166015625 422.784179688 543.848632812 338.169921875 452.194335938 293.564453125 c 1
 598.893554688 0.166015625 l 1
 411.458984375 0.166015625 l 1
 287.6640625 264.766601562 l 1
 267.618164062 264.766601562 247.572265625 264.765625 227.526367188 264.765625 c 1
 227.526367188 0.1650390625 l 1
 64.041015625 0.1650390625 l 1
 64.041015625 691.905273438 l 1
 331.4765625 691.905273438 l 2
 398.749023438 691.905273438 454.943359375 673.16796875 497.08984375 634.182617188 c 0
 539.400390625 595.044921875 560.166015625 541.532226562 560.166015625 477.390625 c 0
324.861328125 407.459960938 m 2
 368.328125 407.459960938 396.681640625 426.8359375 396.681640625 477.390625 c 0
 396.681640625 499.65234375 390.251953125 514.818359375 378.206054688 526.401367188 c 0
 366.245117188 537.90234375 349.540039062 544.485351562 324.861328125 544.485351562 c 2
 227.526367188 544.485351562 l 1
 227.526367188 407.459960938 l 1
 324.861328125 407.459960938 l 2
EndSplineSet
EndChar

StartChar: S
Encoding: 83 83 53
Width: 553
GlyphClass: 2
Flags: MW
HStem: -5.50391 145.533<269.078 317.624> 557.717 143.641<259.05 312.895>
VStem: 46.085 159.705<483.549 516.737 483.549 517.464> 371.164 161.597<192.586 217.371>
AnchorPoint: "Anchor-0" 285 672 basechar 0
LayerCount: 2
Fore
SplineSet
348.234375 419.432617188 m 2
 403.458007812 409.504882812 532.760742188 376.369140625 532.760742188 216.571289062 c 0
 532.760742188 146.743164062 509.841796875 90.0009765625 462.708007812 51.017578125 c 0
 416.349609375 12.67578125 354.801757812 -5.50390625 280.446289062 -5.50390625 c 0
 207.293945312 -5.50390625 147.43359375 12.8818359375 103.733398438 52 c 0
 59.9892578125 91.158203125 36.6005859375 147.3984375 31.9521484375 217.126953125 c 2
 30.5400390625 238.309570312 l 1
 186.491210938 238.309570312 l 1
 190.50390625 205.638671875 194.258789062 175.0625 215.776367188 157.920898438 c 0
 229.2734375 147.168945312 252.041015625 140.029296875 286.114257812 140.029296875 c 0
 364.9140625 140.029296875 371.1640625 178.994140625 371.1640625 206.178710938 c 0
 371.1640625 228.5625 365.35546875 242.251953125 356.352539062 251.049804688 c 0
 346.83984375 260.346679688 328.865234375 268.864257812 300.740234375 273.55078125 c 2
 239.379882812 283.934570312 l 2
 185.266601562 292.905273438 46.0849609375 323.810546875 46.0849609375 484.952148438 c 0
 46.0849609375 549.975585938 68.1982421875 604.127929688 112.8203125 643.479492188 c 0
 157.139648438 682.564453125 215.489257812 701.357421875 285.169921875 701.357421875 c 0
 352.90625 701.357421875 409.188476562 683.231445312 451.116210938 645.1796875 c 0
 492.986328125 607.1796875 516.015625 553.860351562 521.353515625 488.475585938 c 2
 523.106445312 466.997070312 l 1
 363.813476562 466.997070312 l 1
 362.6953125 485.637695312 l 2
 359.986328125 530.7890625 342.509765625 557.716796875 283.280273438 557.716796875 c 0
 234.819335938 557.716796875 205.790039062 539.072265625 205.790039062 494.401367188 c 0
 205.790039062 472.697265625 210.962890625 444.259765625 279.217773438 431.723632812 c 0
 279.322265625 431.705078125 348.234375 419.432617188 348.234375 419.432617188 c 2
EndSplineSet
EndChar

StartChar: T
Encoding: 84 84 54
Width: 503
GlyphClass: 2
Flags: MW
HStem: 0.166016 21G<180.276 344.706 180.276 180.276> 544.486 147.42<13.9561 180.276 13.9561 511.026 344.706 344.706 344.706 511.026>
VStem: 180.276 164.43<0.166016 544.486 0.166016 544.486>
LayerCount: 2
Fore
SplineSet
180.276367188 544.486328125 m 1
 13.9560546875 544.486328125 l 1
 13.9560546875 691.90625 l 1
 511.026367188 691.90625 l 1
 511.026367188 544.486328125 l 1
 344.706054688 544.486328125 l 1
 344.706054688 0.166015625 l 1
 180.276367188 0.166015625 l 1
 180.276367188 544.486328125 l 1
EndSplineSet
EndChar

StartChar: U
Encoding: 85 85 55
Width: 617
GlyphClass: 2
Flags: MW
HStem: -5.50391 147.421<302.312 332.289 302.312 391.986> 671.907 20G<64.042 227.527 227.527 227.527 408.022 572.452 572.452 572.452>
VStem: 64.042 163.485<235.473 239.252 239.252 691.907> 408.022 164.43<239.252 691.907>
AnchorPoint: "Anchor-0" 318 672 basechar 0
LayerCount: 2
Fore
SplineSet
317.302734375 -5.50390625 m 0
 171.9921875 -5.50390625 64.0419921875 93.2705078125 64.0419921875 235.47265625 c 2
 64.0419921875 691.907226562 l 1
 227.52734375 691.907226562 l 1
 227.52734375 239.251953125 l 2
 227.52734375 205.484375 236.227539062 182.317382812 251.336914062 166.4765625 c 0
 266.55859375 150.518554688 287.3203125 141.916992188 317.302734375 141.916992188 c 0
 347.275390625 141.916992188 368.274414062 150.521484375 383.850585938 166.591796875 c 0
 399.223632812 182.453125 408.022460938 205.549804688 408.022460938 239.251953125 c 2
 408.022460938 691.907226562 l 1
 572.452148438 691.907226562 l 1
 572.452148438 235.47265625 l 2
 572.452148438 96.5419921875 466.668945312 -5.50390625 317.302734375 -5.50390625 c 0
EndSplineSet
EndChar

StartChar: V
Encoding: 86 86 56
Width: 559
GlyphClass: 2
Flags: MW
HStem: 0.166016 21G<225.306 353.522 225.306 225.306> 671.906 20G<4.75098 176.358 176.358 176.358 403.435 575.08 575.08 575.08>
LayerCount: 2
Fore
SplineSet
4.7509765625 691.90625 m 1
 176.358398438 691.90625 l 1
 289.896484375 293.6875 l 1
 403.434570312 691.90625 l 1
 575.080078125 691.90625 l 1
 353.522460938 0.166015625 l 1
 225.305664062 0.166015625 l 1
 4.7509765625 691.90625 l 1
EndSplineSet
EndChar

StartChar: W
Encoding: 87 87 57
Width: 826
GlyphClass: 2
Flags: MW
HStem: 0.166016 21G<177.009 320.596 177.009 177.009 526.661 671.274 526.661 526.661> 671.906 20G<6.58008 171.765 171.765 171.765 333.276 519.46 519.46 519.46 679.994 836.69 836.69 836.69>
LayerCount: 2
Fore
SplineSet
526.661132812 0.166015625 m 1
 423.217773438 419.686523438 l 1
 320.595703125 0.166015625 l 1
 177.008789062 0.166015625 l 1
 6.580078125 691.90625 l 1
 171.764648438 691.90625 l 1
 253.702148438 308.216796875 l 1
 333.276367188 691.90625 l 1
 519.459960938 691.90625 l 1
 602.875 308.670898438 l 1
 679.994140625 691.90625 l 1
 836.690429688 691.90625 l 1
 671.274414062 0.166015625 l 1
 526.661132812 0.166015625 l 1
EndSplineSet
EndChar

StartChar: X
Encoding: 88 88 58
Width: 596
GlyphClass: 2
Flags: MW
HStem: 0.166016 21G<-3.10547 -3.10547 -3.10547 184.421 425.531 425.531 425.531 619.753> 671.906 20G<11.9453 205.297 205.297 205.297 410.313 597.996 597.996 597.996>
LayerCount: 2
Fore
SplineSet
-3.10546875 0.166015625 m 1
 211.943359375 359.247070312 l 1
 11.9453125 691.90625 l 1
 205.296875 691.90625 l 1
 308.65234375 502.138671875 l 1
 410.313476562 691.90625 l 1
 597.99609375 691.90625 l 1
 401.854492188 363.998046875 l 1
 619.752929688 0.166015625 l 1
 425.53125 0.166015625 l 1
 305.836914062 219.749023438 l 1
 184.420898438 0.166015625 l 1
 -3.10546875 0.166015625 l 1
EndSplineSet
EndChar

StartChar: Y
Encoding: 89 89 59
Width: 547
GlyphClass: 2
Flags: MW
HStem: 0.166016 21G<202.012 365.496 202.012 202.012> 671.906 20G<-0.0244141 180.007 180.007 180.007 386.556 567.567 567.567 567.567>
VStem: 202.012 163.484<0.166016 282.809 282.809 282.809>
AnchorPoint: "Anchor-0" 283 672 basechar 0
LayerCount: 2
Fore
SplineSet
386.555664062 691.90625 m 1
 567.567382812 691.90625 l 1
 365.49609375 283.744140625 l 1
 365.49609375 0.166015625 l 1
 202.01171875 0.166015625 l 1
 202.01171875 282.80859375 l 1
 -0.0244140625 691.90625 l 1
 180.006835938 691.90625 l 1
 283.28125 456.810546875 l 1
 386.555664062 691.90625 l 1
EndSplineSet
EndChar

StartChar: Z
Encoding: 90 90 60
Width: 512
GlyphClass: 2
Flags: MW
HStem: 0.166016 148.365<227.941 499.687 227.941 499.687> 544.486 147.42<42.3066 300.755 42.3066 491.182>
AnchorPoint: "Anchor-0" 266 672 basechar 0
LayerCount: 2
Fore
SplineSet
499.686523438 148.53125 m 1
 499.686523438 0.166015625 l 1
 36.63671875 0.166015625 l 1
 36.63671875 134.5234375 l 1
 300.754882812 544.486328125 l 1
 42.306640625 544.486328125 l 1
 42.306640625 691.90625 l 1
 491.181640625 691.90625 l 1
 491.181640625 558.510742188 l 1
 227.94140625 148.53125 l 1
 499.686523438 148.53125 l 1
EndSplineSet
EndChar

StartChar: bracketleft
Encoding: 91 91 61
Width: 330
GlyphClass: 2
Flags: MW
HStem: -79.2139 148.365<220.911 303.126 220.911 303.126> 591.736 148.365<220.911 303.126 220.911 220.911>
VStem: 64.041 156.87<69.1514 591.736 69.1514 740.102 69.1514 740.102> 64.041 239.085<-79.2139 69.1514 591.736 740.102>
LayerCount: 2
Fore
SplineSet
64.041015625 740.1015625 m 1xd0
 303.125976562 740.1015625 l 1
 303.125976562 591.736328125 l 1xd0
 220.911132812 591.736328125 l 1
 220.911132812 69.1513671875 l 1xe0
 303.125976562 69.1513671875 l 1
 303.125976562 -79.2138671875 l 1
 64.041015625 -79.2138671875 l 1
 64.041015625 740.1015625 l 1xd0
EndSplineSet
EndChar

StartChar: backslash
Encoding: 92 92 62
Width: 416
GlyphClass: 2
Flags: MW
HStem: 676.631 20G<43.9619 182.751 182.751 182.751>
LayerCount: 2
Fore
SplineSet
182.750976562 696.630859375 m 1
 395.025390625 -9.283203125 l 1
 256.237304688 -9.283203125 l 1
 43.9619140625 696.630859375 l 1
 182.750976562 696.630859375 l 1
EndSplineSet
EndChar

StartChar: bracketright
Encoding: 93 93 63
Width: 331
GlyphClass: 2
Flags: MW
HStem: -79.2139 148.365<50.8115 133.972 50.8115 290.842 50.8115 133.972> 588.901 147.42<50.8115 133.972 50.8115 290.842>
VStem: 50.8115 240.03<-79.2139 69.1514 69.1514 69.1514 588.901 736.321 -79.2139 736.321> 133.972 156.87<69.1514 588.901 588.901 588.901>
LayerCount: 2
Fore
SplineSet
133.971679688 588.901367188 m 1xd0
 50.8115234375 588.901367188 l 1
 50.8115234375 736.321289062 l 1
 290.841796875 736.321289062 l 1
 290.841796875 -79.2138671875 l 1
 50.8115234375 -79.2138671875 l 1
 50.8115234375 69.1513671875 l 1xe0
 133.971679688 69.1513671875 l 1
 133.971679688 588.901367188 l 1xd0
EndSplineSet
EndChar

StartChar: asciicircum
Encoding: 94 94 64
Width: 535
GlyphClass: 2
Flags: MW
HStem: 676.631 20G<215.044 340.179 340.179 340.179>
LayerCount: 2
Fore
SplineSet
215.043945312 696.630859375 m 1
 340.178710938 696.630859375 l 1
 516.7421875 256.26171875 l 1
 376.51953125 256.26171875 l 1
 277.611328125 508.934570312 l 1
 178.703125 256.26171875 l 1
 38.48046875 256.26171875 l 1
 215.043945312 696.630859375 l 1
EndSplineSet
EndChar

StartChar: underscore
Encoding: 95 95 65
Width: 507
GlyphClass: 2
Flags: MW
HStem: -114.179 116.235<8.28613 520.477 8.28613 520.477>
LayerCount: 2
Fore
SplineSet
8.2861328125 2.056640625 m 1
 520.4765625 2.056640625 l 1
 520.4765625 -114.178710938 l 1
 8.2861328125 -114.178710938 l 1
 8.2861328125 2.056640625 l 1
EndSplineSet
EndChar

StartChar: grave
Encoding: 96 96 66
Width: 507
GlyphClass: 2
Flags: MW
HStem: 555.826 165.375<270.556 287.057 98.9629 421.346 270.556 270.556>
VStem: 98.9629 322.383<555.826 721.201>
LayerCount: 2
Fore
SplineSet
98.962890625 721.201171875 m 1
 287.056640625 721.201171875 l 1
 421.345703125 555.826171875 l 1
 270.555664062 555.826171875 l 1
 98.962890625 721.201171875 l 1
EndSplineSet
EndChar

StartChar: a
Encoding: 97 97 67
Width: 508
GlyphClass: 2
Flags: MW
HStem: -5.50488 134.19<223.108 245.072> 209.955 120.017<230.36 249.259 249.259 314.464> 407.461 129.466<246.48 275.117>
VStem: 42.3057 153.088<161.079 177.602 161.079 212.479> 314.464 155.925<194.835 209.955 209.955 209.955>
AnchorPoint: "Anchor-0" 256 511 basechar 0
LayerCount: 2
Fore
SplineSet
314.465820312 348.87109375 m 2
 314.465820312 392.705078125 294.359375 407.4609375 255.875 407.4609375 c 0
 237.084960938 407.4609375 224.747070312 402.879882812 216.301757812 395.670898438 c 0
 207.891601562 388.491210938 203.900390625 380.155273438 203.900390625 366.826171875 c 2
 203.900390625 344.146484375 l 1
 55.53515625 344.146484375 l 1
 55.53515625 367.771484375 l 2
 55.53515625 418.743164062 74.46484375 461.634765625 111.974609375 492.291015625 c 0
 149.185546875 522.703125 198.239257812 536.926757812 256.821289062 536.926757812 c 0
 322.153320312 536.926757812 375.3125 521.598632812 413.540039062 488.059570312 c 0
 452.216796875 454.125976562 470.388671875 404.326171875 470.388671875 343.200195312 c 2
 470.388671875 0.1650390625 l 1
 317.298828125 0.1650390625 l 1
 317.298828125 19.9365234375 l 1
 296.016601562 5.88671875 269.234375 -5.5048828125 220.909179688 -5.5048828125 c 0
 167.015625 -5.5048828125 122.193359375 9.1884765625 89.8642578125 40.7841796875 c 0
 57.626953125 72.2900390625 42.3056640625 115.708007812 42.3056640625 167.431640625 c 0
 42.3056640625 257.526367188 102.768554688 329.971679688 230.360351562 329.971679688 c 2
 314.465820312 329.971679688 l 1
 314.465820312 348.87109375 l 2
195.393554688 170.265625 m 0
 195.393554688 151.892578125 198.848632812 128.685546875 247.368164062 128.685546875 c 0
 275.594726562 128.685546875 291.604492188 135.395507812 299.643554688 143.807617188 c 0
 308.262695312 152.828125 314.463867188 168.703125 314.463867188 194.834960938 c 2
 314.463867188 209.955078125 l 1
 249.258789062 209.955078125 l 2
 196.5859375 209.955078125 195.393554688 184.9375 195.393554688 170.265625 c 0
EndSplineSet
Substitution2: "Single Substitution lookup 6 subtable" ordfeminine
Substitution2: "'aalt' Access All Alternates lookup 0 subtable" ordfeminine
EndChar

StartChar: b
Encoding: 98 98 68
Width: 521
GlyphClass: 2
Flags: MW
HStem: -5.50391 143.641<254.678 335.593> 393.286 143.641<288.963 297.183> 671.906 20G<59.3154 216.186 216.186 216.186>
VStem: 59.3154 154.035<0.166016 20.0107 20.0107 20.9717 0.166016 691.906> 335.256 156.87<221.296 310.126 310.126 314.852 182.114 338.004>
LayerCount: 2
Fore
SplineSet
305.9609375 536.926757812 m 0
 359.81640625 536.926757812 405.817382812 518.02734375 440.548828125 480.461914062 c 0
 476.205078125 441.895507812 492.125976562 385.645507812 492.125976562 314.8515625 c 2
 492.125976562 217.516601562 l 2
 492.125976562 146.7109375 476.193359375 90.3515625 440.612304688 51.5029296875 c 0
 406.12109375 13.84375 361.444335938 -5.50390625 309.741210938 -5.50390625 c 0
 273.005859375 -5.50390625 240.422851562 3.2890625 213.350585938 20.9716796875 c 1
 213.350585938 20.0107421875 l 1
 213.350585938 0.166015625 l 1
 59.3154296875 0.166015625 l 1
 59.3154296875 691.90625 l 1
 216.185546875 691.90625 l 1
 216.185546875 509.116210938 l 1
 241.6484375 527.462890625 271.96484375 536.926757812 305.9609375 536.926757812 c 0
279.5 138.13671875 m 0
 296.3046875 138.13671875 335.255859375 138.591796875 335.255859375 221.295898438 c 2
 335.255859375 310.125976562 l 2
 335.255859375 365.8828125 317.700195312 393.286132812 276.665039062 393.286132812 c 0
 247.5625 393.286132812 215.240234375 378.006835938 215.240234375 310.125976562 c 2
 215.240234375 221.295898438 l 2
 215.240234375 176.326171875 229.85546875 138.13671875 279.5 138.13671875 c 0
EndSplineSet
EndChar

StartChar: c
Encoding: 99 99 69
Width: 512
GlyphClass: 2
Flags: MW
HStem: -5.50391 143.641<260.316 285.663 260.316 301.964> 393.286 143.641<258.342 297.14>
VStem: 50.8115 155.925<220.352 221.296 221.296 310.126 203.799 312.017 203.799 348.547> 331.477 151.2<190.111 215.626 159.949 215.626 312.961 338.477 338.477 342.256>
LayerCount: 2
Fore
SplineSet
271.94140625 138.13671875 m 0
 299.384765625 138.13671875 331.4765625 147.291015625 331.4765625 190.111328125 c 2
 331.4765625 215.625976562 l 1
 482.676757812 215.625976562 l 1
 482.676757812 189.166015625 l 2
 482.676757812 130.732421875 463.82421875 81.890625 425.204101562 46.48828125 c 0
 386.595703125 11.09765625 333.875976562 -5.50390625 270.051757812 -5.50390625 c 0
 204.755859375 -5.50390625 150.53125 12.3798828125 110.477539062 49.9521484375 c 0
 69.4150390625 88.470703125 50.8115234375 146.705078125 50.8115234375 220.3515625 c 2
 50.8115234375 312.016601562 l 2
 50.8115234375 385.078125 69.4580078125 442.9921875 110.477539062 481.470703125 c 0
 150.53125 519.041992188 204.755859375 536.926757812 270.051757812 536.926757812 c 0
 333.836914062 536.926757812 386.510742188 520.517578125 425.12890625 485.474609375 c 0
 463.875976562 450.315429688 482.676757812 401.25 482.676757812 342.255859375 c 2
 482.676757812 312.9609375 l 1
 331.4765625 312.9609375 l 1
 331.4765625 338.4765625 l 2
 331.4765625 361.51953125 322.337890625 393.286132812 271.94140625 393.286132812 c 0
 244.743164062 393.286132812 206.736328125 386.913085938 206.736328125 310.125976562 c 2
 206.736328125 221.295898438 l 2
 206.736328125 186.302734375 214.223632812 165.43359375 223.55859375 155.501953125 c 0
 233.870117188 144.533203125 248.69140625 138.13671875 271.94140625 138.13671875 c 0
EndSplineSet
EndChar

StartChar: d
Encoding: 100 100 70
Width: 520
GlyphClass: 2
Flags: MW
HStem: -5.50391 143.641<207.07 271.129> 393.286 143.641<205.88 290.126> 671.906 20G<326.752 482.678 482.678 482.678>
VStem: 50.8115 156.87<217.517 221.296 221.296 310.126 179.946 314.852 179.946 350.2> 326.752 155.926<508.73 691.906 0.166016 691.906>
LayerCount: 2
Fore
SplineSet
50.8115234375 217.516601562 m 2
 50.8115234375 314.8515625 l 2
 50.8115234375 385.548828125 66.1748046875 441.639648438 100.762695312 480.232421875 c 0
 134.502929688 517.87890625 179.5078125 536.926757812 232.251953125 536.926757812 c 0
 268.369140625 536.926757812 300.326171875 527.44140625 326.751953125 508.73046875 c 1
 326.751953125 691.90625 l 1
 482.677734375 691.90625 l 1
 482.677734375 0.166015625 l 1
 328.642578125 0.166015625 l 1
 328.642578125 20.6357421875 l 1
 301.9296875 3.1650390625 269.650390625 -5.50390625 233.196289062 -5.50390625 c 0
 180.944335938 -5.50390625 136.036132812 13.7939453125 101.784179688 51.578125 c 0
 66.55859375 90.435546875 50.8115234375 146.743164062 50.8115234375 217.516601562 c 2
263.436523438 138.13671875 m 0
 278.821289062 138.13671875 326.750976562 139.254882812 326.750976562 221.295898438 c 2
 326.750976562 310.125976562 l 2
 326.750976562 353.125976562 313.981445312 393.286132812 266.271484375 393.286132812 c 0
 246.538085938 393.286132812 207.681640625 391.143554688 207.681640625 310.125976562 c 2
 207.681640625 221.295898438 l 2
 207.681640625 138.596679688 246.625976562 138.13671875 263.436523438 138.13671875 c 0
EndSplineSet
EndChar

StartChar: e
Encoding: 101 101 71
Width: 523
GlyphClass: 2
Flags: MW
HStem: -5.50488 140.806<267.948 296.835 267.948 308.121> 210.901 120.015<207.388 336.983 207.388 494.017 206.841 336.983> 397.066 139.859<260.884 289.865>
VStem: 50.8115 156.029<210.901 295.95 210.901 334.314>
AnchorPoint: "Anchor-0" 271 511 basechar 0
LayerCount: 2
Fore
SplineSet
281.391601562 135.30078125 m 0
 312.279296875 135.30078125 336.141601562 144.626953125 338.142578125 172.641601562 c 0
 338.143554688 174.598632812 338.143554688 174.598632812 344.57421875 193.890625 c 1
 490.236328125 193.890625 l 1
 490.236328125 169.3203125 l 2
 490.236328125 117.444335938 470.140625 73.548828125 430.969726562 41.5 c 0
 391.784179688 9.439453125 339.575195312 -5.5048828125 276.666015625 -5.5048828125 c 0
 209.828125 -5.5048828125 154.044921875 14.041015625 112.564453125 54.4677734375 c 0
 70.1171875 95.8349609375 50.8115234375 157.8125 50.8115234375 236.415039062 c 2
 50.8115234375 295.950195312 l 2
 50.8115234375 372.678710938 69.49609375 433.755859375 110.309570312 475.642578125 c 0
 150.596679688 516.991210938 205.989257812 536.92578125 272.88671875 536.92578125 c 0
 338.678710938 536.92578125 393.56640625 516.706054688 434.044921875 475.171875 c 0
 475.099609375 433.045898438 494.016601562 372.131835938 494.016601562 295.951171875 c 2
 494.016601562 210.901367188 l 1
 206.840820312 210.901367188 l 1
 207.803710938 180.89453125 215.357421875 162.859375 225.211914062 153.384765625 c 0
 236.892578125 142.151367188 254.50390625 135.30078125 281.391601562 135.30078125 c 0
336.983398438 330.916015625 m 1
 334.55859375 385.685546875 306.842773438 397.06640625 272.88671875 397.06640625 c 0
 248.880859375 397.06640625 233.768554688 390.5625 223.55859375 379.700195312 c 0
 215.849609375 371.498046875 209.399414062 355.834960938 207.387695312 330.916015625 c 1
 336.983398438 330.916015625 l 1
EndSplineSet
EndChar

StartChar: f
Encoding: 102 102 72
Width: 348
GlyphClass: 2
Flags: MW
HStem: 0.166016 21G<94.2812 250.206 94.2812 94.2812> 409.352 121.904<42.3066 94.2812 42.3066 94.2812 250.206 338.092> 572.836 119.07<272.37 279.501 279.501 338.092>
VStem: 94.2812 155.925<0.166016 409.352 0.166016 409.352 531.256 540.706 540.706 545.432 0.166016 563.367>
LayerCount: 2
Fore
SplineSet
250.206054688 545.431640625 m 2
 250.206054688 531.255859375 l 1
 338.091796875 531.255859375 l 1
 338.091796875 409.3515625 l 1
 250.206054688 409.3515625 l 1
 250.206054688 0.166015625 l 1
 94.28125 0.166015625 l 1
 94.28125 409.3515625 l 1
 42.306640625 409.3515625 l 1
 42.306640625 531.255859375 l 1
 94.28125 531.255859375 l 1
 94.28125 540.706054688 l 2
 94.28125 586.02734375 107.470703125 624.286132812 135.7265625 651.788085938 c 0
 164.018554688 679.326171875 203.318359375 691.90625 250.206054688 691.90625 c 2
 338.091796875 691.90625 l 1
 338.091796875 572.8359375 l 1
 279.500976562 572.8359375 l 2
 265.23828125 572.8359375 258.73828125 569.374023438 256.203125 566.838867188 c 0
 253.32421875 563.958984375 250.206054688 558.06640625 250.206054688 545.431640625 c 2
EndSplineSet
EndChar

StartChar: g
Encoding: 103 103 73
Width: 520
GlyphClass: 2
Flags: MW
HStem: -154.813 132.3<251.89 282.99 251.89 296.431> 37.9668 143.64<207.07 271.132> 393.286 143.641<205.88 290.129>
VStem: 50.8115 156.873<260.986 264.767 264.767 310.126 223.417 314.852 223.417 350.2> 326.754 155.924<264.767 310.126 310.126 331.626>
LayerCount: 2
Fore
SplineSet
268.162109375 -22.513671875 m 0
 297.817382812 -22.513671875 328.642578125 -13.939453125 328.642578125 48.361328125 c 2
 328.642578125 64.10546875 l 1
 301.9296875 46.6357421875 269.650390625 37.966796875 233.196289062 37.966796875 c 0
 180.944335938 37.966796875 136.036132812 57.263671875 101.784179688 95.0478515625 c 0
 66.55859375 133.90625 50.8115234375 190.213867188 50.8115234375 260.986328125 c 2
 50.8115234375 314.8515625 l 2
 50.8115234375 385.548828125 66.1748046875 441.639648438 100.762695312 480.232421875 c 0
 134.502929688 517.87890625 179.5078125 536.926757812 232.251953125 536.926757812 c 0
 268.369140625 536.926757812 300.326171875 527.44140625 326.751953125 508.73046875 c 1
 326.751953125 531.255859375 l 1
 482.677734375 531.255859375 l 1
 482.677734375 55.9208984375 l 2
 482.677734375 -6.720703125 463.40234375 -59.095703125 423.749023438 -97.6865234375 c 0
 383.975585938 -136.39453125 329.424804688 -154.813476562 263.4375 -154.813476562 c 0
 203.323242188 -154.813476562 153.944335938 -141.668945312 117.411132812 -112.732421875 c 0
 80.9951171875 -83.8876953125 60.9482421875 -42.962890625 57.478515625 6.314453125 c 2
 55.9814453125 27.5712890625 l 1
 205.869140625 27.5712890625 l 1
 209.157226562 11.7880859375 l 2
 213.819335938 -10.5927734375 235.618164062 -22.513671875 268.162109375 -22.513671875 c 0
263.439453125 181.606445312 m 0
 278.82421875 181.606445312 326.75390625 182.725585938 326.75390625 264.766601562 c 2
 326.75390625 310.125976562 l 2
 326.75390625 353.125976562 313.983398438 393.286132812 266.274414062 393.286132812 c 0
 246.541015625 393.286132812 207.684570312 391.143554688 207.684570312 310.125976562 c 2
 207.684570312 264.766601562 l 2
 207.684570312 182.06640625 246.62890625 181.606445312 263.439453125 181.606445312 c 0
EndSplineSet
EndChar

StartChar: h
Encoding: 104 104 74
Width: 526
GlyphClass: 2
Flags: MW
HStem: 0.166016 21G<59.3164 216.187 59.3164 59.3164 331.477 331.477 331.477 488.347> 393.286 143.641<285.317 301.476> 671.906 20G<59.3164 216.187 216.187 216.187>
VStem: 59.3164 156.87<0.166016 326.191 510.821 691.906> 331.477 156.87<0.166016 326.191 326.191 336.191>
LayerCount: 2
Fore
SplineSet
331.4765625 326.19140625 m 2
 331.4765625 346.19140625 328.17578125 393.286132812 274.776367188 393.286132812 c 0
 256.712890625 393.286132812 243.720703125 387.799804688 232.7265625 376.571289062 c 0
 222.467773438 366.094726562 216.186523438 350.450195312 216.186523438 326.19140625 c 2
 216.186523438 0.166015625 l 1
 59.31640625 0.166015625 l 1
 59.31640625 691.90625 l 1
 216.186523438 691.90625 l 1
 216.186523438 510.821289062 l 1
 228.4375 518.600585938 260.892578125 536.926757812 309.741210938 536.926757812 c 0
 419.45703125 536.926757812 488.346679688 465.12890625 488.346679688 340.366210938 c 2
 488.346679688 0.166015625 l 1
 331.4765625 0.166015625 l 1
 331.4765625 326.19140625 l 2
EndSplineSet
EndChar

StartChar: i
Encoding: 105 105 75
Width: 259
GlyphClass: 2
Flags: MW
HStem: 0.166016 21G<64.041 219.967 64.041 64.041> 558.661 133.245<62.1514 220.911 62.1514 220.911>
VStem: 64.041 155.926<0.166016 531.256 0.166016 531.256>
AnchorPoint: "Anchor-0" 141 511 basechar 0
LayerCount: 2
Fore
SplineSet
64.041015625 531.255859375 m 1
 219.966796875 531.255859375 l 1
 219.966796875 0.166015625 l 1
 64.041015625 0.166015625 l 1
 64.041015625 531.255859375 l 1
62.1513671875 691.90625 m 1
 220.911132812 691.90625 l 1
 220.911132812 558.661132812 l 1
 62.1513671875 558.661132812 l 1
 62.1513671875 691.90625 l 1
EndSplineSet
EndChar

StartChar: j
Encoding: 106 106 76
Width: 259
GlyphClass: 2
Flags: MW
HStem: -147.254 140.806<-22.8984 36.6367 36.6367 43.1616 -22.8984 51.7559 -22.8984 36.6367> 558.661 133.245<61.2061 219.967 61.2061 219.967>
VStem: 64.041 155.926<29.4609 531.256>
LayerCount: 2
Fore
SplineSet
61.2060546875 691.90625 m 1
 219.966796875 691.90625 l 1
 219.966796875 558.661132812 l 1
 61.2060546875 558.661132812 l 1
 61.2060546875 691.90625 l 1
-22.8984375 -6.4482421875 m 1
 36.63671875 -6.4482421875 l 2
 49.6865234375 -6.4482421875 54.94921875 -3.10546875 57.474609375 -0.1591796875 c 0
 60.236328125 3.0625 64.041015625 12.1357421875 64.041015625 29.4609375 c 2
 64.041015625 531.255859375 l 1
 219.966796875 531.255859375 l 1
 219.966796875 21.9013671875 l 2
 219.966796875 -29.47265625 205.895507812 -72.2041015625 175.40625 -102.693359375 c 0
 144.974609375 -133.125 102.567382812 -147.25390625 51.755859375 -147.25390625 c 2
 -22.8984375 -147.25390625 l 1
 -22.8984375 -6.4482421875 l 1
EndSplineSet
EndChar

StartChar: k
Encoding: 107 107 77
Width: 526
GlyphClass: 2
Flags: MW
HStem: 0.166016 21G<59.3164 216.187 59.3164 59.3164 352.962 541.659 352.962 352.962> 671.906 20G<59.3164 216.187 216.187 216.187>
VStem: 59.3164 156.87<0.166016 158.191 365.126 691.906>
LayerCount: 2
Fore
SplineSet
352.961914062 0.166015625 m 1
 244.9296875 191.637695312 l 1
 216.186523438 158.19140625 l 1
 216.186523438 0.166015625 l 1
 59.31640625 0.166015625 l 1
 59.31640625 691.90625 l 1
 216.186523438 691.90625 l 1
 216.186523438 365.125976562 l 1
 345.399414062 531.255859375 l 1
 537.25 531.255859375 l 1
 350.266601562 313.809570312 l 1
 541.659179688 0.166015625 l 1
 352.961914062 0.166015625 l 1
EndSplineSet
EndChar

StartChar: l
Encoding: 108 108 78
Width: 303
GlyphClass: 2
Flags: MW
HStem: 0.166016 140.806<177.218 302.182 242.646 302.182 242.646 302.182> 671.906 20G<59.3164 216.187 216.187 216.187>
VStem: 59.3164 156.87<169.321 176.881 176.881 691.906>
LayerCount: 2
Fore
SplineSet
228.471679688 0.166015625 m 2
 125.963867188 0.166015625 59.31640625 59.267578125 59.31640625 169.321289062 c 2
 59.31640625 691.90625 l 1
 216.186523438 691.90625 l 1
 216.186523438 176.880859375 l 2
 216.186523438 158.662109375 220.10546875 149.341796875 222.3203125 146.7421875 c 0
 224.35546875 144.352539062 229.385742188 140.971679688 242.646484375 140.971679688 c 2
 302.181640625 140.971679688 l 1
 302.181640625 0.166015625 l 1
 228.471679688 0.166015625 l 2
EndSplineSet
EndChar

StartChar: m
Encoding: 109 109 79
Width: 802
GlyphClass: 2
Flags: MW
HStem: 0.166016 21G<59.3164 216.187 59.3164 59.3164 331.477 331.477 331.477 488.347 603.637 603.637 603.637 760.506> 393.286 143.641<268.641 335.62 548.106 556.03>
VStem: 59.3164 156.87<0.166016 326.191 0.166016 531.256> 331.477 156.87<0.166016 326.191 326.191 329.026 0.166016 338.786> 603.637 156.869<0.166016 326.191 326.191 338.786>
LayerCount: 2
Fore
SplineSet
274.776367188 393.286132812 m 0
 262.504882812 393.286132812 216.186523438 391.140625 216.186523438 326.19140625 c 2
 216.186523438 0.166015625 l 1
 59.31640625 0.166015625 l 1
 59.31640625 531.255859375 l 1
 213.3515625 531.255859375 l 1
 213.3515625 509.086914062 l 1
 232.372070312 521.06640625 265.833007812 536.926757812 309.741210938 536.926757812 c 0
 361.498046875 536.926757812 405.01953125 519.521484375 437.060546875 485.072265625 c 1
 475.462890625 519.307617188 521.870117188 536.926757812 574.341796875 536.926757812 c 0
 630.659179688 536.926757812 677.591796875 519.532226562 711.251953125 483.33984375 c 0
 744.71484375 447.358398438 760.505859375 398.680664062 760.505859375 340.366210938 c 2
 760.505859375 0.166015625 l 1
 603.63671875 0.166015625 l 1
 603.63671875 326.19140625 l 2
 603.63671875 351.380859375 597.404296875 367.262695312 587.884765625 377.205078125 c 0
 577.663085938 387.881835938 565.124023438 393.286132812 546.936523438 393.286132812 c 0
 527.403320312 393.286132812 514.456054688 387.533203125 504.381835938 376.5625 c 0
 494.086914062 365.352539062 488.346679688 350.46484375 488.346679688 329.026367188 c 2
 488.346679688 0.166015625 l 1
 331.4765625 0.166015625 l 1
 331.4765625 326.19140625 l 2
 331.4765625 351.380859375 325.244140625 367.262695312 315.724609375 377.205078125 c 0
 305.502929688 387.881835938 292.963867188 393.286132812 274.776367188 393.286132812 c 0
EndSplineSet
EndChar

StartChar: n
Encoding: 110 110 80
Width: 526
GlyphClass: 2
Flags: MW
HStem: 0.166016 21G<59.3164 216.187 59.3164 59.3164 331.477 331.477 331.477 488.347> 393.286 143.641<284.153 302.353>
VStem: 59.3164 156.87<0.166016 326.191 0.166016 531.256> 331.477 156.87<0.166016 326.191 326.191 333.7>
AnchorPoint: "Anchor-0" 273 511 basechar 0
LayerCount: 2
Fore
SplineSet
331.4765625 326.19140625 m 2
 331.4765625 341.208007812 329.9296875 393.286132812 274.776367188 393.286132812 c 0
 256.712890625 393.286132812 243.720703125 387.799804688 232.7265625 376.571289062 c 0
 222.467773438 366.094726562 216.186523438 350.450195312 216.186523438 326.19140625 c 2
 216.186523438 0.166015625 l 1
 59.31640625 0.166015625 l 1
 59.31640625 531.255859375 l 1
 213.3515625 531.255859375 l 1
 213.3515625 509.708984375 l 1
 223.432617188 516.081054688 258.564453125 536.926757812 309.741210938 536.926757812 c 0
 364.348632812 536.926757812 409.78125 519.342773438 441.823242188 482.931640625 c 0
 473.530273438 446.901367188 488.346679688 398.463867188 488.346679688 340.366210938 c 2
 488.346679688 0.166015625 l 1
 331.4765625 0.166015625 l 1
 331.4765625 326.19140625 l 2
EndSplineSet
EndChar

StartChar: o
Encoding: 111 111 81
Width: 517
GlyphClass: 2
Flags: MW
HStem: -5.50391 143.641<257.563 281.461 257.563 302.407> 393.286 143.641<257.565 281.46>
VStem: 50.8115 155.925<220.352 221.296 221.296 310.126 182.277 312.017 182.277 348.547> 331.477 155.925<221.296 310.126 310.126 312.017 183.545 349.757>
AnchorPoint: "Anchor-0" 270 511 basechar 0
LayerCount: 2
Fore
SplineSet
50.8115234375 220.3515625 m 2
 50.8115234375 312.016601562 l 2
 50.8115234375 385.078125 69.4580078125 442.9921875 110.477539062 481.470703125 c 0
 150.53125 519.041992188 204.755859375 536.926757812 270.051757812 536.926757812 c 0
 334.76171875 536.926757812 388.549804688 519.00390625 428.271484375 481.41015625 c 0
 468.946289062 442.9140625 487.401367188 385.043945312 487.401367188 312.016601562 c 2
 487.401367188 220.3515625 l 2
 487.401367188 146.739257812 468.989257812 88.548828125 428.271484375 50.0126953125 c 0
 388.549804688 12.4189453125 334.76171875 -5.50390625 270.051757812 -5.50390625 c 0
 204.755859375 -5.50390625 150.53125 12.3798828125 110.477539062 49.9521484375 c 0
 69.4150390625 88.470703125 50.8115234375 146.705078125 50.8115234375 220.3515625 c 2
270.051757812 138.13671875 m 0
 292.870117188 138.13671875 331.4765625 142.036132812 331.4765625 221.295898438 c 2
 331.4765625 310.125976562 l 2
 331.4765625 389.388671875 292.868164062 393.286132812 270.051757812 393.286132812 c 0
 245.078125 393.286132812 206.736328125 388.166992188 206.736328125 310.125976562 c 2
 206.736328125 221.295898438 l 2
 206.736328125 143.2578125 245.075195312 138.13671875 270.051757812 138.13671875 c 0
EndSplineSet
Substitution2: "Single Substitution lookup 6 subtable" ordmasculine
Substitution2: "'aalt' Access All Alternates lookup 0 subtable" ordmasculine
EndChar

StartChar: p
Encoding: 112 112 82
Width: 521
GlyphClass: 2
Flags: MW
HStem: -5.50391 143.641<254.678 335.593> 393.286 143.641<288.562 297.183>
VStem: 59.3164 156.87<-147.254 20.0771 -147.254 531.256> 335.256 156.87<221.296 310.126 310.126 314.852 182.114 338.004>
LayerCount: 2
Fore
SplineSet
59.31640625 531.255859375 m 1
 213.350585938 531.255859375 l 1
 213.350585938 507.993164062 l 1
 239.924804688 527.05859375 271.162109375 536.926757812 305.9609375 536.926757812 c 0
 359.81640625 536.926757812 405.817382812 518.02734375 440.548828125 480.461914062 c 0
 476.205078125 441.895507812 492.125976562 385.645507812 492.125976562 314.8515625 c 2
 492.125976562 217.516601562 l 2
 492.125976562 146.7109375 476.193359375 90.3515625 440.612304688 51.5029296875 c 0
 406.12109375 13.84375 361.444335938 -5.50390625 309.741210938 -5.50390625 c 0
 274.16796875 -5.50390625 242.54296875 3.0009765625 216.186523438 20.0771484375 c 1
 216.186523438 -147.25390625 l 1
 59.31640625 -147.25390625 l 1
 59.31640625 531.255859375 l 1
279.5 138.13671875 m 0
 296.3046875 138.13671875 335.255859375 138.591796875 335.255859375 221.295898438 c 2
 335.255859375 310.125976562 l 2
 335.255859375 365.8828125 317.700195312 393.286132812 276.665039062 393.286132812 c 0
 247.5625 393.286132812 215.240234375 378.006835938 215.240234375 310.125976562 c 2
 215.240234375 221.295898438 l 2
 215.240234375 176.326171875 229.85546875 138.13671875 279.5 138.13671875 c 0
EndSplineSet
EndChar

StartChar: q
Encoding: 113 113 83
Width: 520
GlyphClass: 2
Flags: MW
HStem: -5.50391 143.641<207.07 271.129> 393.286 143.641<209.104 290.126>
VStem: 50.8115 156.87<217.517 221.296 221.296 310.126 179.946 314.852 179.946 350.232> 326.751 155.926<-147.254 20.0771 20.0771 20.0771 221.296 310.126 310.126 331.626>
LayerCount: 2
Fore
SplineSet
328.641601562 508.583984375 m 1
 328.641601562 531.255859375 l 1
 482.676757812 531.255859375 l 1
 482.676757812 -147.25390625 l 1
 326.750976562 -147.25390625 l 1
 326.750976562 20.0771484375 l 1
 300.39453125 3.0009765625 268.76953125 -5.50390625 233.196289062 -5.50390625 c 0
 180.944335938 -5.50390625 136.036132812 13.7939453125 101.784179688 51.578125 c 0
 66.55859375 90.435546875 50.8115234375 146.743164062 50.8115234375 217.516601562 c 2
 50.8115234375 314.8515625 l 2
 50.8115234375 385.61328125 66.546875 441.810546875 101.846679688 480.385742188 c 0
 136.28515625 518.01953125 182.177734375 536.926757812 236.03125 536.926757812 c 0
 271.146484375 536.926757812 302.426757812 527.318359375 328.641601562 508.583984375 c 1
263.436523438 138.13671875 m 0
 278.821289062 138.13671875 326.750976562 139.254882812 326.750976562 221.295898438 c 2
 326.750976562 310.125976562 l 2
 326.750976562 353.125976562 313.981445312 393.286132812 266.271484375 393.286132812 c 0
 246.538085938 393.286132812 207.681640625 391.143554688 207.681640625 310.125976562 c 2
 207.681640625 221.295898438 l 2
 207.681640625 138.596679688 246.625976562 138.13671875 263.436523438 138.13671875 c 0
EndSplineSet
EndChar

StartChar: r
Encoding: 114 114 84
Width: 371
GlyphClass: 2
Flags: MW
HStem: 0.166016 21G<59.3164 216.187 59.3164 59.3164> 398.956 142.695<285.345 302.07>
VStem: 59.3164 156.87<0.166016 314.852 0.166016 531.256>
LayerCount: 2
Fore
SplineSet
213.3515625 512.453125 m 1
 229.319335938 524.33984375 260.94921875 541.651367188 309.741210938 541.651367188 c 0
 333.560546875 541.651367188 343.791015625 539.497070312 369.276367188 534.131835938 c 1
 369.276367188 381.36328125 l 1
 328.657226562 394.12890625 313.297851562 398.956054688 290.841796875 398.956054688 c 0
 266.81640625 398.956054688 249.87109375 391.838867188 236.609375 378.09375 c 0
 223.84375 364.864257812 216.186523438 344.91015625 216.186523438 314.8515625 c 2
 216.186523438 0.166015625 l 1
 59.31640625 0.166015625 l 1
 59.31640625 531.255859375 l 1
 213.3515625 531.255859375 l 1
 213.3515625 512.453125 l 1
EndSplineSet
EndChar

StartChar: s
Encoding: 115 115 85
Width: 483
GlyphClass: 2
Flags: MW
HStem: -5.50391 134.19<241.54 263.895 241.54 279.146> 405.571 131.355<240.621 262.817>
VStem: 42.3057 149.31<165.541 167.432 167.432 189.166 161.229 189.166>
AnchorPoint: "Anchor-0" 252 511 basechar 0
LayerCount: 2
Fore
SplineSet
252.09765625 405.571289062 m 0
 229.14453125 405.571289062 198.232421875 400.541015625 198.232421875 373.44140625 c 0
 198.232421875 363.873046875 198.232421875 348.534179688 243.672851562 342.04296875 c 2
 301.192382812 333.556640625 l 2
 355.798828125 325.85546875 465.666015625 300.075195312 465.666015625 172.15625 c 0
 465.666015625 116.673828125 444.657226562 70.8798828125 402.901367188 39.5634765625 c 0
 362.12890625 8.984375 309.975585938 -5.50390625 248.31640625 -5.50390625 c 0
 189.044921875 -5.50390625 139.109375 9.0830078125 100.74609375 39.9873046875 c 0
 62.08203125 71.1328125 42.3056640625 114.325195312 42.3056640625 165.541015625 c 2
 42.3056640625 189.166015625 l 1
 191.615234375 189.166015625 l 1
 191.615234375 167.431640625 l 2
 191.615234375 155.02734375 195.525390625 147.592773438 205.362304688 140.686523438 c 0
 215.926757812 133.26953125 230.984375 128.686523438 252.095703125 128.686523438 c 0
 275.694335938 128.686523438 292.053710938 133.064453125 302.012695312 139.34375 c 0
 310.759765625 144.858398438 314.465820312 151.1015625 314.465820312 163.651367188 c 0
 314.465820312 173.83984375 311.697265625 178.64453125 306.206054688 182.84375 c 0
 300.1328125 187.48828125 285.091796875 193.0703125 261.416992188 196.944335938 c 2
 209.124023438 205.501953125 l 2
 114.01953125 221.353515625 48.919921875 263.486328125 48.919921875 364.936523438 c 0
 48.919921875 416.751953125 68.841796875 460.314453125 107.90234375 491.491210938 c 0
 146.358398438 522.185546875 195.141601562 536.926757812 252.095703125 536.926757812 c 0
 379.334960938 536.926757812 457.161132812 463.989257812 457.161132812 374.38671875 c 2
 457.161132812 348.87109375 l 1
 308.795898438 348.87109375 l 1
 308.795898438 371.551757812 l 2
 308.795898438 382.821289062 305.420898438 389.071289062 296.987304688 394.955078125 c 0
 288.036132812 401.200195312 273.537109375 405.571289062 252.09765625 405.571289062 c 0
EndSplineSet
EndChar

StartChar: t
Encoding: 116 116 86
Width: 365
GlyphClass: 2
Flags: MW
HStem: 0.166016 138.915<214.394 340.927 284.227 340.927 284.227 340.927> 409.352 121.904<31.9111 99.9512 31.9111 99.9512 255.876 350.376>
VStem: 99.9512 155.925<161.762 169.321 169.321 409.352 531.256 621.891 621.891 621.891>
LayerCount: 2
Fore
SplineSet
265.326171875 0.166015625 m 2
 163.4609375 0.166015625 99.951171875 64.6611328125 99.951171875 161.76171875 c 2
 99.951171875 409.3515625 l 1
 31.9111328125 409.3515625 l 1
 31.9111328125 531.255859375 l 1
 99.951171875 531.255859375 l 1
 99.951171875 621.890625 l 1
 255.875976562 676.400390625 l 1
 255.875976562 531.255859375 l 1
 350.375976562 531.255859375 l 1
 350.375976562 409.3515625 l 1
 255.875976562 409.3515625 l 1
 255.875976562 169.321289062 l 2
 255.875976562 143.883789062 266.46484375 139.081054688 284.2265625 139.081054688 c 2
 340.926757812 139.081054688 l 1
 340.926757812 0.166015625 l 1
 265.326171875 0.166015625 l 2
EndSplineSet
EndChar

StartChar: u
Encoding: 117 117 87
Width: 526
GlyphClass: 2
Flags: MW
HStem: -5.50391 143.641<260.059 287.759 260.059 358.639>
VStem: 59.3164 156.87<218.461 224.131 224.131 531.256> 331.477 156.87<224.131 531.256>
AnchorPoint: "Anchor-0" 273 511 basechar 0
LayerCount: 2
Fore
SplineSet
273.831054688 -5.50390625 m 0
 170.727539062 -5.50390625 59.31640625 36.578125 59.31640625 218.4609375 c 2
 59.31640625 531.255859375 l 1
 216.186523438 531.255859375 l 1
 216.186523438 224.130859375 l 2
 216.186523438 191.3359375 221.458007812 168.380859375 229.12109375 155.145507812 c 0
 234.580078125 145.715820312 246.287109375 138.13671875 273.831054688 138.13671875 c 0
 301.6875 138.13671875 313.581054688 145.62109375 318.783203125 154.133789062 c 0
 325.978515625 165.907226562 331.4765625 189.2734375 331.4765625 224.130859375 c 2
 331.4765625 531.255859375 l 1
 488.346679688 531.255859375 l 1
 488.346679688 218.4609375 l 2
 488.346679688 103.278320312 443.446289062 -5.50390625 273.831054688 -5.50390625 c 0
EndSplineSet
EndChar

StartChar: v
Encoding: 118 118 88
Width: 489
GlyphClass: 2
Flags: MW
HStem: 0.166016 21G<192.602 317.235 192.602 192.602>
LayerCount: 2
Fore
SplineSet
8.7626953125 531.255859375 m 1
 175.115234375 531.255859375 l 1
 255.782226562 267.692382812 l 1
 335.649414062 531.255859375 l 1
 502.095703125 531.255859375 l 1
 317.235351562 0.166015625 l 1
 192.6015625 0.166015625 l 1
 8.7626953125 531.255859375 l 1
EndSplineSet
EndChar

StartChar: w
Encoding: 119 119 89
Width: 733
GlyphClass: 2
Flags: MW
HStem: 0.166016 21G<165.397 294.274 165.397 165.397 456.604 585.412 456.604 456.604>
LayerCount: 2
Fore
SplineSet
10.15625 531.255859375 m 1
 175.998046875 531.255859375 l 1
 238.986328125 274.637695312 l 1
 316.75 531.255859375 l 1
 434.087890625 531.255859375 l 1
 511.8515625 274.637695312 l 1
 574.83984375 531.255859375 l 1
 741.67578125 531.255859375 l 1
 585.412109375 0.166015625 l 1
 456.604492188 0.166015625 l 1
 375.040039062 269.649414062 l 1
 294.274414062 0.166015625 l 1
 165.397460938 0.166015625 l 1
 10.15625 531.255859375 l 1
EndSplineSet
EndChar

StartChar: x
Encoding: 120 120 90
Width: 467
GlyphClass: 2
Flags: MW
HStem: 0.166016 21G<2.12207 171.489 2.12207 2.12207 320.098 487.859 320.098 320.098>
LayerCount: 2
Fore
SplineSet
320.09765625 0.166015625 m 1
 241.7109375 134.077148438 l 1
 171.489257812 0.166015625 l 1
 2.1220703125 0.166015625 l 1
 161.087890625 273.260742188 l 1
 10.58984375 531.255859375 l 1
 179.412109375 531.255859375 l 1
 248.30078125 412.704101562 l 1
 309.979492188 531.255859375 l 1
 479.950195312 531.255859375 l 1
 327.120117188 276.881835938 l 1
 487.859375 0.166015625 l 1
 320.09765625 0.166015625 l 1
EndSplineSet
EndChar

StartChar: y
Encoding: 121 121 91
Width: 490
GlyphClass: 2
Flags: MW
HStem: -145.363 144.585<80.1064 136.807 136.807 140.586 80.1064 136.807>
AnchorPoint: "Anchor-0" 255 511 basechar 0
LayerCount: 2
Fore
SplineSet
140.5859375 -145.36328125 m 2
 80.1064453125 -145.36328125 l 1
 80.1064453125 -0.7783203125 l 1
 136.806640625 -0.7783203125 l 2
 153.633789062 -0.7783203125 163.375976562 2.5859375 167.237304688 5.3828125 c 0
 173.965820312 10.2548828125 180.012695312 25.189453125 182.145507812 32.654296875 c 1
 8.71875 531.255859375 l 1
 175.033203125 531.255859375 l 1
 257.004882812 268.463867188 l 1
 340.583984375 531.255859375 l 1
 503.056640625 531.255859375 l 1
 307.682617188 -29.078125 l 2
 278.731445312 -111.591796875 223.76171875 -145.36328125 140.5859375 -145.36328125 c 2
EndSplineSet
EndChar

StartChar: z
Encoding: 122 122 92
Width: 464
GlyphClass: 2
Flags: MW
HStem: 0.166016 137.971<237.513 435.427 237.513 435.427> 393.286 137.97<50.8115 435.427 50.8115 248.726>
AnchorPoint: "Anchor-0" 242 511 basechar 0
LayerCount: 2
Fore
SplineSet
50.8115234375 393.286132812 m 1
 50.8115234375 531.255859375 l 1
 435.426757812 531.255859375 l 1
 435.426757812 406.611328125 l 1
 237.512695312 138.13671875 l 1
 435.426757812 138.13671875 l 1
 435.426757812 0.166015625 l 1
 50.8115234375 0.166015625 l 1
 50.8115234375 124.811523438 l 1
 248.725585938 393.286132812 l 1
 50.8115234375 393.286132812 l 1
EndSplineSet
EndChar

StartChar: braceleft
Encoding: 123 123 93
Width: 373
GlyphClass: 2
Flags: MW
HStem: -79.2139 134.19<239.071 345.651 292.731 345.651 292.731 345.651> 604.967 134.189<286.461 292.731 292.731 345.651>
VStem: 122.631 150.256<67.0815 76.7109 76.7109 206.177 206.177 211.847 67.0815 218.248 457.546 583.231>
LayerCount: 2
Fore
SplineSet
272.88671875 76.7109375 m 2
 272.88671875 57.4521484375 280.190429688 54.9765625 292.731445312 54.9765625 c 2
 345.651367188 54.9765625 l 1
 345.651367188 -79.2138671875 l 1
 259.65625 -79.2138671875 l 2
 218.485351562 -79.2138671875 183.69140625 -68.2470703125 158.797851562 -43.7421875 c 0
 133.80859375 -19.142578125 122.630859375 15.64453125 122.630859375 56.8662109375 c 2
 122.630859375 206.176757812 l 2
 122.630859375 230.319335938 117.348632812 244.193359375 111.619140625 250.59765625 c 0
 106.646484375 256.155273438 94.650390625 261.931640625 70.65625 261.931640625 c 2
 50.8115234375 261.931640625 l 1
 50.8115234375 401.791015625 l 1
 70.65625 401.791015625 l 2
 94.650390625 401.791015625 106.646484375 407.567382812 111.619140625 413.125 c 0
 117.348632812 419.529296875 122.630859375 433.403320312 122.630859375 457.545898438 c 2
 122.630859375 604.021484375 l 2
 122.630859375 644.69921875 133.883789062 679.159179688 158.797851562 703.684570312 c 0
 183.69140625 728.189453125 218.485351562 739.15625 259.65625 739.15625 c 2
 345.651367188 739.15625 l 1
 345.651367188 604.966796875 l 1
 292.731445312 604.966796875 l 2
 280.190429688 604.966796875 272.88671875 602.490234375 272.88671875 583.231445312 c 2
 272.88671875 451.875976562 l 2
 272.88671875 384.641601562 257.584960938 352.455078125 229.3046875 331.578125 c 1
 258.306640625 309.951171875 272.88671875 277.821289062 272.88671875 211.846679688 c 2
 272.88671875 76.7109375 l 2
EndSplineSet
EndChar

StartChar: bar
Encoding: 124 124 94
Width: 310
GlyphClass: 2
Flags: MW
VStem: 93.3359 148.365<-79.2139 739.156 -79.2139 739.156>
LayerCount: 2
Fore
SplineSet
93.3359375 739.15625 m 1
 241.701171875 739.15625 l 1
 241.701171875 -79.2138671875 l 1
 93.3359375 -79.2138671875 l 1
 93.3359375 739.15625 l 1
EndSplineSet
EndChar

StartChar: braceright
Encoding: 125 125 95
Width: 373
GlyphClass: 2
Flags: MW
HStem: -79.2139 134.19<50.8115 103.732 103.732 110.747 50.8115 137.751 50.8115 103.732> 604.967 134.189<50.8115 103.731 50.8115 137.751>
VStem: 124.522 149.309<76.7109 206.177>
LayerCount: 2
Fore
SplineSet
124.521484375 583.231445312 m 2
 124.521484375 601.631835938 117.76171875 604.966796875 103.731445312 604.966796875 c 2
 50.8115234375 604.966796875 l 1
 50.8115234375 739.15625 l 1
 137.750976562 739.15625 l 2
 178.908203125 739.15625 213.624023438 728.198242188 238.249023438 703.573242188 c 0
 262.798828125 679.0234375 273.831054688 644.631835938 273.831054688 604.021484375 c 2
 273.831054688 457.545898438 l 2
 273.831054688 433.48046875 279.202148438 419.765625 285.122070312 413.338867188 c 0
 290.588867188 407.404296875 302.610351562 401.791015625 325.806640625 401.791015625 c 2
 345.651367188 401.791015625 l 1
 345.651367188 261.931640625 l 1
 325.806640625 261.931640625 l 2
 302.610351562 261.931640625 290.588867188 256.319335938 285.122070312 250.383789062 c 0
 279.202148438 243.95703125 273.831054688 230.2421875 273.831054688 206.176757812 c 2
 273.831054688 56.8662109375 l 2
 273.831054688 15.7099609375 262.873046875 -19.0068359375 238.249023438 -43.630859375 c 0
 213.624023438 -68.2548828125 178.908203125 -79.2138671875 137.750976562 -79.2138671875 c 2
 50.8115234375 -79.2138671875 l 1
 50.8115234375 54.9765625 l 1
 103.732421875 54.9765625 l 2
 117.760742188 54.9765625 124.522460938 58.310546875 124.522460938 76.7109375 c 2
 124.522460938 211.846679688 l 2
 124.522460938 277.770507812 139.07421875 309.930664062 168.103515625 331.578125 c 1
 139.807617188 352.465820312 124.521484375 384.671875 124.521484375 451.875976562 c 2
 124.521484375 583.231445312 l 2
EndSplineSet
EndChar

StartChar: asciitilde
Encoding: 126 126 96
Width: 535
GlyphClass: 2
Flags: MW
HStem: 184.441 137.025<347.681 358.066 347.681 372.67> 238.307 136.08<199.743 209.364>
LayerCount: 2
Fore
SplineSet
352.265625 321.466796875 m 0x80
 363.8671875 321.466796875 378.435546875 322.739257812 398.763671875 363.397460938 c 2
 408.446289062 382.760742188 l 1
 517.196289062 316.151367188 l 1
 502.849609375 283.090820312 486.536132812 245.5 446.944335938 215.41015625 c 0
 420.107421875 195.013671875 389.294921875 184.44140625 356.044921875 184.44140625 c 0x80
 327.924804688 184.44140625 303.392578125 189.892578125 255.563476562 218.1875 c 0
 219.44140625 237.735351562 213.881835938 238.306640625 204.845703125 238.306640625 c 0
 194.639648438 238.306640625 180.322265625 237.564453125 158.107421875 195.913085938 c 2
 148.18359375 177.305664062 l 1
 39.6787109375 243.765625 l 1
 54.7626953125 277.076171875 71.662109375 314.39453125 110.671875 343.915039062 c 0
 137.1640625 363.963867188 167.481445312 374.38671875 200.120117188 374.38671875 c 0x40
 229.688476562 374.38671875 253.245117188 368.620117188 300.4921875 341.643554688 c 0
 336.548828125 321.987304688 343.096679688 321.466796875 352.265625 321.466796875 c 0x80
EndSplineSet
EndChar

StartChar: exclamdown
Encoding: 161 161 98
Width: 267
GlyphClass: 2
Flags: MW
HStem: 367.771 163.484<63.0967 228.472 63.0967 228.472>
VStem: 63.0967 165.375<367.771 531.256 367.771 531.256> 83.0352 125.497<313.906 313.906>
LayerCount: 2
Fore
SplineSet
63.0966796875 531.255859375 m 1xc0
 228.471679688 531.255859375 l 1
 228.471679688 367.771484375 l 1
 63.0966796875 367.771484375 l 1
 63.0966796875 531.255859375 l 1xc0
83.03515625 313.90625 m 1xa0
 208.532226562 313.90625 l 1
 233.348632812 -147.25390625 l 1
 58.2197265625 -147.25390625 l 1
 83.03515625 313.90625 l 1xa0
EndSplineSet
EndChar

StartChar: cent
Encoding: 162 162 99
Width: 553
GlyphClass: 2
Flags: MW
HStem: -94.332 232.472<260.316 285.663 260.316 339.036 243.592 285.663> 393.29 246.641<258.342 297.14>
VStem: 50.8125 155.924<220.352 221.3 221.3 310.13 203.803 312.017 203.803 347.894> 243.592 95.4443<-94.332 -4.51758 -4.51758 -4.51758 535.941 639.931> 331.477 151.2<190.115 215.63 139.1 215.63 312.961 338.48 338.48 342.256>
LayerCount: 2
Fore
SplineSet
482.676757812 189.169921875 m 2xe8
 482.676757812 89.029296875 425.4609375 23.548828125 339.036132812 2.078125 c 1
 339.036132812 -94.33203125 l 1
 243.591796875 -94.33203125 l 1
 243.591796875 -4.517578125 l 1
 188.796875 -0.0791015625 142.96484375 18.4091796875 108.328125 52.091796875 c 0
 68.734375 90.5966796875 50.8125 148.012695312 50.8125 220.3515625 c 2
 50.8125 312.016601562 l 2
 50.8125 383.770507812 68.7763671875 440.868164062 108.328125 479.33203125 c 0
 142.96484375 513.014648438 188.796875 531.501953125 243.591796875 535.94140625 c 1
 243.591796875 639.930664062 l 1
 339.036132812 639.930664062 l 1
 339.036132812 529.400390625 l 1xf0
 380.999023438 519.161132812 415.530273438 499.307617188 440.701171875 469.356445312 c 0
 469.067382812 435.60546875 482.676757812 392.438476562 482.676757812 342.255859375 c 2
 482.676757812 312.9609375 l 1
 331.4765625 312.9609375 l 1
 331.4765625 338.48046875 l 2
 331.4765625 361.5234375 322.337890625 393.290039062 271.94140625 393.290039062 c 0
 244.743164062 393.290039062 206.736328125 386.916992188 206.736328125 310.129882812 c 2
 206.736328125 221.299804688 l 2
 206.736328125 186.306640625 214.223632812 165.436523438 223.55859375 155.505859375 c 0
 233.870117188 144.537109375 248.69140625 138.139648438 271.94140625 138.139648438 c 0
 299.384765625 138.139648438 331.4765625 147.294921875 331.4765625 190.115234375 c 2
 331.4765625 215.629882812 l 1
 482.676757812 215.629882812 l 1
 482.676757812 189.169921875 l 2xe8
EndSplineSet
EndChar

StartChar: sterling
Encoding: 163 163 100
Width: 475
GlyphClass: 2
Flags: MW
HStem: 0.166992 146.475<240.615 274.659 240.615 464.722> 260.987 147.42<31.9111 90.501 31.9111 90.501 253.986 376.836> 556.772 144.585<279.618 287.364>
VStem: 90.501 163.485<209.957 222.242 222.242 260.987 207.946 260.987 408.407 503.853 503.853 518.027>
LayerCount: 2
Fore
SplineSet
283.28125 556.772460938 m 0
 275.955078125 556.772460938 253.986328125 556.772460938 253.986328125 518.02734375 c 2
 253.986328125 408.407226562 l 1
 376.8359375 408.407226562 l 1
 376.8359375 260.987304688 l 1
 253.986328125 260.987304688 l 1
 253.986328125 222.2421875 l 2
 253.986328125 193.649414062 249.821289062 168.19140625 240.615234375 146.641601562 c 1
 308.702148438 146.641601562 376.7890625 146.642578125 444.875976562 146.642578125 c 2
 464.721679688 146.642578125 l 1
 464.721679688 0.1669921875 l 1
 48.9208984375 0.1669921875 l 1
 48.9208984375 134.809570312 l 1
 68.9453125 143.986328125 76.625 147.506835938 82.96875 160.826171875 c 0
 87.2255859375 169.767578125 90.5009765625 186.341796875 90.5009765625 209.95703125 c 2
 90.5009765625 260.987304688 l 1
 31.9111328125 260.987304688 l 1
 31.9111328125 408.407226562 l 1
 90.5009765625 408.407226562 l 1
 90.5009765625 503.852539062 l 2
 90.5009765625 563.919921875 106.342773438 613.390625 140.440429688 648.939453125 c 0
 174.6328125 684.587890625 222.8984375 701.357421875 281.391601562 701.357421875 c 0
 335.327148438 701.357421875 380.666015625 686.64453125 414.400390625 655.448242188 c 0
 448.598632812 623.82421875 464.721679688 578.868164062 464.721679688 524.642578125 c 2
 464.721679688 504.796875 l 1
 309.741210938 504.796875 l 1
 309.741210938 524.642578125 l 2
 309.741210938 555.86328125 291.446289062 556.772460938 283.28125 556.772460938 c 0
EndSplineSet
EndChar

StartChar: currency
Encoding: 164 164 101
Width: 598
GlyphClass: 2
Flags: MW
HStem: 106.006 132.301<297.354 320.618 297.354 325.978> 398.012 132.3<297.308 320.664>
VStem: 97.1162 135.136<306.679 330.585 306.679 334.828> 386.286 135.135<306.679 330.585>
LayerCount: 2
Fore
SplineSet
308.795898438 106.005859375 m 0
 274.432617188 106.005859375 242.315429688 113.256835938 213.107421875 127.788085938 c 1
 148.146484375 62.8271484375 l 1
 51.1015625 159.87109375 l 1
 117.094726562 225.864257812 l 1
 103.681640625 253.623046875 97.1162109375 284.763671875 97.1162109375 318.630859375 c 0
 97.1162109375 351.025390625 104.208984375 382.078125 118.168945312 411.26953125 c 1
 51.1015625 478.3359375 l 1
 148.146484375 575.380859375 l 1
 214.279296875 509.248046875 l 1
 243.708007812 523.255859375 275.399414062 530.311523438 308.795898438 530.311523438 c 0
 342.232421875 530.311523438 373.959960938 523.239257812 403.41796875 509.198242188 c 1
 470.59375 575.37109375 l 1
 566.291015625 478.344726562 l 1
 500.318359375 411.373046875 l 1
 514.3125 382.15234375 521.420898438 351.064453125 521.420898438 318.630859375 c 0
 521.420898438 285.024414062 514.743164062 253.642578125 501.2890625 225.073242188 c 1
 567.435546875 158.926757812 l 1
 470.391601562 61.8818359375 l 1
 404.485351562 127.788085938 l 1
 375.27734375 113.256835938 343.16015625 106.005859375 308.795898438 106.005859375 c 0
386.286132812 318.630859375 m 0
 386.286132812 342.540039062 379.045898438 360.627929688 364.458984375 375.71875 c 0
 350.03125 390.64453125 332.532226562 398.01171875 308.795898438 398.01171875 c 0
 285.819335938 398.01171875 268.6015625 390.741210938 254.080078125 375.71875 c 0
 239.493164062 360.627929688 232.251953125 342.540039062 232.251953125 318.630859375 c 0
 232.251953125 294.7265625 239.50390625 276.40234375 254.193359375 260.953125 c 0
 268.747070312 245.647460938 285.912109375 238.306640625 308.795898438 238.306640625 c 0
 332.440429688 238.306640625 349.885742188 245.74609375 364.344726562 260.953125 c 0
 379.03515625 276.40234375 386.286132812 294.7265625 386.286132812 318.630859375 c 0
EndSplineSet
EndChar

StartChar: yen
Encoding: 165 165 102
Width: 504
GlyphClass: 2
Flags: MW
HStem: 0.166016 21G<181.222 344.706 181.222 181.222> 110.731 122.85<59.3164 181.222 59.3164 181.222 344.706 466.611> 245.866 122.851<59.3164 150.437 59.3164 181.222 59.3164 150.437 375.491 466.611> 671.906 20G<3.96191 175.842 175.842 175.842 350.847 521.966 521.966 521.966>
VStem: 181.222 163.484<0.166016 110.731 0.166016 110.731 233.581 245.866 0.166016 245.866>
LayerCount: 2
Fore
SplineSet
344.706054688 110.731445312 m 1
 344.706054688 0.166015625 l 1
 181.221679688 0.166015625 l 1
 181.221679688 110.731445312 l 1
 59.31640625 110.731445312 l 1
 59.31640625 233.581054688 l 1
 181.221679688 233.581054688 l 1
 181.221679688 245.866210938 l 1
 59.31640625 245.866210938 l 1
 59.31640625 368.716796875 l 1
 150.436523438 368.716796875 l 1
 3.9619140625 691.90625 l 1
 175.841796875 691.90625 l 1
 264.98046875 465.380859375 l 1
 350.846679688 691.90625 l 1
 521.965820312 691.90625 l 1
 375.491210938 368.716796875 l 1
 466.611328125 368.716796875 l 1
 466.611328125 245.866210938 l 1
 344.706054688 245.866210938 l 1
 344.706054688 233.581054688 l 1
 466.611328125 233.581054688 l 1
 466.611328125 110.731445312 l 1
 344.706054688 110.731445312 l 1
EndSplineSet
EndChar

StartChar: brokenbar
Encoding: 166 166 103
Width: 310
GlyphClass: 2
Flags: MW
VStem: 93.3359 148.365<-79.2139 295.006 -79.2139 295.006 366.826 739.156>
LayerCount: 2
Fore
SplineSet
93.3359375 739.15625 m 1
 241.701171875 739.15625 l 1
 241.701171875 366.826171875 l 1
 93.3359375 366.826171875 l 1
 93.3359375 739.15625 l 1
93.3359375 295.005859375 m 1
 241.701171875 295.005859375 l 1
 241.701171875 -79.2138671875 l 1
 93.3359375 -79.2138671875 l 1
 93.3359375 295.005859375 l 1
EndSplineSet
EndChar

StartChar: section
Encoding: 167 167 104
Width: 518
GlyphClass: 2
Flags: MW
HStem: -158.594 136.079<253.55 274.305 253.55 293.898> 580.395 136.081<264.769 283.68>
VStem: 64.042 152.145<262.639 298.231> 84.8311 152.146<535.627 558.942 535.627 591.823> 304.072 152.145<-1.61084 22.6294> 322.027 153.089<269.493 295.25>
LayerCount: 2
Fore
SplineSet
408.100585938 136.068359375 m 1xd4
 432.28125 115.340820312 456.216796875 82.9765625 456.216796875 10.5615234375 c 0
 456.216796875 -37.8837890625 438.358398438 -79.6416015625 403.400390625 -111.388671875 c 0
 368.190429688 -143.366210938 321.524414062 -158.59375 266.271484375 -158.59375 c 0
 208.158203125 -158.59375 160.473632812 -143.434570312 126.712890625 -110.408203125 c 0
 93.08203125 -77.5087890625 77.271484375 -31.546875 77.271484375 23.7900390625 c 2
 77.271484375 43.6357421875 l 1
 223.74609375 43.6357421875 l 1
 223.74609375 23.7900390625 l 2
 223.74609375 -16.734375 242.71875 -22.5146484375 264.380859375 -22.5146484375 c 0
 284.229492188 -22.5146484375 304.072265625 -16.6171875 304.072265625 13.3955078125 c 0
 304.072265625 31.86328125 298.814453125 43.1826171875 289.479492188 51.4794921875 c 0
 279.701171875 60.171875 255.338867188 71.77734375 217.447265625 82.1669921875 c 0
 132.99609375 105.813476562 64.0419921875 159.397460938 64.0419921875 279.884765625 c 0xe8
 64.0419921875 316.578125 73.34765625 380.78515625 131.055664062 426.149414062 c 1
 120.69921875 435.34375 84.8310546875 467.518554688 84.8310546875 545.430664062 c 0
 84.8310546875 638.215820312 155.47265625 716.475585938 271.942382812 716.475585938 c 0
 330.11328125 716.475585938 377.596679688 700.936523438 410.471679688 666.954101562 c 0
 442.7421875 633.595703125 458.107421875 588.541992188 458.107421875 535.034179688 c 2
 458.107421875 515.189453125 l 1
 312.577148438 515.189453125 l 1
 312.577148438 535.034179688 l 2
 312.577148438 575.681640625 293.52734375 580.39453125 273.83203125 580.39453125 c 0
 255.706054688 580.39453125 236.9765625 573.399414062 236.9765625 544.484375 c 0
 236.9765625 526.770507812 242.063476562 516.596679688 250.984375 509.263671875 c 0
 261.051757812 500.986328125 285.01171875 489.891601562 321.711914062 479.494140625 c 0
 406.163085938 455.84765625 475.116210938 402.263671875 475.116210938 281.776367188 c 0
 475.116210938 245.8984375 466.732421875 212.932617188 449.73046875 183.887695312 c 0
 438.575195312 164.831054688 424.614257812 148.747070312 408.100585938 136.068359375 c 1xd4
216.186523438 280.830078125 m 0
 216.186523438 244.448242188 229.784179688 217.515625 270.051757812 217.515625 c 0
 288.282226562 217.515625 299.448242188 222.852539062 307.853515625 232.728515625 c 0
 316.5703125 242.971679688 322.02734375 258.155273438 322.02734375 280.830078125 c 0xe4
 322.02734375 309.669921875 313.038085938 344.145507812 270.052734375 344.145507812 c 0
 256.014648438 344.145507812 216.186523438 342.478515625 216.186523438 280.830078125 c 0
177.442382812 688.125 m 1024
EndSplineSet
EndChar

StartChar: dieresis
Encoding: 168 168 105
Width: 507
GlyphClass: 2
Flags: MW
HStem: 554.881 149.311<102.786 243.592 102.786 243.592 102.786 284.227 284.227 425.031>
VStem: 102.786 140.806<554.881 704.191 554.881 704.191> 284.227 140.805<554.881 704.191 554.881 704.191>
LayerCount: 2
Fore
SplineSet
102.786132812 704.19140625 m 1
 243.591796875 704.19140625 l 1
 243.591796875 554.880859375 l 1
 102.786132812 554.880859375 l 1
 102.786132812 704.19140625 l 1
284.2265625 704.19140625 m 1
 425.03125 704.19140625 l 1
 425.03125 554.880859375 l 1
 284.2265625 554.880859375 l 1
 284.2265625 704.19140625 l 1
EndSplineSet
EndChar

StartChar: copyright
Encoding: 169 169 106
Width: 780
GlyphClass: 2
Flags: MW
HStem: -8.33887 112.455<362.162 434.983 362.162 502.511> 140.026 115.289<394.103 419.891 394.103 451.708> 431.085 115.29<393.883 417.592> 583.231 111.51<362.179 434.966>
VStem: 55.5361 116.237<305 381.4 305 449.2> 236.03 123.795<310.125 311.07 311.07 375.33 298.233 376.275 298.233 403.351> 440.15 120.96<288.391 312.016 244.762 312.016 372.495 396.12 396.12 398.955 244.762 404.684> 625.371 116.237<305 381.4>
LayerCount: 2
Fore
SplineSet
398.572265625 -8.3388671875 m 0
 190.669921875 -8.3388671875 55.5361328125 133.795898438 55.5361328125 343.201171875 c 0
 55.5361328125 555.19921875 191.130859375 694.741210938 398.572265625 694.741210938 c 0
 606.474609375 694.741210938 741.608398438 552.606445312 741.608398438 343.201171875 c 0
 741.608398438 133.770507812 606.450195312 -8.3388671875 398.572265625 -8.3388671875 c 0
625.37109375 343.201171875 m 0
 625.37109375 419.598632812 604.713867188 477.358398438 565.073242188 519.56640625 c 0
 525.600585938 561.594726562 471.359375 583.231445312 398.572265625 583.231445312 c 0
 325.78515625 583.231445312 271.543945312 561.594726562 232.071289062 519.56640625 c 0
 192.430664062 477.358398438 171.7734375 419.598632812 171.7734375 343.201171875 c 0
 171.7734375 266.798828125 192.431640625 209.23046875 232.025390625 167.357421875 c 0
 271.484375 125.626953125 325.750976562 104.116210938 398.572265625 104.116210938 c 0
 471.393554688 104.116210938 525.66015625 125.626953125 565.119140625 167.357421875 c 0
 604.712890625 209.23046875 625.37109375 266.798828125 625.37109375 343.201171875 c 0
561.110351562 287.4453125 m 2
 561.110351562 202.079101562 502.956054688 140.026367188 400.459960938 140.026367188 c 0
 352.163085938 140.026367188 311.322265625 153.352539062 281.04296875 181.787109375 c 0
 249.711914062 211.208007812 236.030273438 255.422851562 236.030273438 310.125 c 2
 236.030273438 376.275390625 l 2
 236.030273438 430.42578125 249.780273438 474.40625 280.948242188 504.0546875 c 0
 311.213867188 532.842773438 352.108398438 546.375 400.459960938 546.375 c 0
 447.897460938 546.375 487.833007812 534.034179688 517.297851562 507.1796875 c 0
 546.831054688 480.263671875 561.110351562 442.888671875 561.110351562 398.955078125 c 2
 561.110351562 372.495117188 l 1
 440.150390625 372.495117188 l 1
 440.150390625 396.120117188 l 2
 440.150390625 413.248046875 432.833007812 431.084960938 402.350585938 431.084960938 c 0
 385.416015625 431.084960938 359.825195312 428.727539062 359.825195312 375.330078125 c 2
 359.825195312 311.0703125 l 2
 359.825195312 285.395507812 365.405273438 271.466796875 370.47265625 266.1015625 c 0
 376.555664062 259.66015625 385.85546875 255.315429688 402.350585938 255.315429688 c 0
 437.431640625 255.315429688 440.150390625 275.3828125 440.150390625 288.390625 c 2
 440.150390625 312.015625 l 1
 561.110351562 312.015625 l 1
 561.110351562 287.4453125 l 2
EndSplineSet
EndChar

StartChar: ordfeminine
Encoding: 170 170 107
Width: 366
GlyphClass: 2
Flags: MW
HStem: 402.737 108.675<172.244 173.065> 528.422 96.3906<176.965 182.166 182.166 207.413>
VStem: 42.3057 289.171<501.479 528.287>
LayerCount: 2
Fore
SplineSet
186.890625 746.716796875 m 0
 238.782226562 746.716796875 331.4765625 731.053710938 331.4765625 619.142578125 c 2
 331.4765625 406.517578125 l 1
 210.516601562 406.517578125 l 1
 210.516601562 412.015625 l 1
 199.630859375 406.990234375 184.75390625 402.737304688 161.375976562 402.737304688 c 0
 126.796875 402.737304688 96.7861328125 412.73046875 74.708984375 434.413085938 c 0
 52.8056640625 455.924804688 42.3056640625 484.931640625 42.3056640625 518.02734375 c 0
 42.3056640625 538.545898438 48.322265625 586.698242188 101.509765625 611.58203125 c 1
 50.810546875 611.58203125 l 1
 50.810546875 633.317382812 l 2
 50.810546875 699.146484375 98.2900390625 746.716796875 186.890625 746.716796875 c 0
207.672851562 624.8125 m 1
 207.512695312 634.899414062 206.008789062 642.767578125 185.9453125 642.767578125 c 0
 177.659179688 642.767578125 173.594726562 640.85546875 171.486328125 639.1484375 c 0
 169.411132812 637.46875 168.935546875 636.821289062 168.935546875 633.317382812 c 2
 168.935546875 624.8125 l 1
 207.672851562 624.8125 l 1
163.266601562 520.862304688 m 0
 163.266601562 517.706054688 163.266601562 511.412109375 181.221679688 511.412109375 c 0
 195.196289062 511.412109375 201.306640625 514.734375 202.947265625 516.303710938 c 0
 204.489257812 517.778320312 206.661132812 521.073242188 207.413085938 528.421875 c 1
 182.166015625 528.421875 l 2
 171.764648438 528.421875 164.65625 526.245117188 163.798828125 524.395507812 c 0
 163.639648438 524.052734375 163.266601562 523.040039062 163.266601562 520.862304688 c 0
185.000976562 820.427734375 m 1024
EndSplineSet
EndChar

StartChar: guillemotleft
Encoding: 171 171 108
Width: 531
GlyphClass: 2
Flags: W
LayerCount: 2
Fore
SplineSet
278.556640625 532.060546875 m 1
 278.556640625 352.057617188 l 1
 196.850585938 269.491210938 l 1
 278.556640625 186.924804688 l 1
 278.556640625 6.921875 l 1
 17.1435546875 269.491210938 l 1
 278.556640625 532.060546875 l 1
493.071289062 531.911132812 m 1
 493.071289062 351.997070312 l 1
 410.565429688 269.491210938 l 1
 493.071289062 186.986328125 l 1
 493.071289062 7.072265625 l 1
 230.651367188 269.491210938 l 1
 493.071289062 531.911132812 l 1
EndSplineSet
EndChar

StartChar: logicalnot
Encoding: 172 172 109
Width: 535
GlyphClass: 2
Flags: MW
HStem: 240.196 144.585<55.5361 343.762 55.5361 499.687>
VStem: 343.762 155.925<113.566 240.196 240.196 240.196>
LayerCount: 2
Fore
SplineSet
343.76171875 240.196289062 m 1
 55.5361328125 240.196289062 l 1
 55.5361328125 384.78125 l 1
 499.686523438 384.78125 l 1
 499.686523438 113.56640625 l 1
 343.76171875 113.56640625 l 1
 343.76171875 240.196289062 l 1
EndSplineSet
EndChar

StartChar: uni00AD
Encoding: 173 173 110
Width: 378
GlyphClass: 2
Flags: MW
HStem: 272.326 148.365<50.8115 350.376 50.8115 350.376>
VStem: 50.8115 299.564<272.326 420.691 272.326 420.691>
LayerCount: 2
Fore
SplineSet
50.8115234375 420.69140625 m 1
 350.375976562 420.69140625 l 1
 350.375976562 272.326171875 l 1
 50.8115234375 272.326171875 l 1
 50.8115234375 420.69140625 l 1
EndSplineSet
EndChar

StartChar: registered
Encoding: 174 174 111
Width: 502
GlyphClass: 2
Flags: MW
HStem: 291.227 77.4893<243.681 279.77 243.681 319.725> 615.36 77.4902<243.649 279.441>
VStem: 64.041 79.3789<473.489 511.535 473.489 550.255> 379.67 80.3262<473.459 511.535>
LayerCount: 2
Fore
SplineSet
261.545898438 291.2265625 m 0
 144.150390625 291.2265625 64.041015625 381.76953125 64.041015625 492.510742188 c 0
 64.041015625 607.999023438 150.095703125 692.850585938 261.545898438 692.850585938 c 0
 379.547851562 692.850585938 459.99609375 602.111328125 459.99609375 492.51171875 c 0
 459.99609375 379.85546875 377.904296875 291.2265625 261.545898438 291.2265625 c 0
379.669921875 492.510742188 m 0
 379.669921875 530.55859375 368.4453125 559.249023438 346.571289062 581.657226562 c 0
 324.625976562 604.138671875 297.337890625 615.360351562 261.544921875 615.360351562 c 0
 225.752929688 615.360351562 198.46484375 604.138671875 176.51953125 581.657226562 c 0
 154.645507812 559.249023438 143.419921875 530.55859375 143.419921875 492.510742188 c 0
 143.419921875 454.466796875 154.649414062 425.5625 176.6015625 402.806640625 c 0
 198.568359375 380.036132812 225.81640625 368.715820312 261.544921875 368.715820312 c 0
 297.994140625 368.715820312 325.318359375 380.095703125 346.876953125 402.717773438 c 0
 368.545898438 425.45703125 379.669921875 454.407226562 379.669921875 492.510742188 c 0
364.55078125 531.255859375 m 0
 364.55078125 509.487304688 358.03125 485.369140625 335.362304688 467.318359375 c 1
 381.208984375 373.440429688 l 1
 283.95703125 373.440429688 l 1
 257.765625 428.655273438 l 1
 257.765625 373.440429688 l 1
 168.935546875 373.440429688 l 1
 168.935546875 613.470703125 l 1
 271.940429688 613.470703125 l 2
 298.149414062 613.470703125 321.236328125 607.485351562 338.6484375 592.684570312 c 0
 356.40625 577.5859375 364.55078125 555.600585938 364.55078125 531.255859375 c 0
257.765625 528.420898438 m 1
 269.10546875 528.420898438 l 2
 272.408203125 528.420898438 274.5703125 528.848632812 275.66796875 529.161132812 c 0
 275.698242188 529.46484375 275.720703125 529.845703125 275.720703125 530.310546875 c 0
 275.720703125 530.791015625 275.697265625 531.18359375 275.665039062 531.493164062 c 0
 274.663085938 531.797851562 272.666015625 532.200195312 269.10546875 532.200195312 c 2
 257.765625 532.200195312 l 1
 257.765625 528.420898438 l 1
EndSplineSet
EndChar

StartChar: macron
Encoding: 175 175 112
Width: 507
GlyphClass: 2
Flags: MW
HStem: 557.717 143.64<111.291 417.472 111.291 417.472>
VStem: 111.291 306.181<557.717 701.356 557.717 701.356>
LayerCount: 2
Fore
SplineSet
111.291015625 701.356445312 m 1
 417.471679688 701.356445312 l 1
 417.471679688 557.716796875 l 1
 111.291015625 557.716796875 l 1
 111.291015625 701.356445312 l 1
EndSplineSet
EndChar

StartChar: degree
Encoding: 176 176 113
Width: 406
GlyphClass: 2
Flags: MW
HStem: 384.781 110.566<206.742 221.369 206.742 260.515> 591.736 110.565<206.742 221.369>
VStem: 55.5352 113.399<535.468 551.612 535.468 589.759> 259.655 113.4<535.936 551.149>
LayerCount: 2
Fore
SplineSet
373.055664062 543.541992188 m 0
 373.055664062 455.966796875 306.734375 384.78125 214.295898438 384.78125 c 0
 169.986328125 384.78125 131.260742188 400.067382812 101.041992188 430.286132812 c 0
 70.822265625 460.505859375 55.53515625 499.231445312 55.53515625 543.541992188 c 0
 55.53515625 635.9765625 126.717773438 702.301757812 214.295898438 702.301757812 c 0
 303.538085938 702.301757812 373.055664062 632.78125 373.055664062 543.541992188 c 0
259.655273438 543.541015625 m 0
 259.655273438 558.7578125 255.301757812 569.489257812 246.6953125 578.53515625 c 0
 238.186523438 587.481445312 228.442382812 591.736328125 214.294921875 591.736328125 c 0
 199.189453125 591.736328125 189.381835938 587.385742188 181.431640625 579.018554688 c 0
 173.35546875 570.515625 168.934570312 559.682617188 168.934570312 543.541015625 c 0
 168.934570312 527.395507812 173.358398438 516.5625 181.430664062 508.06640625 c 0
 189.380859375 499.698242188 199.189453125 495.34765625 214.294921875 495.34765625 c 0
 228.442382812 495.34765625 238.184570312 499.600585938 246.694335938 508.546875 c 0
 255.3046875 517.599609375 259.655273438 528.330078125 259.655273438 543.541015625 c 0
EndSplineSet
EndChar

StartChar: plusminus
Encoding: 177 177 114
Width: 535
GlyphClass: 2
Flags: MW
HStem: -33.8535 147.42<53.6465 502.521 53.6465 502.521> 265.711 147.42<53.6465 204.847 53.6465 204.847 352.267 502.521>
VStem: 204.847 147.42<114.512 265.711 114.512 265.711 413.131 564.331>
LayerCount: 2
Fore
SplineSet
352.266601562 265.7109375 m 1
 352.266601562 114.51171875 l 1
 204.846679688 114.51171875 l 1
 204.846679688 265.7109375 l 1
 53.646484375 265.7109375 l 1
 53.646484375 413.130859375 l 1
 204.846679688 413.130859375 l 1
 204.846679688 564.331054688 l 1
 352.266601562 564.331054688 l 1
 352.266601562 413.130859375 l 1
 502.521484375 413.130859375 l 1
 502.521484375 265.7109375 l 1
 352.266601562 265.7109375 l 1
53.646484375 113.56640625 m 1
 502.521484375 113.56640625 l 1
 502.521484375 -33.853515625 l 1
 53.646484375 -33.853515625 l 1
 53.646484375 113.56640625 l 1
EndSplineSet
EndChar

StartChar: uni00B2
Encoding: 178 178 115
Width: 360
GlyphClass: 2
Flags: MW
HStem: 406.517 123.795<234.305 337.146 234.305 337.146>
VStem: 49.8662 287.28<406.517 508.926 508.926 508.926>
LayerCount: 2
Fore
SplineSet
47.03125 718.366210938 m 2
 47.03125 788.169921875 96.64453125 848.776367188 193.505859375 848.776367188 c 0
 234.54296875 848.776367188 270.01171875 836.625 296.901367188 811.229492188 c 0
 323.189453125 786.401367188 337.146484375 754.852539062 337.146484375 719.311523438 c 2
 337.146484375 708.916015625 l 2
 337.146484375 677.84375 329.494140625 646.283203125 294.827148438 604.6484375 c 2
 234.3046875 530.311523438 l 1
 337.146484375 530.311523438 l 1
 337.146484375 406.516601562 l 1
 49.8662109375 406.516601562 l 1
 49.8662109375 508.92578125 l 1
 183.671875 675.938476562 l 2
 194.606445312 689.608398438 198.231445312 700.344726562 198.231445312 707.971679688 c 2
 198.231445312 714.5859375 l 2
 198.231445312 727.81640625 192.846679688 727.81640625 188.78125 727.81640625 c 0
 184.956054688 727.81640625 184.634765625 727.25390625 183.49609375 725.829101562 c 0
 182.033203125 724.000976562 180.276367188 720.356445312 180.276367188 712.696289062 c 2
 180.276367188 684.346679688 l 1
 47.03125 684.346679688 l 1
 47.03125 718.366210938 l 2
EndSplineSet
EndChar

StartChar: uni00B3
Encoding: 179 179 116
Width: 355
GlyphClass: 2
Flags: MW
VStem: 43.251 127.575<527.501 531.259 531.259 560.554 527.501 560.554> 199.177 133.244<537.874 546.379 546.379 548.267 494.772 556.354>
LayerCount: 2
Fore
SplineSet
332.420898438 537.87109375 m 2
 332.420898438 451.673828125 268.572265625 399.901367188 188.78125 399.901367188 c 0
 145.609375 399.901367188 109.505859375 409.625976562 82.94140625 431.955078125 c 0
 55.982421875 454.615234375 43.2509765625 487.68359375 43.2509765625 526.534179688 c 2
 43.2509765625 560.553710938 l 1
 170.826171875 560.553710938 l 1
 170.826171875 531.258789062 l 2
 170.826171875 523.744140625 172.561523438 522.913085938 173.28125 522.399414062 c 0
 174.354492188 521.6328125 178.08203125 519.918945312 185.946289062 519.918945312 c 0
 190.408203125 519.918945312 199.176757812 520.010742188 199.176757812 537.874023438 c 2
 199.176757812 546.37890625 l 2
 199.176757812 566.328125 191.5078125 569.059570312 178.38671875 569.059570312 c 2
 138.696289062 569.059570312 l 1
 138.696289062 688.12890625 l 1
 45.1416015625 688.12890625 l 1
 45.1416015625 717.423828125 l 2
 45.1416015625 756.763671875 57.5341796875 790.400390625 83.7529296875 814.305664062 c 0
 109.806640625 838.059570312 145.180664062 848.779296875 186.892578125 848.779296875 c 0
 227.48828125 848.779296875 262.131835938 837.936523438 287.775390625 814.206054688 c 0
 313.295898438 790.588867188 325.806640625 758.369140625 325.806640625 721.203125 c 2
 325.806640625 712.698242188 l 2
 325.806640625 686.853515625 318.62109375 660.413085938 297.31640625 638.809570312 c 1
 310.670898438 626.938476562 332.420898438 599.704101562 332.420898438 548.266601562 c 2
 332.420898438 537.87109375 l 2
177.44140625 689.07421875 m 2
 187.13671875 689.07421875 192.561523438 691.479492188 192.561523438 705.138671875 c 2
 192.561523438 712.69921875 l 2
 192.561523438 720.717773438 190.875 724.721679688 190.123046875 725.84375 c 0
 189.6796875 726.505859375 189.544921875 727.819335938 183.111328125 727.819335938 c 0
 176.506835938 727.819335938 173.885742188 726.325195312 173.45703125 726.00390625 c 0
 173.434570312 725.987304688 171.771484375 725.473632812 171.771484375 718.369140625 c 2
 171.771484375 689.07421875 l 1
 177.44140625 689.07421875 l 2
EndSplineSet
EndChar

StartChar: acute
Encoding: 180 180 117
Width: 507
GlyphClass: 2
Flags: MW
HStem: 555.826 165.375<240.762 257.262 106.472 428.854>
VStem: 106.472 322.383<555.826 721.201>
LayerCount: 2
Fore
SplineSet
240.76171875 721.201171875 m 1
 428.854492188 721.201171875 l 1
 257.26171875 555.826171875 l 1
 106.471679688 555.826171875 l 1
 240.76171875 721.201171875 l 1
EndSplineSet
EndChar

StartChar: uni00B5
Encoding: 181 181 118
Width: 526
GlyphClass: 2
Flags: MW
HStem: -5.50391 143.641<248.841 270.574>
VStem: 59.3164 156.868<197.715 205.231 205.231 531.256> 331.476 156.87<205.231 531.256 0.166016 531.256>
LayerCount: 2
Fore
SplineSet
216.184570312 205.231445312 m 2
 216.184570312 190.198242188 217.73828125 138.13671875 272.885742188 138.13671875 c 0
 290.948242188 138.13671875 303.940429688 143.623046875 314.935546875 154.8515625 c 0
 325.194335938 165.328125 331.475585938 180.97265625 331.475585938 205.231445312 c 2
 331.475585938 531.255859375 l 1
 488.345703125 531.255859375 l 1
 488.345703125 0.166015625 l 1
 334.310546875 0.166015625 l 1
 334.310546875 17.7333984375 l 1
 311.748046875 2.42578125 285.272460938 -5.50390625 255.875 -5.50390625 c 0
 241.807617188 -5.50390625 228.212890625 -3.6748046875 215.241210938 -0.0087890625 c 1
 215.241210938 -147.25390625 l 1
 59.31640625 -147.25390625 l 1
 59.31640625 531.255859375 l 1
 216.184570312 531.255859375 l 1
 216.184570312 205.231445312 l 2
EndSplineSet
EndChar

StartChar: paragraph
Encoding: 182 182 119
Width: 645
GlyphClass: 2
Flags: MW
HStem: 671.906 20G<298.401 572.451 572.451 572.451>
VStem: 64.041 329.806<406.45 524.575> 250.206 143.641<-147.254 241.243 241.243 241.243> 431.646 140.805<-147.254 557.717 557.717 557.717>
LayerCount: 2
Fore
SplineSet
64.041015625 466.051757812 m 0xd0
 64.041015625 583.098632812 143.475585938 691.90625 298.401367188 691.90625 c 2
 572.451171875 691.90625 l 1
 572.451171875 -147.25390625 l 1
 431.646484375 -147.25390625 l 1
 431.646484375 557.716796875 l 1
 393.846679688 557.716796875 l 1
 393.846679688 -147.25390625 l 1
 250.206054688 -147.25390625 l 1
 250.206054688 241.243164062 l 1xb0
 140.283203125 256.94921875 64.041015625 346.848632812 64.041015625 466.051757812 c 0xd0
EndSplineSet
EndChar

StartChar: periodcentered
Encoding: 183 183 120
Width: 234
GlyphClass: 2
Flags: MW
HStem: 196.727 173.88<44.1963 215.241 44.1963 215.241>
VStem: 44.1963 171.045<196.727 370.606 196.727 370.606>
LayerCount: 2
Fore
SplineSet
44.1962890625 370.606445312 m 1
 215.241210938 370.606445312 l 1
 215.241210938 196.7265625 l 1
 44.1962890625 196.7265625 l 1
 44.1962890625 370.606445312 l 1
EndSplineSet
EndChar

StartChar: cedilla
Encoding: 184 184 121
Width: 507
GlyphClass: 2
Flags: MW
HStem: -147.254 199.396<227.42 297.859 146.01 360.392>
VStem: 146.01 214.382<-147.254 52.1416>
LayerCount: 2
Fore
SplineSet
227.419921875 52.1416015625 m 1
 360.391601562 52.1416015625 l 1
 297.859375 -147.25390625 l 1
 146.009765625 -147.25390625 l 1
 227.419921875 52.1416015625 l 1
EndSplineSet
EndChar

StartChar: uni00B9
Encoding: 185 185 122
Width: 271
GlyphClass: 2
Flags: MW
VStem: 99.9512 137.025<406.517 678.18 678.18 678.18>
LayerCount: 2
Fore
SplineSet
35.69140625 632.819335938 m 1
 35.69140625 785.190429688 l 1
 114.310546875 842.161132812 l 1
 236.9765625 842.161132812 l 1
 236.9765625 406.516601562 l 1
 99.951171875 406.516601562 l 1
 99.951171875 678.1796875 l 1
 35.69140625 632.819335938 l 1
EndSplineSet
EndChar

StartChar: ordmasculine
Encoding: 186 186 123
Width: 368
GlyphClass: 2
Flags: MW
VStem: 48.9209 123.796<548.268 548.269 548.269 601.188 533.148 602.132 533.148 624.925> 218.076 124.74<548.269 601.188 601.188 602.131 525.496 616.308>
LayerCount: 2
Fore
SplineSet
196.341796875 402.736328125 m 0
 151.208984375 402.736328125 48.9208984375 417.194335938 48.9208984375 548.267578125 c 2
 48.9208984375 602.131835938 l 2
 48.9208984375 647.717773438 61.3466796875 685.481445312 89.49609375 710.892578125 c 0
 116.7109375 735.461914062 153.291992188 746.716796875 196.341796875 746.716796875 c 0
 232.356445312 746.716796875 342.81640625 738.716796875 342.81640625 602.130859375 c 2
 342.81640625 548.266601562 l 2
 342.81640625 502.724609375 330.599609375 464.952148438 302.928710938 439.23046875 c 0
 275.997070312 414.1953125 239.439453125 402.736328125 196.341796875 402.736328125 c 0
195.396484375 518.028320312 m 0
 204.825195312 518.028320312 218.076171875 518.028320312 218.076171875 548.268554688 c 2
 218.076171875 601.188476562 l 2
 218.076171875 631.427734375 204.825195312 631.427734375 195.396484375 631.427734375 c 0
 185.967773438 631.427734375 172.716796875 631.427734375 172.716796875 601.188476562 c 2
 172.716796875 548.268554688 l 2
 172.716796875 518.028320312 185.967773438 518.028320312 195.396484375 518.028320312 c 0
185.000976562 820.427734375 m 1024
EndSplineSet
EndChar

StartChar: guillemotright
Encoding: 187 187 124
Width: 531
GlyphClass: 2
Flags: W
LayerCount: 2
Fore
SplineSet
59.31640625 351.997070312 m 1
 59.31640625 531.911132812 l 1
 321.736328125 269.491210938 l 1
 59.31640625 7.072265625 l 1
 59.31640625 186.986328125 l 1
 141.821289062 269.491210938 l 1
 59.31640625 351.997070312 l 1
273.831054688 352.057617188 m 1
 273.831054688 532.060546875 l 1
 535.244140625 269.491210938 l 1
 273.831054688 6.921875 l 1
 273.831054688 186.924804688 l 1
 355.537109375 269.491210938 l 1
 273.831054688 352.057617188 l 1
EndSplineSet
EndChar

StartChar: onequarter
Encoding: 188 188 125
Width: 798
GlyphClass: 3
Flags: MW
HStem: 0.166016 21G<101.235 239.206 101.235 101.235 621.592 758.616 621.592 621.592> 671.906 21G
VStem: 99.9512 137.025<256.262 527.925 527.925 527.925> 621.592 137.024<0.166016 54.0312 0.166016 54.0312 177.826 192.102 192.102 192.102>
LayerCount: 2
Fore
SplineSet
35.69140625 482.564453125 m 1
 35.69140625 634.935546875 l 1
 114.310546875 691.90625 l 1
 236.9765625 691.90625 l 1
 236.9765625 256.26171875 l 1
 99.951171875 256.26171875 l 1
 99.951171875 527.924804688 l 1
 35.69140625 482.564453125 l 1
758.616210938 177.826171875 m 1
 784.130859375 177.826171875 l 1
 784.130859375 54.03125 l 1
 758.616210938 54.03125 l 1
 758.616210938 0.166015625 l 1
 621.591796875 0.166015625 l 1
 621.591796875 54.03125 l 1
 468.500976562 54.03125 l 1
 468.500976562 161.998046875 l 1
 583.84375 435.811523438 l 1
 724.252929688 435.811523438 l 1
 650.608398438 260.986328125 l 1
 758.616210938 260.986328125 l 1
 758.616210938 177.826171875 l 1
621.591796875 177.826171875 m 1
 621.591796875 192.1015625 l 1
 615.578125 177.826171875 l 1
 621.591796875 177.826171875 l 1
487.046875 696.630859375 m 1
 626.01953125 696.630859375 l 1
 239.206054688 0.166015625 l 1
 101.235351562 0.166015625 l 1
 487.046875 696.630859375 l 1
EndSplineSet
Ligature2: "'frac' Diagonal Fractions lookup 2 subtable" one slash four
EndChar

StartChar: onehalf
Encoding: 189 189 126
Width: 797
GlyphClass: 3
Flags: MW
HStem: 0.166016 123.795<666.17 769.012 666.17 769.012> 671.906 21G
VStem: 99.9512 137.025<256.262 527.925 527.925 527.925> 481.731 287.28<0.166016 102.576 102.576 102.576>
LayerCount: 2
Fore
SplineSet
35.69140625 482.564453125 m 1
 35.69140625 634.935546875 l 1
 114.310546875 691.90625 l 1
 236.9765625 691.90625 l 1
 236.9765625 256.26171875 l 1
 99.951171875 256.26171875 l 1
 99.951171875 527.924804688 l 1
 35.69140625 482.564453125 l 1
478.896484375 312.015625 m 2
 478.896484375 381.803710938 528.494140625 442.426757812 625.37109375 442.426757812 c 0
 666.408203125 442.426757812 701.876953125 430.275390625 728.766601562 404.87890625 c 0
 755.0546875 380.051757812 769.01171875 348.501953125 769.01171875 312.9609375 c 2
 769.01171875 302.56640625 l 2
 769.01171875 271.493164062 761.359375 239.932617188 726.69140625 198.297851562 c 2
 666.169921875 123.9609375 l 1
 769.01171875 123.9609375 l 1
 769.01171875 0.166015625 l 1
 481.731445312 0.166015625 l 1
 481.731445312 102.576171875 l 1
 615.537109375 269.586914062 l 2
 626.470703125 283.254882812 630.096679688 293.990234375 630.096679688 301.620117188 c 2
 630.096679688 308.235351562 l 2
 630.096679688 321.465820312 624.711914062 321.465820312 620.646484375 321.465820312 c 0
 616.805664062 321.465820312 616.485351562 320.88671875 615.360351562 319.478515625 c 0
 613.8984375 317.650390625 612.141601562 314.004882812 612.141601562 306.345703125 c 2
 612.141601562 277.995117188 l 1
 478.896484375 277.995117188 l 1
 478.896484375 312.015625 l 2
487.046875 696.629882812 m 1
 626.01953125 696.629882812 l 1
 239.206054688 0.1640625 l 1
 101.235351562 0.1640625 l 1
 487.046875 696.629882812 l 1
EndSplineSet
Ligature2: "'frac' Diagonal Fractions lookup 2 subtable" one slash two
EndChar

StartChar: threequarters
Encoding: 190 190 127
Width: 883
GlyphClass: 3
Flags: MW
HStem: 0.166992 21G<184.396 322.365 184.396 184.396 704.751 841.776 704.751 704.751> 678.522 20G<166.037 207.19>
VStem: 43.251 127.575<377.245 381.002 381.002 410.297 377.245 410.297> 199.177 133.244<387.617 396.122 396.122 398.012 344.517 406.097> 704.751 137.025<0.166992 54.0322 0.166992 54.0322 177.827 192.103 192.103 192.103>
LayerCount: 2
Fore
SplineSet
332.420898438 387.616210938 m 2
 332.420898438 301.41796875 268.572265625 249.646484375 188.78125 249.646484375 c 0
 145.609375 249.646484375 109.505859375 259.37109375 82.94140625 281.69921875 c 0
 55.9833984375 304.359375 43.2509765625 337.42578125 43.2509765625 376.27734375 c 2
 43.2509765625 410.296875 l 1
 170.826171875 410.296875 l 1
 170.826171875 381.001953125 l 2
 170.826171875 373.487304688 172.561523438 372.65625 173.28125 372.142578125 c 0
 174.354492188 371.375976562 178.08203125 369.662109375 185.946289062 369.662109375 c 0
 190.408203125 369.662109375 199.176757812 369.75390625 199.176757812 387.6171875 c 2
 199.176757812 396.122070312 l 2
 199.176757812 416.071289062 191.5078125 418.802734375 178.38671875 418.802734375 c 2
 138.696289062 418.802734375 l 1
 138.696289062 537.872070312 l 1
 45.1416015625 537.872070312 l 1
 45.1416015625 567.166992188 l 2
 45.1416015625 606.506835938 57.5341796875 640.143554688 83.7529296875 664.048828125 c 0
 109.806640625 687.802734375 145.180664062 698.522460938 186.892578125 698.522460938 c 0
 227.48828125 698.522460938 262.131835938 687.6796875 287.775390625 663.94921875 c 0
 313.295898438 640.33203125 325.806640625 608.112304688 325.806640625 570.946289062 c 2
 325.806640625 562.44140625 l 2
 325.806640625 536.596679688 318.62109375 510.15625 297.31640625 488.552734375 c 1
 310.671875 476.680664062 332.420898438 449.447265625 332.420898438 398.01171875 c 2
 332.420898438 387.616210938 l 2
177.44140625 538.817382812 m 2
 187.13671875 538.817382812 192.561523438 541.22265625 192.561523438 554.881835938 c 2
 192.561523438 562.442382812 l 2
 192.561523438 570.4609375 190.875 574.46484375 190.123046875 575.586914062 c 0
 189.6796875 576.249023438 189.544921875 577.5625 183.111328125 577.5625 c 0
 176.506835938 577.5625 173.885742188 576.068359375 173.45703125 575.747070312 c 0
 173.434570312 575.73046875 171.771484375 575.216796875 171.771484375 568.112304688 c 2
 171.771484375 538.817382812 l 1
 177.44140625 538.817382812 l 2
841.776367188 177.827148438 m 1
 867.291015625 177.827148438 l 1
 867.291015625 54.0322265625 l 1
 841.776367188 54.0322265625 l 1
 841.776367188 0.1669921875 l 1
 704.750976562 0.1669921875 l 1
 704.750976562 54.0322265625 l 1
 551.661132812 54.0322265625 l 1
 551.661132812 161.999023438 l 1
 667.00390625 435.8125 l 1
 807.413085938 435.8125 l 1
 733.768554688 260.987304688 l 1
 841.776367188 260.987304688 l 1
 841.776367188 177.827148438 l 1
704.750976562 177.827148438 m 1
 704.750976562 192.102539062 l 1
 698.73828125 177.827148438 l 1
 704.750976562 177.827148438 l 1
570.20703125 696.631835938 m 1
 709.1796875 696.631835938 l 1
 322.365234375 0.1669921875 l 1
 184.395507812 0.1669921875 l 1
 570.20703125 696.631835938 l 1
EndSplineSet
Ligature2: "'frac' Diagonal Fractions lookup 2 subtable" three slash four
EndChar

StartChar: questiondown
Encoding: 191 191 128
Width: 460
GlyphClass: 2
Flags: MW
HStem: -156.704 145.531<241.408 257.924 241.408 275.528> 368.717 162.539<166.102 328.642 166.102 328.642>
VStem: 40.417 160.649<12.7671 45.6855 12.7671 58.5244> 166.102 162.54<368.717 531.256 368.717 531.256>
LayerCount: 2
Fore
SplineSet
166.1015625 531.255859375 m 1xd0
 328.641601562 531.255859375 l 1
 328.641601562 368.716796875 l 1
 166.1015625 368.716796875 l 1
 166.1015625 531.255859375 l 1xd0
244.537109375 -156.704101562 m 0
 119.4609375 -156.704101562 40.4169921875 -76.390625 40.4169921875 28.5205078125 c 0
 40.4169921875 88.5283203125 59.03125 129.288085938 98.15234375 174.717773438 c 2
 139.650390625 222.817382812 l 2
 153.349609375 238.899414062 161.270507812 251.750976562 163.966796875 259.217773438 c 0
 166.892578125 267.318359375 168.936523438 280.375 168.936523438 297.844726562 c 2
 168.936523438 345.094726562 l 1
 325.806640625 345.094726562 l 1
 325.806640625 289.33984375 l 2
 325.806640625 225.622070312 314.201171875 199.2265625 274.748046875 153.606445312 c 0
 274.672851562 153.51953125 232.518554688 104.189453125 230.4140625 101.727539062 c 0
 207.140625 73.7744140625 201.06640625 56.2392578125 201.06640625 35.1318359375 c 0xe0
 201.06640625 -9.59765625 234.499023438 -11.1728515625 248.31640625 -11.1728515625 c 0
 267.53125 -11.1728515625 277.181640625 -6.0869140625 282.615234375 0.4990234375 c 0
 293.853515625 14.12109375 294.328125 33.111328125 295.111328125 64.427734375 c 1
 449.083007812 64.427734375 l 1
 448.651367188 44.1533203125 l 2
 447.321289062 -18.384765625 429.807617188 -69.2001953125 393.55859375 -104.725585938 c 0
 357.353515625 -140.20703125 306.51953125 -156.704101562 244.537109375 -156.704101562 c 0
EndSplineSet
EndChar

StartChar: Agrave
Encoding: 192 192 129
Width: 608
GlyphClass: 2
Flags: MW
HStem: 0.166016 21G<3.80176 3.80176 3.80176 176.902 451.085 451.085 451.085 625.169> 126.796 142.695<262.102 365.789 262.102 411.396 216.592 365.789> 671.906 20G<249.42 378.549 378.549 378.549>
AnchorPoint: "Anchor-0" 314 672 basechar 0
LayerCount: 2
Fore
SplineSet
3.8017578125 0.166015625 m 1
 249.419921875 691.90625 l 1
 378.548828125 691.90625 l 1
 625.168945312 0.166015625 l 1
 451.084960938 0.166015625 l 1
 411.395507812 126.795898438 l 1
 216.591796875 126.795898438 l 1
 176.90234375 0.166015625 l 1
 3.8017578125 0.166015625 l 1
262.1015625 269.491210938 m 1
 365.7890625 269.491210938 l 1
 313.634765625 434.024414062 l 1
 262.1015625 269.491210938 l 1
303.12109375 881.8515625 m 1
 437.411132812 716.4765625 l 1
 286.620117188 716.4765625 l 1
 115.028320312 881.8515625 l 1
 303.12109375 881.8515625 l 1
EndSplineSet
EndChar

StartChar: Aacute
Encoding: 193 193 130
Width: 608
GlyphClass: 2
Flags: MW
HStem: 0.166016 21G<3.80176 3.80176 3.80176 176.902 451.085 451.085 451.085 625.169> 126.796 142.695<262.102 365.789 262.102 411.396 216.592 365.789> 671.906 20G<249.42 378.549 378.549 378.549>
AnchorPoint: "Anchor-0" 314 672 basechar 0
LayerCount: 2
Fore
SplineSet
3.8017578125 0.166015625 m 1
 249.419921875 691.90625 l 1
 378.548828125 691.90625 l 1
 625.168945312 0.166015625 l 1
 451.084960938 0.166015625 l 1
 411.395507812 126.795898438 l 1
 216.591796875 126.795898438 l 1
 176.90234375 0.166015625 l 1
 3.8017578125 0.166015625 l 1
262.1015625 269.491210938 m 1
 365.7890625 269.491210938 l 1
 313.634765625 434.024414062 l 1
 262.1015625 269.491210938 l 1
319.196289062 881.8515625 m 1
 507.2890625 881.8515625 l 1
 335.697265625 716.4765625 l 1
 184.907226562 716.4765625 l 1
 319.196289062 881.8515625 l 1
EndSplineSet
EndChar

StartChar: Acircumflex
Encoding: 194 194 131
Width: 608
GlyphClass: 2
Flags: MW
HStem: 0.166016 21G<3.80176 3.80176 3.80176 176.902 451.085 451.085 451.085 625.169> 126.796 142.695<262.102 365.789 262.102 411.396 216.592 365.789> 671.906 20G<249.42 378.549 378.549 378.549>
AnchorPoint: "Anchor-0" 314 672 basechar 0
LayerCount: 2
Fore
SplineSet
3.8017578125 0.166015625 m 1
 249.419921875 691.90625 l 1
 378.548828125 691.90625 l 1
 625.168945312 0.166015625 l 1
 451.084960938 0.166015625 l 1
 411.395507812 126.795898438 l 1
 216.591796875 126.795898438 l 1
 176.90234375 0.166015625 l 1
 3.8017578125 0.166015625 l 1
262.1015625 269.491210938 m 1
 365.7890625 269.491210938 l 1
 313.634765625 434.024414062 l 1
 262.1015625 269.491210938 l 1
261.16796875 888.466796875 m 1
 366.819335938 888.466796875 l 1
 505.721679688 706.081054688 l 1
 364.524414062 706.081054688 l 1
 314.466796875 768.057617188 l 1
 264.408203125 706.081054688 l 1
 122.265625 706.081054688 l 1
 261.16796875 888.466796875 l 1
EndSplineSet
EndChar

StartChar: Atilde
Encoding: 195 195 132
Width: 608
GlyphClass: 2
Flags: MW
HStem: 0.166016 21G<3.80176 3.80176 3.80176 176.902 451.085 451.085 451.085 625.169> 126.796 142.695<262.102 365.789 262.102 411.396 216.592 365.789> 671.906 20G<249.42 378.549 378.549 378.549> 711.751 128.521<371.1 383.496 371.1 392.073> 747.66 128.521<245.643 269.275 235.912 270.601>
AnchorPoint: "Anchor-0" 314 672 basechar 0
LayerCount: 2
Fore
SplineSet
3.8017578125 0.166015625 m 1xe0
 249.419921875 691.90625 l 1
 378.548828125 691.90625 l 1
 625.168945312 0.166015625 l 1
 451.084960938 0.166015625 l 1
 411.395507812 126.795898438 l 1
 216.591796875 126.795898438 l 1
 176.90234375 0.166015625 l 1
 3.8017578125 0.166015625 l 1xe0
262.1015625 269.491210938 m 1
 365.7890625 269.491210938 l 1
 313.634765625 434.024414062 l 1
 262.1015625 269.491210938 l 1
371.165039062 711.750976562 m 0xf0
 313.572265625 711.750976562 288.16015625 747.66015625 253.041015625 747.66015625 c 0
 238.244140625 747.66015625 229.200195312 746.25 193.130859375 715.537109375 c 2
 160.431640625 687.693359375 l 1
 160.431640625 823.916015625 l 1
 191.499023438 854.983398438 215.002929688 876.181640625 256.8203125 876.181640625 c 0xe8
 281.729492188 876.181640625 299.2890625 871.762695312 333.205078125 854.029296875 c 0
 351.728515625 844.189453125 366.309570312 840.271484375 375.890625 840.271484375 c 0
 391.1015625 840.271484375 400.975585938 842.087890625 434.256835938 872.809570312 c 2
 467.555664062 903.547851562 l 1
 467.555664062 764.016601562 l 1
 436.486328125 732.948242188 412.981445312 711.750976562 371.165039062 711.750976562 c 0xf0
EndSplineSet
EndChar

StartChar: Adieresis
Encoding: 196 196 133
Width: 608
GlyphClass: 2
Flags: MW
HStem: 0.166016 21G<3.80176 3.80176 3.80176 176.902 451.085 451.085 451.085 625.169> 126.796 142.695<262.102 365.789 262.102 411.396 216.592 365.789> 671.906 20G<249.42 378.549 378.549 378.549> 715.531 149.311<152.871 293.677 152.871 293.677 152.871 334.312 334.312 475.116>
VStem: 152.871 140.806<715.531 864.842 715.531 864.842> 334.312 140.805<715.531 864.842 715.531 864.842>
AnchorPoint: "Anchor-0" 314 672 basechar 0
LayerCount: 2
Fore
SplineSet
3.8017578125 0.166015625 m 1
 249.419921875 691.90625 l 1
 378.548828125 691.90625 l 1
 625.168945312 0.166015625 l 1
 451.084960938 0.166015625 l 1
 411.395507812 126.795898438 l 1
 216.591796875 126.795898438 l 1
 176.90234375 0.166015625 l 1
 3.8017578125 0.166015625 l 1
262.1015625 269.491210938 m 1
 365.7890625 269.491210938 l 1
 313.634765625 434.024414062 l 1
 262.1015625 269.491210938 l 1
152.87109375 864.841796875 m 1
 293.676757812 864.841796875 l 1
 293.676757812 715.53125 l 1
 152.87109375 715.53125 l 1
 152.87109375 864.841796875 l 1
334.311523438 864.841796875 m 1
 475.116210938 864.841796875 l 1
 475.116210938 715.53125 l 1
 334.311523438 715.53125 l 1
 334.311523438 864.841796875 l 1
EndSplineSet
EndChar

StartChar: Aring
Encoding: 197 197 134
Width: 608
GlyphClass: 2
Flags: MW
HStem: 0.166016 21G<451.085 625.158 451.085 451.085> 126.797 142.695<262.103 365.79 262.103 411.396 216.593 365.79> 781.683 91.6641<311.558 319.265>
VStem: 198.231 93.5557<751.267 759.718 751.267 789.586> 339.982 92.6094<751.269 759.623>
AnchorPoint: "Anchor-0" 314 672 basechar 0
LayerCount: 2
Fore
SplineSet
432.591796875 755.221679688 m 0
 432.591796875 734.625 427.23828125 693.706054688 389.2265625 662.700195312 c 1
 625.158203125 0.166015625 l 1
 451.084960938 0.166015625 l 1
 411.395507812 126.796875 l 1
 216.592773438 126.796875 l 1
 176.903320312 0.1669921875 l 1
 3.802734375 0.1669921875 l 1
 239.818359375 664.862304688 l 1
 224.794921875 677.580078125 198.231445312 706.901367188 198.231445312 755.221679688 c 0
 198.231445312 823.950195312 249.5078125 873.346679688 315.411132812 873.346679688 c 0
 381.317382812 873.346679688 432.591796875 823.948242188 432.591796875 755.221679688 c 0
291.787109375 755.22265625 m 0
 291.787109375 747.311523438 293.96484375 742.06640625 298.981445312 736.866210938 c 0
 304.051757812 731.608398438 308.634765625 729.708007812 315.412109375 729.708007812 c 0
 323.118164062 729.708007812 327.924804688 731.823242188 332.78515625 736.864257812 c 0
 337.8046875 742.069335938 339.982421875 747.315429688 339.982421875 755.22265625 c 0
 339.982421875 764.0234375 337.612304688 769.520507812 332.78515625 774.526367188 c 0
 327.924804688 779.567382812 323.118164062 781.682617188 315.412109375 781.682617188 c 0
 307.704101562 781.682617188 303.233398438 779.606445312 298.770507812 774.799804688 c 0
 294.166015625 769.842773438 291.787109375 764.212890625 291.787109375 755.22265625 c 0
262.102539062 269.4921875 m 1
 365.790039062 269.4921875 l 1
 313.635742188 434.025390625 l 1
 262.102539062 269.4921875 l 1
314.466796875 657.887695312 m 1024
EndSplineSet
EndChar

StartChar: AE
Encoding: 198 198 135
Width: 874
GlyphClass: 2
Flags: MW
HStem: 0.166016 147.42<568.671 849.336 568.671 849.336> 133.411 142.695<307.183 404.241 307.183 404.241 238.181 404.241> 275.161 147.42<568.671 806.812 568.671 806.812> 544.486 147.42<568.671 849.336 568.671 568.671>
LayerCount: 2
Fore
SplineSet
0.0068359375 0.166015625 m 1x90
 340.864257812 691.90625 l 1
 849.3359375 691.90625 l 1
 849.3359375 544.486328125 l 1
 568.670898438 544.486328125 l 1
 568.670898438 422.581054688 l 1
 806.811523438 422.581054688 l 1
 806.811523438 275.161132812 l 1
 568.670898438 275.161132812 l 1
 568.670898438 147.5859375 l 1
 849.3359375 147.5859375 l 1
 849.3359375 0.166015625 l 1
 404.241210938 0.166015625 l 1xb0
 404.241210938 133.411132812 l 1
 238.180664062 133.411132812 l 1x50
 174.865234375 0.166015625 l 1
 0.0068359375 0.166015625 l 1x90
404.241210938 276.106445312 m 1x50
 404.241210938 479.497070312 l 1
 307.182617188 276.106445312 l 1
 404.241210938 276.106445312 l 1x50
EndSplineSet
EndChar

StartChar: Ccedilla
Encoding: 199 199 136
Width: 603
GlyphClass: 2
Flags: MW
HStem: -147.254 290.115<297.517 324.171 297.517 346.082 194.175 324.171> 552.991 148.365<295.684 329.355>
VStem: 55.5361 164.431<272.326 274.217 274.217 415.021 248.755 421.637 248.755 464.821> 404.241 161.595<228.856 229.802 229.802 256.262 198.549 256.262>
LayerCount: 2
Fore
SplineSet
55.5361328125 421.63671875 m 2
 55.5361328125 508.004882812 72.1533203125 701.356445312 314.466796875 701.356445312 c 0
 389.15625 701.356445312 451.201171875 681.325195312 497.796875 639.59765625 c 0
 544.875 597.438476562 567.7265625 537.896484375 567.7265625 465.106445312 c 2
 567.7265625 438.646484375 l 1
 404.244140625 438.646484375 l 1
 404.244140625 464.161132812 l 2
 404.244140625 493.713867188 396.069335938 514.430664062 381.118164062 529.626953125 c 0
 366.49609375 544.489257812 345.188476562 552.991210938 313.521484375 552.991210938 c 0
 277.845703125 552.991210938 256.413085938 542.526367188 243.086914062 524.290039062 c 0
 229.298828125 505.422851562 219.966796875 469.30078125 219.966796875 415.021484375 c 2
 219.966796875 274.216796875 l 2
 219.966796875 223.29296875 229.440429688 189.42578125 243.682617188 171.081054688 c 0
 257.587890625 153.169921875 279.622070312 142.861328125 315.411132812 142.861328125 c 0
 332.931640625 142.861328125 404.241210938 143.100585938 404.241210938 228.856445312 c 2
 404.241210938 256.26171875 l 1
 565.8359375 256.26171875 l 1
 565.8359375 229.801757812 l 2
 565.8359375 167.296875 550.08203125 114.744140625 516.893554688 74.494140625 c 0
 486.24609375 37.3251953125 444.002929688 12.9482421875 392.315429688 1.0791015625 c 1
 346.08203125 -147.25390625 l 1
 194.174804688 -147.25390625 l 1
 253.2109375 -3.0498046875 l 1
 147.689453125 14.521484375 55.5361328125 83.8291015625 55.5361328125 272.326171875 c 2
 55.5361328125 421.63671875 l 2
EndSplineSet
EndChar

StartChar: Egrave
Encoding: 200 200 137
Width: 537
GlyphClass: 2
Flags: MW
HStem: 0.166016 147.42<227.526 517.642 227.526 517.642> 275.161 147.42<227.526 475.116 227.526 475.116> 544.486 147.42<227.526 517.642 227.526 227.526>
VStem: 64.041 163.485<147.586 147.586 147.586 275.161 422.581 544.486>
AnchorPoint: "Anchor-0" 281 672 basechar 0
LayerCount: 2
Fore
SplineSet
227.526367188 147.5859375 m 1
 517.641601562 147.5859375 l 1
 517.641601562 0.166015625 l 1
 64.041015625 0.166015625 l 1
 64.041015625 691.90625 l 1
 517.641601562 691.90625 l 1
 517.641601562 544.486328125 l 1
 227.526367188 544.486328125 l 1
 227.526367188 422.581054688 l 1
 475.116210938 422.581054688 l 1
 475.116210938 275.161132812 l 1
 227.526367188 275.161132812 l 1
 227.526367188 147.5859375 l 1
81.953125 881.8515625 m 1
 270.046875 881.8515625 l 1
 404.3359375 716.4765625 l 1
 253.545898438 716.4765625 l 1
 81.953125 881.8515625 l 1
EndSplineSet
EndChar

StartChar: Eacute
Encoding: 201 201 138
Width: 537
GlyphClass: 2
Flags: MW
HStem: 0.166016 147.42<227.526 517.642 227.526 517.642> 275.161 147.42<227.526 475.116 227.526 475.116> 544.486 147.42<227.526 517.642 227.526 227.526>
VStem: 64.041 163.485<147.586 147.586 147.586 275.161 422.581 544.486>
AnchorPoint: "Anchor-0" 281 672 basechar 0
LayerCount: 2
Fore
SplineSet
227.526367188 147.5859375 m 1
 517.641601562 147.5859375 l 1
 517.641601562 0.166015625 l 1
 64.041015625 0.166015625 l 1
 64.041015625 691.90625 l 1
 517.641601562 691.90625 l 1
 517.641601562 544.486328125 l 1
 227.526367188 544.486328125 l 1
 227.526367188 422.581054688 l 1
 475.116210938 422.581054688 l 1
 475.116210938 275.161132812 l 1
 227.526367188 275.161132812 l 1
 227.526367188 147.5859375 l 1
286.12109375 881.8515625 m 1
 474.213867188 881.8515625 l 1
 302.622070312 716.4765625 l 1
 151.83203125 716.4765625 l 1
 286.12109375 881.8515625 l 1
EndSplineSet
EndChar

StartChar: Ecircumflex
Encoding: 202 202 139
Width: 537
GlyphClass: 2
Flags: MW
HStem: 0.166016 147.42<227.526 517.642 227.526 517.642> 275.161 147.42<227.526 475.116 227.526 475.116> 544.486 147.42<227.526 517.642 227.526 227.526>
VStem: 64.041 163.485<147.586 147.586 147.586 275.161 422.581 544.486>
AnchorPoint: "Anchor-0" 281 672 basechar 0
LayerCount: 2
Fore
SplineSet
227.526367188 147.5859375 m 1
 517.641601562 147.5859375 l 1
 517.641601562 0.166015625 l 1
 64.041015625 0.166015625 l 1
 64.041015625 691.90625 l 1
 517.641601562 691.90625 l 1
 517.641601562 544.486328125 l 1
 227.526367188 544.486328125 l 1
 227.526367188 422.581054688 l 1
 475.116210938 422.581054688 l 1
 475.116210938 275.161132812 l 1
 227.526367188 275.161132812 l 1
 227.526367188 147.5859375 l 1
228.09375 888.466796875 m 1
 333.744140625 888.466796875 l 1
 472.646484375 706.081054688 l 1
 331.44921875 706.081054688 l 1
 281.391601562 768.057617188 l 1
 231.333007812 706.081054688 l 1
 89.19140625 706.081054688 l 1
 228.09375 888.466796875 l 1
EndSplineSet
EndChar

StartChar: Edieresis
Encoding: 203 203 140
Width: 537
GlyphClass: 2
Flags: MW
HStem: 0.166016 147.42<227.526 517.642 227.526 517.642> 275.161 147.42<227.526 475.116 227.526 475.116> 544.486 147.42<227.526 517.642 227.526 227.526> 715.531 149.311<119.796 260.602 119.796 260.602 119.796 301.236 301.236 442.041>
VStem: 64.041 163.485<147.586 147.586 147.586 275.161 422.581 544.486> 119.796 140.806<715.531 864.842 715.531 864.842> 301.236 140.805<715.531 864.842 715.531 864.842>
AnchorPoint: "Anchor-0" 281 672 basechar 0
LayerCount: 2
Fore
SplineSet
227.526367188 147.5859375 m 1xfa
 517.641601562 147.5859375 l 1
 517.641601562 0.166015625 l 1
 64.041015625 0.166015625 l 1
 64.041015625 691.90625 l 1
 517.641601562 691.90625 l 1
 517.641601562 544.486328125 l 1
 227.526367188 544.486328125 l 1
 227.526367188 422.581054688 l 1
 475.116210938 422.581054688 l 1
 475.116210938 275.161132812 l 1
 227.526367188 275.161132812 l 1
 227.526367188 147.5859375 l 1xfa
119.795898438 864.841796875 m 1xf6
 260.6015625 864.841796875 l 1
 260.6015625 715.53125 l 1
 119.795898438 715.53125 l 1
 119.795898438 864.841796875 l 1xf6
301.236328125 864.841796875 m 1
 442.041015625 864.841796875 l 1
 442.041015625 715.53125 l 1
 301.236328125 715.53125 l 1
 301.236328125 864.841796875 l 1
EndSplineSet
EndChar

StartChar: Igrave
Encoding: 204 204 141
Width: 278
GlyphClass: 2
Flags: MW
HStem: 0.166016 21G<69.7109 233.196 69.7109 69.7109> 671.906 20G<69.7109 233.196 233.196 233.196>
VStem: 69.7109 163.485<0.166016 691.906 0.166016 691.906>
AnchorPoint: "Anchor-0" 150 672 basechar 0
LayerCount: 2
Fore
SplineSet
69.7109375 691.90625 m 1
 233.196289062 691.90625 l 1
 233.196289062 0.166015625 l 1
 69.7109375 0.166015625 l 1
 69.7109375 691.90625 l 1
-48.45703125 881.8515625 m 1
 139.63671875 881.8515625 l 1
 273.92578125 716.4765625 l 1
 123.135742188 716.4765625 l 1
 -48.45703125 881.8515625 l 1
EndSplineSet
EndChar

StartChar: Iacute
Encoding: 205 205 142
Width: 278
GlyphClass: 2
Flags: MW
HStem: 0.166016 21G<69.7109 233.196 69.7109 69.7109> 671.906 20G<69.7109 233.196 233.196 233.196>
VStem: 69.7109 163.485<0.166016 691.906 0.166016 691.906>
AnchorPoint: "Anchor-0" 150 672 basechar 0
LayerCount: 2
Fore
SplineSet
69.7109375 691.90625 m 1
 233.196289062 691.90625 l 1
 233.196289062 0.166015625 l 1
 69.7109375 0.166015625 l 1
 69.7109375 691.90625 l 1
155.7109375 881.8515625 m 1
 343.8046875 881.8515625 l 1
 172.211914062 716.4765625 l 1
 21.421875 716.4765625 l 1
 155.7109375 881.8515625 l 1
EndSplineSet
EndChar

StartChar: Icircumflex
Encoding: 206 206 143
Width: 278
GlyphClass: 2
Flags: MW
HStem: 0.166016 21G<69.7109 233.196 69.7109 69.7109> 671.906 20G<69.7109 233.196 233.196 233.196>
VStem: 69.7109 163.485<0.166016 691.906 0.166016 691.906>
AnchorPoint: "Anchor-0" 150 672 basechar 0
LayerCount: 2
Fore
SplineSet
69.7109375 691.90625 m 1
 233.196289062 691.90625 l 1
 233.196289062 0.166015625 l 1
 69.7109375 0.166015625 l 1
 69.7109375 691.90625 l 1
97.68359375 888.466796875 m 1
 203.333984375 888.466796875 l 1
 342.236328125 706.081054688 l 1
 201.0390625 706.081054688 l 1
 150.981445312 768.057617188 l 1
 100.923828125 706.081054688 l 1
 -41.21875 706.081054688 l 1
 97.68359375 888.466796875 l 1
EndSplineSet
EndChar

StartChar: Idieresis
Encoding: 207 207 144
Width: 278
GlyphClass: 2
Flags: MW
HStem: 0.166016 21G<69.7109 233.196 69.7109 69.7109> 671.906 20G<69.7109 233.196 233.196 233.196> 715.531 149.311<-10.6133 130.191 -10.6133 130.191 -10.6133 170.826 170.826 311.631>
VStem: -10.6133 140.805<715.531 864.842 715.531 864.842> 69.7109 163.485<0.166016 691.906 0.166016 691.906> 170.826 140.805<715.531 864.842 715.531 864.842>
AnchorPoint: "Anchor-0" 150 672 basechar 0
LayerCount: 2
Fore
SplineSet
69.7109375 691.90625 m 1xe8
 233.196289062 691.90625 l 1
 233.196289062 0.166015625 l 1
 69.7109375 0.166015625 l 1
 69.7109375 691.90625 l 1xe8
-10.61328125 864.841796875 m 1xf0
 130.19140625 864.841796875 l 1
 130.19140625 715.53125 l 1
 -10.61328125 715.53125 l 1
 -10.61328125 864.841796875 l 1xf0
170.826171875 864.841796875 m 1xe4
 311.630859375 864.841796875 l 1
 311.630859375 715.53125 l 1
 170.826171875 715.53125 l 1
 170.826171875 864.841796875 l 1xe4
EndSplineSet
EndChar

StartChar: Eth
Encoding: 208 208 145
Width: 634
GlyphClass: 2
Flags: MW
HStem: 0.166016 147.42<257.766 339.981> 277.996 148.365<33.8018 94.2812 33.8018 94.2812 257.766 369.275> 544.486 147.42<257.766 342.815 257.766 257.766>
VStem: 94.2812 163.484<147.586 277.996 147.586 277.996 147.586 277.996 426.361 544.486> 434.48 163.485<280.831 406.517 406.517 413.131 232.546 433.302>
LayerCount: 2
Fore
SplineSet
597.965820312 413.130859375 m 2
 597.965820312 279.88671875 l 2
 597.965820312 185.205078125 576.109375 112.662109375 527.51171875 66.5654296875 c 0
 480.297851562 21.78125 416.74609375 0.166015625 339.981445312 0.166015625 c 2
 94.28125 0.166015625 l 1
 94.28125 277.99609375 l 1
 33.8017578125 277.99609375 l 1
 33.8017578125 426.361328125 l 1
 94.28125 426.361328125 l 1
 94.28125 691.90625 l 1
 343.76171875 691.90625 l 2
 419.891601562 691.90625 482.7265625 670.448242188 529.03515625 625.87890625 c 0
 576.668945312 580.03515625 597.965820312 507.7265625 597.965820312 413.130859375 c 2
342.815429688 147.5859375 m 2
 388.044921875 147.5859375 434.48046875 164.87890625 434.48046875 280.831054688 c 2
 434.48046875 406.516601562 l 2
 434.48046875 460.086914062 425.071289062 495.994140625 410.9140625 515.27734375 c 0
 396.99609375 534.233398438 376.190429688 544.486328125 342.815429688 544.486328125 c 2
 257.765625 544.486328125 l 1
 257.765625 426.361328125 l 1
 369.275390625 426.361328125 l 1
 369.275390625 277.99609375 l 1
 257.765625 277.99609375 l 1
 257.765625 147.5859375 l 1
 342.815429688 147.5859375 l 2
EndSplineSet
EndChar

StartChar: Ntilde
Encoding: 209 209 146
Width: 636
GlyphClass: 2
Flags: MW
HStem: 0.166016 21G<64.041 227.526 64.041 64.041 436.372 591.352 436.372 436.372> 671.906 20G<64.041 219.034 219.034 219.034 427.866 591.352 591.352 591.352> 711.751 128.521<384.33 396.726 384.33 405.303> 747.66 128.521<258.873 282.505 249.142 283.831>
VStem: 64.041 163.485<0.166016 354.546 0.166016 691.906> 427.866 163.485<336.728 691.906 0.166016 691.906>
AnchorPoint: "Anchor-0" 327 672 basechar 0
LayerCount: 2
Fore
SplineSet
591.3515625 691.90625 m 1xcc
 591.3515625 0.166015625 l 1
 436.372070312 0.166015625 l 1
 227.526367188 354.545898438 l 1
 227.526367188 0.166015625 l 1
 64.041015625 0.166015625 l 1
 64.041015625 691.90625 l 1
 219.034179688 691.90625 l 1
 427.866210938 336.727539062 l 1
 427.866210938 691.90625 l 1
 591.3515625 691.90625 l 1xcc
384.395507812 711.750976562 m 0xec
 326.802734375 711.750976562 301.390625 747.66015625 266.271484375 747.66015625 c 0
 251.474609375 747.66015625 242.4296875 746.25 206.361328125 715.537109375 c 2
 173.661132812 687.693359375 l 1
 173.661132812 823.916015625 l 1
 204.729492188 854.983398438 228.233398438 876.181640625 270.05078125 876.181640625 c 0xdc
 294.959960938 876.181640625 312.51953125 871.762695312 346.434570312 854.029296875 c 0
 364.958984375 844.189453125 379.5390625 840.271484375 389.120117188 840.271484375 c 0
 404.331054688 840.271484375 414.205078125 842.087890625 447.486328125 872.809570312 c 2
 480.78515625 903.547851562 l 1
 480.78515625 764.016601562 l 1
 449.716796875 732.948242188 426.2109375 711.750976562 384.395507812 711.750976562 c 0xec
EndSplineSet
EndChar

StartChar: Ograve
Encoding: 210 210 147
Width: 603
GlyphClass: 2
Flags: MW
HStem: -7.39355 150.255<294.621 329.339 294.621 347.181> 552.991 148.365<294.693 329.263>
VStem: 55.5361 164.43<272.326 274.217 274.217 415.021 248.365 421.637 248.365 464.264> 404.24 163.486<274.217 415.021 415.021 421.637 224.973 441.807>
AnchorPoint: "Anchor-0" 311 672 basechar 0
LayerCount: 2
Fore
SplineSet
55.5361328125 421.63671875 m 2
 55.5361328125 506.890625 71.3994140625 701.356445312 312.575195312 701.356445312 c 0
 388.744140625 701.356445312 451.732421875 679.708007812 498.325195312 634.854492188 c 0
 546.236328125 588.731445312 567.7265625 516.267578125 567.7265625 421.63671875 c 2
 567.7265625 272.326171875 l 2
 567.7265625 177.619140625 545.6875 105.037109375 496.747070312 58.955078125 c 0
 449.240234375 14.22265625 385.565429688 -7.3935546875 308.795898438 -7.3935546875 c 0
 182.126953125 -7.3935546875 55.5361328125 48.5791015625 55.5361328125 272.326171875 c 2
 55.5361328125 421.63671875 l 2
404.240234375 274.216796875 m 2
 404.240234375 415.021484375 l 2
 404.240234375 468.591796875 394.831054688 504.499023438 380.673828125 523.782226562 c 0
 366.756835938 542.73828125 345.950195312 552.991210938 312.575195312 552.991210938 c 0
 276.811523438 552.991210938 255.590820312 542.606445312 242.639648438 524.798828125 c 0
 229.221679688 506.348632812 219.965820312 470.0078125 219.965820312 415.021484375 c 2
 219.965820312 274.216796875 l 2
 219.965820312 222.512695312 229.09765625 188.248046875 242.491210938 170.310546875 c 0
 255.348632812 153.090820312 276.666015625 142.861328125 312.575195312 142.861328125 c 0
 346.103515625 142.861328125 366.990234375 152.961914062 380.819335938 171.322265625 c 0
 394.966796875 190.104492188 404.240234375 223.946289062 404.240234375 274.216796875 c 2
112.192382812 881.8515625 m 1
 300.28515625 881.8515625 l 1
 434.575195312 716.4765625 l 1
 283.784179688 716.4765625 l 1
 112.192382812 881.8515625 l 1
EndSplineSet
EndChar

StartChar: Oacute
Encoding: 211 211 148
Width: 603
GlyphClass: 2
Flags: MW
HStem: -7.39355 150.255<294.621 329.339 294.621 347.181> 552.991 148.365<294.693 329.263>
VStem: 55.5361 164.43<272.326 274.217 274.217 415.021 248.365 421.637 248.365 464.264> 404.24 163.486<274.217 415.021 415.021 421.637 224.973 441.807>
AnchorPoint: "Anchor-0" 311 672 basechar 0
LayerCount: 2
Fore
SplineSet
55.5361328125 421.63671875 m 2
 55.5361328125 506.890625 71.3994140625 701.356445312 312.575195312 701.356445312 c 0
 388.744140625 701.356445312 451.732421875 679.708007812 498.325195312 634.854492188 c 0
 546.236328125 588.731445312 567.7265625 516.267578125 567.7265625 421.63671875 c 2
 567.7265625 272.326171875 l 2
 567.7265625 177.619140625 545.6875 105.037109375 496.747070312 58.955078125 c 0
 449.240234375 14.22265625 385.565429688 -7.3935546875 308.795898438 -7.3935546875 c 0
 182.126953125 -7.3935546875 55.5361328125 48.5791015625 55.5361328125 272.326171875 c 2
 55.5361328125 421.63671875 l 2
404.240234375 274.216796875 m 2
 404.240234375 415.021484375 l 2
 404.240234375 468.591796875 394.831054688 504.499023438 380.673828125 523.782226562 c 0
 366.756835938 542.73828125 345.950195312 552.991210938 312.575195312 552.991210938 c 0
 276.811523438 552.991210938 255.590820312 542.606445312 242.639648438 524.798828125 c 0
 229.221679688 506.348632812 219.965820312 470.0078125 219.965820312 415.021484375 c 2
 219.965820312 274.216796875 l 2
 219.965820312 222.512695312 229.09765625 188.248046875 242.491210938 170.310546875 c 0
 255.348632812 153.090820312 276.666015625 142.861328125 312.575195312 142.861328125 c 0
 346.103515625 142.861328125 366.990234375 152.961914062 380.819335938 171.322265625 c 0
 394.966796875 190.104492188 404.240234375 223.946289062 404.240234375 274.216796875 c 2
316.360351562 881.8515625 m 1
 504.453125 881.8515625 l 1
 332.861328125 716.4765625 l 1
 182.071289062 716.4765625 l 1
 316.360351562 881.8515625 l 1
EndSplineSet
EndChar

StartChar: Ocircumflex
Encoding: 212 212 149
Width: 603
GlyphClass: 2
Flags: MW
HStem: -7.39355 150.255<294.621 329.339 294.621 347.181> 552.991 148.365<294.693 329.263>
VStem: 55.5361 164.43<272.326 274.217 274.217 415.021 248.365 421.637 248.365 464.264> 404.24 163.486<274.217 415.021 415.021 421.637 224.973 441.807>
AnchorPoint: "Anchor-0" 311 672 basechar 0
LayerCount: 2
Fore
SplineSet
55.5361328125 421.63671875 m 2
 55.5361328125 506.890625 71.3994140625 701.356445312 312.575195312 701.356445312 c 0
 388.744140625 701.356445312 451.732421875 679.708007812 498.325195312 634.854492188 c 0
 546.236328125 588.731445312 567.7265625 516.267578125 567.7265625 421.63671875 c 2
 567.7265625 272.326171875 l 2
 567.7265625 177.619140625 545.6875 105.037109375 496.747070312 58.955078125 c 0
 449.240234375 14.22265625 385.565429688 -7.3935546875 308.795898438 -7.3935546875 c 0
 182.126953125 -7.3935546875 55.5361328125 48.5791015625 55.5361328125 272.326171875 c 2
 55.5361328125 421.63671875 l 2
404.240234375 274.216796875 m 2
 404.240234375 415.021484375 l 2
 404.240234375 468.591796875 394.831054688 504.499023438 380.673828125 523.782226562 c 0
 366.756835938 542.73828125 345.950195312 552.991210938 312.575195312 552.991210938 c 0
 276.811523438 552.991210938 255.590820312 542.606445312 242.639648438 524.798828125 c 0
 229.221679688 506.348632812 219.965820312 470.0078125 219.965820312 415.021484375 c 2
 219.965820312 274.216796875 l 2
 219.965820312 222.512695312 229.09765625 188.248046875 242.491210938 170.310546875 c 0
 255.348632812 153.090820312 276.666015625 142.861328125 312.575195312 142.861328125 c 0
 346.103515625 142.861328125 366.990234375 152.961914062 380.819335938 171.322265625 c 0
 394.966796875 190.104492188 404.240234375 223.946289062 404.240234375 274.216796875 c 2
258.33203125 888.466796875 m 1
 363.983398438 888.466796875 l 1
 502.885742188 706.081054688 l 1
 361.688476562 706.081054688 l 1
 311.630859375 768.057617188 l 1
 261.572265625 706.081054688 l 1
 119.4296875 706.081054688 l 1
 258.33203125 888.466796875 l 1
EndSplineSet
EndChar

StartChar: Otilde
Encoding: 213 213 150
Width: 603
GlyphClass: 2
Flags: MW
HStem: -7.39355 150.255<294.621 329.339 294.621 347.181> 552.991 148.365<294.693 329.263> 711.751 128.521<368.264 380.66 368.264 389.237> 747.66 128.521<242.807 266.439 233.076 267.765>
VStem: 55.5361 164.43<272.326 274.217 274.217 415.021 248.365 421.637 248.365 464.264> 404.24 163.486<274.217 415.021 415.021 421.637 224.973 441.807>
AnchorPoint: "Anchor-0" 311 672 basechar 0
LayerCount: 2
Fore
SplineSet
55.5361328125 421.63671875 m 2xcc
 55.5361328125 506.890625 71.3994140625 701.356445312 312.575195312 701.356445312 c 0
 388.744140625 701.356445312 451.732421875 679.708007812 498.325195312 634.854492188 c 0
 546.236328125 588.731445312 567.7265625 516.267578125 567.7265625 421.63671875 c 2
 567.7265625 272.326171875 l 2
 567.7265625 177.619140625 545.6875 105.037109375 496.747070312 58.955078125 c 0
 449.240234375 14.22265625 385.565429688 -7.3935546875 308.795898438 -7.3935546875 c 0
 182.126953125 -7.3935546875 55.5361328125 48.5791015625 55.5361328125 272.326171875 c 2
 55.5361328125 421.63671875 l 2xcc
404.240234375 274.216796875 m 2
 404.240234375 415.021484375 l 2
 404.240234375 468.591796875 394.831054688 504.499023438 380.673828125 523.782226562 c 0
 366.756835938 542.73828125 345.950195312 552.991210938 312.575195312 552.991210938 c 0
 276.811523438 552.991210938 255.590820312 542.606445312 242.639648438 524.798828125 c 0
 229.221679688 506.348632812 219.965820312 470.0078125 219.965820312 415.021484375 c 2
 219.965820312 274.216796875 l 2
 219.965820312 222.512695312 229.09765625 188.248046875 242.491210938 170.310546875 c 0
 255.348632812 153.090820312 276.666015625 142.861328125 312.575195312 142.861328125 c 0
 346.103515625 142.861328125 366.990234375 152.961914062 380.819335938 171.322265625 c 0
 394.966796875 190.104492188 404.240234375 223.946289062 404.240234375 274.216796875 c 2
368.329101562 711.750976562 m 0xec
 310.736328125 711.750976562 285.32421875 747.66015625 250.205078125 747.66015625 c 0
 235.408203125 747.66015625 226.364257812 746.25 190.294921875 715.537109375 c 2
 157.595703125 687.693359375 l 1
 157.595703125 823.916015625 l 1
 188.663085938 854.983398438 212.166992188 876.181640625 253.984375 876.181640625 c 0xdc
 278.893554688 876.181640625 296.453125 871.762695312 330.369140625 854.029296875 c 0
 348.892578125 844.189453125 363.473632812 840.271484375 373.0546875 840.271484375 c 0
 388.265625 840.271484375 398.139648438 842.087890625 431.420898438 872.809570312 c 2
 464.719726562 903.547851562 l 1
 464.719726562 764.016601562 l 1
 433.650390625 732.948242188 410.145507812 711.750976562 368.329101562 711.750976562 c 0xec
EndSplineSet
EndChar

StartChar: Odieresis
Encoding: 214 214 151
Width: 603
GlyphClass: 2
Flags: MW
HStem: -7.39355 150.255<294.621 329.339 294.621 347.181> 552.991 148.365<294.693 329.263> 715.531 149.311<150.035 290.841 150.035 290.841 150.035 331.476 331.476 472.28>
VStem: 55.5361 164.43<272.326 274.217 274.217 415.021 248.365 421.637 248.365 464.264> 150.035 140.806<715.531 864.842 715.531 864.842> 331.476 140.805<715.531 864.842 715.531 864.842> 404.24 163.486<274.217 415.021 415.021 421.637 224.973 441.807>
AnchorPoint: "Anchor-0" 311 672 basechar 0
LayerCount: 2
Fore
SplineSet
55.5361328125 421.63671875 m 2xf2
 55.5361328125 506.890625 71.3994140625 701.356445312 312.575195312 701.356445312 c 0
 388.744140625 701.356445312 451.732421875 679.708007812 498.325195312 634.854492188 c 0
 546.236328125 588.731445312 567.7265625 516.267578125 567.7265625 421.63671875 c 2
 567.7265625 272.326171875 l 2
 567.7265625 177.619140625 545.6875 105.037109375 496.747070312 58.955078125 c 0
 449.240234375 14.22265625 385.565429688 -7.3935546875 308.795898438 -7.3935546875 c 0
 182.126953125 -7.3935546875 55.5361328125 48.5791015625 55.5361328125 272.326171875 c 2
 55.5361328125 421.63671875 l 2xf2
404.240234375 274.216796875 m 2
 404.240234375 415.021484375 l 2
 404.240234375 468.591796875 394.831054688 504.499023438 380.673828125 523.782226562 c 0
 366.756835938 542.73828125 345.950195312 552.991210938 312.575195312 552.991210938 c 0
 276.811523438 552.991210938 255.590820312 542.606445312 242.639648438 524.798828125 c 0
 229.221679688 506.348632812 219.965820312 470.0078125 219.965820312 415.021484375 c 2
 219.965820312 274.216796875 l 2
 219.965820312 222.512695312 229.09765625 188.248046875 242.491210938 170.310546875 c 0
 255.348632812 153.090820312 276.666015625 142.861328125 312.575195312 142.861328125 c 0
 346.103515625 142.861328125 366.990234375 152.961914062 380.819335938 171.322265625 c 0
 394.966796875 190.104492188 404.240234375 223.946289062 404.240234375 274.216796875 c 2
150.03515625 864.841796875 m 1xe8
 290.840820312 864.841796875 l 1
 290.840820312 715.53125 l 1
 150.03515625 715.53125 l 1
 150.03515625 864.841796875 l 1xe8
331.475585938 864.841796875 m 1xe4
 472.280273438 864.841796875 l 1
 472.280273438 715.53125 l 1
 331.475585938 715.53125 l 1
 331.475585938 864.841796875 l 1xe4
EndSplineSet
EndChar

StartChar: multiply
Encoding: 215 215 152
Width: 535
GlyphClass: 2
Flags: W
LayerCount: 2
Fore
SplineSet
278.497070312 180.892578125 m 1
 165.064453125 67.4599609375 l 1
 65.3681640625 168.467773438 l 1
 177.790039062 280.889648438 l 1
 65.3349609375 394.290039062 l 1
 165.09765625 494.052734375 l 1
 278.498046875 381.59765625 l 1
 391.103515625 494.203125 l 1
 490.799804688 393.1953125 l 1
 378.435546875 280.831054688 l 1
 490.799804688 168.467773438 l 1
 391.044921875 67.400390625 l 1
 278.497070312 180.892578125 l 1
EndSplineSet
EndChar

StartChar: Oslash
Encoding: 216 216 153
Width: 603
GlyphClass: 2
Flags: MW
HStem: -7.39355 150.255<300.473 329.34 300.473 347.181> 552.99 148.366<294.694 324.417>
VStem: 55.5361 164.431<288.316 415.021 288.316 421.637 288.316 464.261> 404.241 163.485<274.217 410.056 410.056 410.056>
AnchorPoint: "Anchor-0" 311 672 basechar 0
LayerCount: 2
Fore
SplineSet
55.5361328125 421.63671875 m 2
 55.5361328125 506.884765625 71.3974609375 701.356445312 312.576171875 701.356445312 c 0
 363.486328125 701.356445312 407.91015625 692.393554688 445.100585938 673.54296875 c 1
 469.32421875 715.53125 l 1
 582.485351562 715.53125 l 1
 519.703125 608.231445312 l 1
 552.530273438 561.46484375 567.7265625 498.685546875 567.7265625 421.63671875 c 2
 567.7265625 272.326171875 l 2
 567.7265625 177.619140625 545.6875 105.037109375 496.747070312 58.955078125 c 0
 449.240234375 14.22265625 385.565429688 -7.3935546875 308.795898438 -7.3935546875 c 0
 258.399414062 -7.3935546875 214.31640625 1.3447265625 177.241210938 19.703125 c 1
 154.8203125 -18.7333984375 l 1
 40.857421875 -18.7333984375 l 1
 101.76953125 85.8505859375 l 1
 70.0751953125 132.176757812 55.5361328125 194.8671875 55.5361328125 272.326171875 c 2
 55.5361328125 421.63671875 l 2
312.576171875 552.990234375 m 0
 276.8125 552.990234375 255.591796875 542.60546875 242.640625 524.798828125 c 0
 229.22265625 506.34765625 219.966796875 470.006835938 219.966796875 415.020507812 c 2
 219.966796875 288.31640625 l 1
 365.868164062 538.85546875 l 1
 353.333984375 547.922851562 336.2578125 552.990234375 312.576171875 552.990234375 c 0
312.576171875 142.861328125 m 0
 346.104492188 142.861328125 366.991210938 152.961914062 380.8203125 171.322265625 c 0
 394.967773438 190.104492188 404.241210938 223.946289062 404.241210938 274.216796875 c 2
 404.241210938 410.055664062 l 1
 256.846679688 156.74609375 l 1
 270.360351562 147.828125 288.370117188 142.861328125 312.576171875 142.861328125 c 0
EndSplineSet
EndChar

StartChar: Ugrave
Encoding: 217 217 154
Width: 617
GlyphClass: 2
Flags: MW
HStem: -5.50391 147.421<302.312 332.289 302.312 391.986> 671.907 20G<64.042 227.527 227.527 227.527 408.022 572.452 572.452 572.452>
VStem: 64.042 163.485<235.473 239.252 239.252 691.907> 408.022 164.43<239.252 691.907>
AnchorPoint: "Anchor-0" 318 672 basechar 0
LayerCount: 2
Fore
SplineSet
317.302734375 -5.50390625 m 0
 171.9921875 -5.50390625 64.0419921875 93.2705078125 64.0419921875 235.47265625 c 2
 64.0419921875 691.907226562 l 1
 227.52734375 691.907226562 l 1
 227.52734375 239.251953125 l 2
 227.52734375 205.484375 236.227539062 182.317382812 251.336914062 166.4765625 c 0
 266.55859375 150.518554688 287.3203125 141.916992188 317.302734375 141.916992188 c 0
 347.275390625 141.916992188 368.274414062 150.521484375 383.850585938 166.591796875 c 0
 399.223632812 182.453125 408.022460938 205.549804688 408.022460938 239.251953125 c 2
 408.022460938 691.907226562 l 1
 572.452148438 691.907226562 l 1
 572.452148438 235.47265625 l 2
 572.452148438 96.5419921875 466.668945312 -5.50390625 317.302734375 -5.50390625 c 0
118.809570312 881.8515625 m 1
 306.90234375 881.8515625 l 1
 441.19140625 716.4765625 l 1
 290.401367188 716.4765625 l 1
 118.809570312 881.8515625 l 1
EndSplineSet
EndChar

StartChar: Uacute
Encoding: 218 218 155
Width: 617
GlyphClass: 2
Flags: MW
HStem: -5.50391 147.421<302.312 332.289 302.312 391.986> 671.907 20G<64.042 227.527 227.527 227.527 408.022 572.452 572.452 572.452>
VStem: 64.042 163.485<235.473 239.252 239.252 691.907> 408.022 164.43<239.252 691.907>
AnchorPoint: "Anchor-0" 318 672 basechar 0
LayerCount: 2
Fore
SplineSet
317.302734375 -5.50390625 m 0
 171.9921875 -5.50390625 64.0419921875 93.2705078125 64.0419921875 235.47265625 c 2
 64.0419921875 691.907226562 l 1
 227.52734375 691.907226562 l 1
 227.52734375 239.251953125 l 2
 227.52734375 205.484375 236.227539062 182.317382812 251.336914062 166.4765625 c 0
 266.55859375 150.518554688 287.3203125 141.916992188 317.302734375 141.916992188 c 0
 347.275390625 141.916992188 368.274414062 150.521484375 383.850585938 166.591796875 c 0
 399.223632812 182.453125 408.022460938 205.549804688 408.022460938 239.251953125 c 2
 408.022460938 691.907226562 l 1
 572.452148438 691.907226562 l 1
 572.452148438 235.47265625 l 2
 572.452148438 96.5419921875 466.668945312 -5.50390625 317.302734375 -5.50390625 c 0
322.977539062 881.8515625 m 1
 511.0703125 881.8515625 l 1
 339.478515625 716.4765625 l 1
 188.6875 716.4765625 l 1
 322.977539062 881.8515625 l 1
EndSplineSet
EndChar

StartChar: Ucircumflex
Encoding: 219 219 156
Width: 617
GlyphClass: 2
Flags: MW
HStem: -5.50391 147.421<302.312 332.289 302.312 391.986> 671.907 20G<64.042 227.527 227.527 227.527 408.022 572.452 572.452 572.452>
VStem: 64.042 163.485<235.473 239.252 239.252 691.907> 408.022 164.43<239.252 691.907>
AnchorPoint: "Anchor-0" 318 672 basechar 0
LayerCount: 2
Fore
SplineSet
317.302734375 -5.50390625 m 0
 171.9921875 -5.50390625 64.0419921875 93.2705078125 64.0419921875 235.47265625 c 2
 64.0419921875 691.907226562 l 1
 227.52734375 691.907226562 l 1
 227.52734375 239.251953125 l 2
 227.52734375 205.484375 236.227539062 182.317382812 251.336914062 166.4765625 c 0
 266.55859375 150.518554688 287.3203125 141.916992188 317.302734375 141.916992188 c 0
 347.275390625 141.916992188 368.274414062 150.521484375 383.850585938 166.591796875 c 0
 399.223632812 182.453125 408.022460938 205.549804688 408.022460938 239.251953125 c 2
 408.022460938 691.907226562 l 1
 572.452148438 691.907226562 l 1
 572.452148438 235.47265625 l 2
 572.452148438 96.5419921875 466.668945312 -5.50390625 317.302734375 -5.50390625 c 0
264.94921875 888.466796875 m 1
 370.600585938 888.466796875 l 1
 509.502929688 706.081054688 l 1
 368.305664062 706.081054688 l 1
 318.247070312 768.057617188 l 1
 268.189453125 706.081054688 l 1
 126.046875 706.081054688 l 1
 264.94921875 888.466796875 l 1
EndSplineSet
EndChar

StartChar: Udieresis
Encoding: 220 220 157
Width: 617
GlyphClass: 2
Flags: MW
HStem: -5.50391 147.421<302.312 332.289 302.312 391.986> 671.907 20G<64.042 227.527 227.527 227.527 408.022 572.452 572.452 572.452> 715.531 149.311<156.652 297.457 156.652 297.457 156.652 338.092 338.092 478.897>
VStem: 64.042 163.485<235.473 239.252 239.252 691.907> 156.652 140.805<715.531 864.842 715.531 864.842> 338.092 140.806<715.531 864.842 715.531 864.842> 408.022 164.43<239.252 691.907>
AnchorPoint: "Anchor-0" 318 672 basechar 0
LayerCount: 2
Fore
SplineSet
317.302734375 -5.50390625 m 0xf2
 171.9921875 -5.50390625 64.0419921875 93.2705078125 64.0419921875 235.47265625 c 2
 64.0419921875 691.907226562 l 1
 227.52734375 691.907226562 l 1
 227.52734375 239.251953125 l 2
 227.52734375 205.484375 236.227539062 182.317382812 251.336914062 166.4765625 c 0
 266.55859375 150.518554688 287.3203125 141.916992188 317.302734375 141.916992188 c 0
 347.275390625 141.916992188 368.274414062 150.521484375 383.850585938 166.591796875 c 0
 399.223632812 182.453125 408.022460938 205.549804688 408.022460938 239.251953125 c 2
 408.022460938 691.907226562 l 1
 572.452148438 691.907226562 l 1
 572.452148438 235.47265625 l 2
 572.452148438 96.5419921875 466.668945312 -5.50390625 317.302734375 -5.50390625 c 0xf2
156.65234375 864.841796875 m 1xe8
 297.45703125 864.841796875 l 1
 297.45703125 715.53125 l 1
 156.65234375 715.53125 l 1
 156.65234375 864.841796875 l 1xe8
338.091796875 864.841796875 m 1xe4
 478.897460938 864.841796875 l 1
 478.897460938 715.53125 l 1
 338.091796875 715.53125 l 1
 338.091796875 864.841796875 l 1xe4
EndSplineSet
EndChar

StartChar: Yacute
Encoding: 221 221 158
Width: 547
GlyphClass: 2
Flags: MW
HStem: 0.166016 21G<202.012 365.496 202.012 202.012> 671.906 20G<-0.0244141 180.007 180.007 180.007 386.556 567.567 567.567 567.567>
VStem: 202.012 163.484<0.166016 282.809 282.809 282.809>
AnchorPoint: "Anchor-0" 283 672 basechar 0
LayerCount: 2
Fore
SplineSet
386.555664062 691.90625 m 1
 567.567382812 691.90625 l 1
 365.49609375 283.744140625 l 1
 365.49609375 0.166015625 l 1
 202.01171875 0.166015625 l 1
 202.01171875 282.80859375 l 1
 -0.0244140625 691.90625 l 1
 180.006835938 691.90625 l 1
 283.28125 456.810546875 l 1
 386.555664062 691.90625 l 1
288.01171875 881.8515625 m 1
 476.104492188 881.8515625 l 1
 304.51171875 716.4765625 l 1
 153.721679688 716.4765625 l 1
 288.01171875 881.8515625 l 1
EndSplineSet
EndChar

StartChar: Thorn
Encoding: 222 222 159
Width: 571
GlyphClass: 2
Flags: MW
HStem: 0.166016 21G<64.041 227.526 64.041 64.041> 140.972 147.42<227.526 322.026 322.026 327.696 227.526 322.026> 436.756 147.421<227.526 322.026 227.526 327.696> 671.906 20G<64.041 227.526 227.526 227.526>
VStem: 64.041 163.485<0.166016 140.972 0.166016 288.392 288.392 436.756 584.177 691.906> 397.626 163.485<329.919 375.562>
LayerCount: 2
Fore
SplineSet
561.111328125 359.266601562 m 0
 561.111328125 294.498046875 540.205078125 240.287109375 497.696289062 200.237304688 c 0
 455.125976562 160.12890625 397.416992188 140.971679688 327.696289062 140.971679688 c 2
 227.526367188 140.971679688 l 1
 227.526367188 0.166015625 l 1
 64.041015625 0.166015625 l 1
 64.041015625 691.90625 l 1
 227.526367188 691.90625 l 1
 227.526367188 584.176757812 l 1
 327.696289062 584.176757812 l 2
 397.491210938 584.176757812 455.2734375 564.637695312 497.822265625 523.845703125 c 0
 540.439453125 482.989257812 561.111328125 426.911132812 561.111328125 359.266601562 c 0
322.026367188 288.391601562 m 2
 356.317382812 288.391601562 397.625976562 300.572265625 397.625976562 359.266601562 c 0
 397.625976562 391.858398438 387.950195312 436.755859375 322.026367188 436.755859375 c 2
 227.526367188 436.755859375 l 1
 227.526367188 288.391601562 l 1
 322.026367188 288.391601562 l 2
EndSplineSet
EndChar

StartChar: germandbls
Encoding: 223 223 160
Width: 530
GlyphClass: 2
Flags: MW
HStem: -3.61328 137.969<248.316 298.403 298.403 306.906 248.316 298.403> 342.257 137.025<248.318 289.898 248.318 297.458> 561.497 139.86<265.735 290.706>
VStem: 59.3184 156.87<0.166992 490.622 490.622 501.018 0.166992 523.404> 336.203 155.924<511.223 528.756> 344.708 155.923<220.593 253.751>
LayerCount: 2
Fore
SplineSet
451.655273438 416.458984375 m 1xf8
 492.668945312 382.541992188 500.630859375 336.860351562 500.630859375 235.471679688 c 0
 500.630859375 177.688476562 496.163085938 132.557617188 486.100585938 98.90234375 c 0
 458.729492188 7.353515625 375.706054688 -3.61328125 306.90625 -3.61328125 c 2
 248.31640625 -3.61328125 l 1
 248.31640625 134.35546875 l 1
 298.403320312 134.35546875 l 2
 317.029296875 134.35546875 327.197265625 138.348632812 331.071289062 141.576171875 c 0
 335.71484375 145.4453125 339.8203125 152.088867188 341.5859375 164.953125 c 0
 343.548828125 179.254882812 344.708007812 203.82421875 344.708007812 237.362304688 c 0xf4
 344.708007812 270.140625 343.215820312 294.350585938 340.747070312 308.615234375 c 0
 337.012695312 330.1875 326.788085938 342.256835938 289.8984375 342.256835938 c 2
 248.318359375 342.256835938 l 1
 248.318359375 479.282226562 l 1
 297.458007812 479.282226562 l 2
 315.41015625 479.282226562 323.89453125 483.745117188 327.638671875 487.875976562 c 0
 332.141601562 492.844726562 336.203125 502.529296875 336.203125 519.916992188 c 0
 336.203125 537.594726562 331.419921875 546.030273438 325.006835938 551 c 0
 317.77734375 556.603515625 302.852539062 561.497070312 278.55859375 561.497070312 c 0
 252.912109375 561.497070312 237.938476562 555.474609375 230.046875 547.770507812 c 0
 222.217773438 540.127929688 216.188476562 525.876953125 216.188476562 501.017578125 c 2
 216.188476562 0.1669921875 l 1
 59.318359375 0.1669921875 l 1
 59.318359375 490.622070312 l 2
 59.318359375 556.186523438 75.9560546875 609.357421875 112.17578125 646.6640625 c 0
 149.049804688 684.64453125 205.552734375 701.357421875 277.612304688 701.357421875 c 0
 342.124023438 701.357421875 394.833007812 687.279296875 433.599609375 656.409179688 c 0
 472.764648438 625.221679688 492.126953125 580.06640625 492.126953125 525.5859375 c 0
 492.126953125 465.696289062 470.172851562 434.63671875 451.655273438 416.458984375 c 1xf8
EndSplineSet
EndChar

StartChar: agrave
Encoding: 224 224 161
Width: 508
GlyphClass: 2
Flags: MW
HStem: -5.50488 134.19<223.108 245.072> 209.955 120.017<230.36 249.259 249.259 314.464> 407.461 129.466<246.48 275.117>
VStem: 42.3057 153.088<161.079 177.602 161.079 212.479> 314.464 155.925<194.835 209.955 209.955 209.955>
AnchorPoint: "Anchor-0" 256 511 basechar 0
LayerCount: 2
Fore
SplineSet
314.465820312 348.87109375 m 2
 314.465820312 392.705078125 294.359375 407.4609375 255.875 407.4609375 c 0
 237.084960938 407.4609375 224.747070312 402.879882812 216.301757812 395.670898438 c 0
 207.891601562 388.491210938 203.900390625 380.155273438 203.900390625 366.826171875 c 2
 203.900390625 344.146484375 l 1
 55.53515625 344.146484375 l 1
 55.53515625 367.771484375 l 2
 55.53515625 418.743164062 74.46484375 461.634765625 111.974609375 492.291015625 c 0
 149.185546875 522.703125 198.239257812 536.926757812 256.821289062 536.926757812 c 0
 322.153320312 536.926757812 375.3125 521.598632812 413.540039062 488.059570312 c 0
 452.216796875 454.125976562 470.388671875 404.326171875 470.388671875 343.200195312 c 2
 470.388671875 0.1650390625 l 1
 317.298828125 0.1650390625 l 1
 317.298828125 19.9365234375 l 1
 296.016601562 5.88671875 269.234375 -5.5048828125 220.909179688 -5.5048828125 c 0
 167.015625 -5.5048828125 122.193359375 9.1884765625 89.8642578125 40.7841796875 c 0
 57.626953125 72.2900390625 42.3056640625 115.708007812 42.3056640625 167.431640625 c 0
 42.3056640625 257.526367188 102.768554688 329.971679688 230.360351562 329.971679688 c 2
 314.465820312 329.971679688 l 1
 314.465820312 348.87109375 l 2
195.393554688 170.265625 m 0
 195.393554688 151.892578125 198.848632812 128.685546875 247.368164062 128.685546875 c 0
 275.594726562 128.685546875 291.604492188 135.395507812 299.643554688 143.807617188 c 0
 308.262695312 152.828125 314.463867188 168.703125 314.463867188 194.834960938 c 2
 314.463867188 209.955078125 l 1
 249.258789062 209.955078125 l 2
 196.5859375 209.955078125 195.393554688 184.9375 195.393554688 170.265625 c 0
57.380859375 721.200195312 m 1
 245.473632812 721.200195312 l 1
 379.762695312 555.825195312 l 1
 228.97265625 555.825195312 l 1
 57.380859375 721.200195312 l 1
EndSplineSet
EndChar

StartChar: aacute
Encoding: 225 225 162
Width: 508
GlyphClass: 2
Flags: MW
HStem: -5.50488 134.19<223.108 245.072> 209.955 120.017<230.36 249.259 249.259 314.464> 407.461 129.466<246.48 275.117>
VStem: 42.3057 153.088<161.079 177.602 161.079 212.479> 314.464 155.925<194.835 209.955 209.955 209.955>
AnchorPoint: "Anchor-0" 256 511 basechar 0
LayerCount: 2
Fore
SplineSet
314.465820312 348.87109375 m 2
 314.465820312 392.705078125 294.359375 407.4609375 255.875 407.4609375 c 0
 237.084960938 407.4609375 224.747070312 402.879882812 216.301757812 395.670898438 c 0
 207.891601562 388.491210938 203.900390625 380.155273438 203.900390625 366.826171875 c 2
 203.900390625 344.146484375 l 1
 55.53515625 344.146484375 l 1
 55.53515625 367.771484375 l 2
 55.53515625 418.743164062 74.46484375 461.634765625 111.974609375 492.291015625 c 0
 149.185546875 522.703125 198.239257812 536.926757812 256.821289062 536.926757812 c 0
 322.153320312 536.926757812 375.3125 521.598632812 413.540039062 488.059570312 c 0
 452.216796875 454.125976562 470.388671875 404.326171875 470.388671875 343.200195312 c 2
 470.388671875 0.1650390625 l 1
 317.298828125 0.1650390625 l 1
 317.298828125 19.9365234375 l 1
 296.016601562 5.88671875 269.234375 -5.5048828125 220.909179688 -5.5048828125 c 0
 167.015625 -5.5048828125 122.193359375 9.1884765625 89.8642578125 40.7841796875 c 0
 57.626953125 72.2900390625 42.3056640625 115.708007812 42.3056640625 167.431640625 c 0
 42.3056640625 257.526367188 102.768554688 329.971679688 230.360351562 329.971679688 c 2
 314.465820312 329.971679688 l 1
 314.465820312 348.87109375 l 2
195.393554688 170.265625 m 0
 195.393554688 151.892578125 198.848632812 128.685546875 247.368164062 128.685546875 c 0
 275.594726562 128.685546875 291.604492188 135.395507812 299.643554688 143.807617188 c 0
 308.262695312 152.828125 314.463867188 168.703125 314.463867188 194.834960938 c 2
 314.463867188 209.955078125 l 1
 249.258789062 209.955078125 l 2
 196.5859375 209.955078125 195.393554688 184.9375 195.393554688 170.265625 c 0
261.548828125 721.200195312 m 1
 449.641601562 721.200195312 l 1
 278.049804688 555.825195312 l 1
 127.258789062 555.825195312 l 1
 261.548828125 721.200195312 l 1
EndSplineSet
EndChar

